<?xml version="1.0" encoding="UTF-8" ?>
<!DOCTYPE svg PUBLIC "-//W3C//DTD SVG 1.1//EN" "http://www.w3.org/Graphics/SVG/1.1/DTD/svg11.dtd">
<svg width="991pt" height="764pt" viewBox="0 0 991 764" version="1.1" xmlns="http://www.w3.org/2000/svg">
<g id="#000000ff">
<path fill="#000000" opacity="1.00" d=" M 0.00 0.00 L 991.00 0.00 L 991.00 763.03 C 966.34 763.33 941.67 762.96 917.01 763.23 C 914.33 763.28 911.67 763.08 909.02 762.80 C 908.17 756.90 908.65 750.93 908.62 745.00 C 908.61 645.00 908.63 545.00 908.61 445.00 C 908.41 437.46 909.09 429.91 908.45 422.39 C 902.66 421.58 896.81 422.05 891.00 422.02 C 780.66 422.02 670.33 422.01 560.00 422.02 C 552.09 422.24 544.15 421.48 536.26 422.28 C 535.62 427.50 535.95 432.76 535.96 438.00 C 536.00 545.01 535.91 652.03 536.01 759.03 C 535.92 760.25 535.82 761.48 535.71 762.71 C 529.49 763.43 523.23 762.89 517.00 762.97 C 498.66 763.04 480.31 762.87 461.98 763.08 C 459.48 763.11 457.00 762.92 454.53 762.62 C 454.04 757.75 454.32 752.87 454.36 748.00 C 454.39 640.99 454.31 533.98 454.40 426.97 C 454.32 425.40 454.13 423.84 453.96 422.28 C 448.32 421.62 442.65 422.04 437.00 422.02 C 351.67 422.01 266.33 422.02 181.00 422.02 C 175.42 422.00 169.82 422.40 164.27 421.74 C 163.59 415.85 164.06 409.91 164.01 404.00 C 163.98 388.33 164.02 372.67 163.99 357.00 C 164.01 351.52 163.60 346.01 164.39 340.57 C 165.05 340.53 166.36 340.44 167.02 340.40 C 408.67 340.49 650.34 340.40 892.00 340.45 C 897.49 340.48 903.03 340.90 908.46 339.84 C 909.02 328.25 908.39 316.61 908.62 305.00 C 908.62 236.00 908.62 167.00 908.62 98.00 C 908.61 92.72 908.97 87.44 908.46 82.18 C 903.03 81.16 897.49 81.55 892.00 81.59 C 594.67 81.66 297.33 81.51 0.00 81.66 L 0.00 0.00 Z" />
<path fill="#000000" opacity="1.00" d=" M 0.00 340.39 C 27.20 340.61 54.42 340.19 81.61 340.57 C 82.10 344.03 82.14 347.52 82.07 351.01 C 81.75 377.34 82.41 403.67 81.63 429.99 C 81.61 526.99 81.62 623.99 81.62 721.00 C 81.41 734.86 81.98 748.76 81.46 762.61 C 75.67 763.42 69.82 762.94 64.00 762.98 C 42.67 762.99 21.33 762.97 0.00 763.00 L 0.00 340.39 Z" />
</g>
</svg>
