<?xml version="1.0" encoding="utf-8"?>
<!-- Generator: Adobe Illustrator 18.0.0, SVG Export Plug-In . SVG Version: 6.00 Build 0)  -->
<!DOCTYPE svg PUBLIC "-//W3C//DTD SVG 1.1//EN" "http://www.w3.org/Graphics/SVG/1.1/DTD/svg11.dtd">
<svg version="1.1" id="Layer_1" xmlns="http://www.w3.org/2000/svg" xmlns:xlink="http://www.w3.org/1999/xlink" x="0px" y="0px"
	 width="991px" height="764px" viewBox="0 0 991 764" enable-background="new 0 0 991 764" xml:space="preserve">
<g id="_x23_000000ff">
	<path d="M0,0h991v763c-24.7,0.3-49.3-0.1-74,0.2c-2.7,0.1-5.3-0.1-8-0.4c-0.9-5.9-0.4-11.9-0.4-17.8c0-100,0-200,0-300
		c-0.2-7.5,0.5-15.1-0.2-22.6c-5.8-0.8-11.6-0.3-17.5-0.4c-110.3,0-220.7,0-331,0c-7.9,0.2-15.8-0.5-23.7,0.3
		c-0.6,5.2-0.3,10.5-0.3,15.7c0,107-0.1,214,0,321c-0.1,1.2-0.2,2.4-0.3,3.7c-6.2,0.7-12.5,0.2-18.7,0.3c-18.3,0.1-36.7-0.1-55,0.1
		c-2.5,0-5-0.2-7.5-0.5c-0.5-4.9-0.2-9.8-0.2-14.6c0-107,0-214,0-321c-0.1-1.6-0.3-3.1-0.4-4.7c-5.6-0.7-11.3-0.2-17-0.3
		c-85.3,0-170.7,0-256,0c-5.6,0-11.2,0.4-16.7-0.3c-0.7-5.9-0.2-11.8-0.3-17.7c0-15.7,0-31.3,0-47c0-5.5-0.4-11,0.4-16.4
		c0.7,0,2-0.1,2.6-0.2c241.7,0.1,483.3,0,725,0.1c5.5,0,11,0.4,16.5-0.6c0.6-11.6-0.1-23.2,0.2-34.8c0-69,0-138,0-207
		c0-5.3,0.3-10.6-0.2-15.8c-5.4-1-11-0.6-16.5-0.6c-297.3,0.1-594.7-0.1-892,0.1V0z"/>
	<path d="M0,340.4c27.2,0.2,54.4-0.2,81.6,0.2c0.5,3.5,0.5,6.9,0.5,10.4c-0.3,26.3,0.3,52.7-0.4,79c0,97,0,194,0,291
		c-0.2,13.9,0.4,27.8-0.2,41.6c-5.8,0.8-11.6,0.3-17.5,0.4c-21.3,0-42.7,0-64,0V340.4z"/>
</g>
</svg>
