<?xml version="1.0" encoding="utf-8"?>
<!-- Generator: Adobe Illustrator 18.0.0, SVG Export Plug-In . SVG Version: 6.00 Build 0)  -->
<!DOCTYPE svg PUBLIC "-//W3C//DTD SVG 1.1//EN" "http://www.w3.org/Graphics/SVG/1.1/DTD/svg11.dtd">
<svg version="1.1" id="Layer_1" xmlns="http://www.w3.org/2000/svg" xmlns:xlink="http://www.w3.org/1999/xlink" x="0px" y="0px"
	 width="1000px" height="1000px" viewBox="0 0 1000 1000" enable-background="new 0 0 1000 1000" xml:space="preserve">
<g id="Layer_1_1_">
</g>
<g id="Layer_3_copy">
	<path fill="#98D9F0" d="M594,764.8c41.5-67,46.3-75,46.6-75.3l0,0c-0.3,0.3-3.5,5.5,68.4-110.5c-149.6-14.5-143.4-13.8-142.7-13.8
		l0,0c-0.7,0-10.7-1-97.1-9.3c-254.9-24.5-338.9,288.1-338.9,288.1l0.7,1.4C131.4,844.6,471.3,962.7,594,764.8z"/>
	<path fill="#EE3226" d="M688.3,612.1l0.3-1.4c0,0-160.6-321.2-421.1-280.5c-88.4,13.8-98.4,15.5-99.1,15.5l0,0
		c0.7,0,7.3-1-145.8,22.8c102.2,117.1,97.8,111.9,97.4,111.6l0,0c0.3,0.7,7.3,8.3,66.3,76C361.1,755.4,688.3,612.1,688.3,612.1z"/>
	<path fill="#78A23F" d="M904.8,12.4l-1.4-0.3c0,0-337.1,125.4-273.9,369.9c21.4,82.9,23.8,92.6,24.2,92.9l0,0
		c0-0.7-1.7-6.9,35.2,136.4c119.5-86.4,114.3-82.6,114-82.2l0,0c0.7-0.3,8.6-6.2,77.7-56C1084.1,326.1,904.8,12.4,904.8,12.4z"/>
	<path fill="#FCBA1B" d="M511.7,174.8l-1,0.3c0,0-113.6,211.4,36.6,327.5c51.1,39.4,57,43.9,57.3,44.2l0,0
		c-0.3-0.3-4.1-3.1,83.9,64.6c20-99.1,19.3-95,19.3-94.6l0,0c0-0.3,1.4-7.3,13.1-64.6C755.6,283.2,511.7,174.8,511.7,174.8z"/>
	<path fill="#F38194" d="M680,773.1c3.1-58.4,3.5-65.3,3.8-65.6l0,0c0,0.3-0.3,4.8,5.2-96.4c-102.6,43.9-98.1,41.8-97.8,41.8l0,0
		c-0.3,0.3-7.3,3.1-66.7,28.3C349.7,755.8,406,988.9,406,988.9l1,0.7C407.1,989.6,670.3,945.8,680,773.1z"/>
</g>
</svg>
