<?xml version="1.0" encoding="utf-8"?>
<!-- Generator: Adobe Illustrator 18.0.0, SVG Export Plug-In . SVG Version: 6.00 Build 0)  -->
<!DOCTYPE svg PUBLIC "-//W3C//DTD SVG 1.1//EN" "http://www.w3.org/Graphics/SVG/1.1/DTD/svg11.dtd">
<svg version="1.1" xmlns="http://www.w3.org/2000/svg" xmlns:xlink="http://www.w3.org/1999/xlink" x="0px" y="0px"
	 viewBox="0 0 284 289.5" enable-background="new 0 0 284 289.5" xml:space="preserve">
<g id="Layer_1">
</g>
<g id="Layer_3_copy">
	<path fill="#98D9F0" d="M169.2,221.4c12-19.4,13.4-21.7,13.5-21.8c0,0,0,0,0,0c-0.1,0.1-1,1.6,19.8-32c-43.3-4.2-41.5-4-41.3-4
		c0,0,0,0,0,0c-0.2,0-3.1-0.3-28.1-2.7c-73.8-7.1-98.1,83.4-98.1,83.4l0.2,0.4C35.3,244.5,133.7,278.7,169.2,221.4z"/>
	<path fill="#EE3226" d="M196.5,177.2l0.1-0.4c0,0-46.5-93-121.9-81.2c-25.6,4-28.5,4.5-28.7,4.5c0,0,0,0,0,0
		c0.2,0,2.1-0.3-42.2,6.6c29.6,33.9,28.3,32.4,28.2,32.3c0,0,0,0,0,0c0.1,0.2,2.1,2.4,19.2,22C101.8,218.7,196.5,177.2,196.5,177.2z
		"/>
	<path fill="#78A23F" d="M259.2,3.6l-0.4-0.1c0,0-97.6,36.3-79.3,107.1c6.2,24,6.9,26.8,7,26.9c0,0,0,0,0,0c0-0.2-0.5-2,10.2,39.5
		c34.6-25,33.1-23.9,33-23.8c0,0,0,0,0,0c0.2-0.1,2.5-1.8,22.5-16.2C311.1,94.4,259.2,3.6,259.2,3.6z"/>
	<path fill="#FCBA1B" d="M145.4,50.6l-0.3,0.1c0,0-32.9,61.2,10.6,94.8c14.8,11.4,16.5,12.7,16.6,12.8c0,0,0,0,0,0
		c-0.1-0.1-1.2-0.9,24.3,18.7c5.8-28.7,5.6-27.5,5.6-27.4c0,0,0,0,0,0c0-0.1,0.4-2.1,3.8-18.7C216,82,145.4,50.6,145.4,50.6z"/>
	<path fill="#F38194" d="M194.1,223.8c0.9-16.9,1-18.9,1.1-19c0,0,0,0,0,0c0,0.1-0.1,1.4,1.5-27.9c-29.7,12.7-28.4,12.1-28.3,12.1
		c0,0,0,0,0,0c-0.1,0.1-2.1,0.9-19.3,8.2c-50.6,21.6-34.3,89.1-34.3,89.1l0.3,0.2C115.1,286.5,191.3,273.8,194.1,223.8z"/>
</g>
</svg>
