<?xml version="1.0" encoding="utf-8"?>
<!-- Generator: Adobe Illustrator 18.0.0, SVG Export Plug-In . SVG Version: 6.00 Build 0)  -->
<!DOCTYPE svg PUBLIC "-//W3C//DTD SVG 1.1//EN" "http://www.w3.org/Graphics/SVG/1.1/DTD/svg11.dtd">
<svg version="1.1" id="Layer_1" xmlns:sketch="http://www.bohemiancoding.com/sketch/ns"
	 xmlns="http://www.w3.org/2000/svg" xmlns:xlink="http://www.w3.org/1999/xlink" x="0px" y="0px" width="71.2px" height="60.4px"
	 viewBox="4.8 4.2 71.2 60.4" enable-background="new 4.8 4.2 71.2 60.4" xml:space="preserve">
<title>Slice 1</title>
<desc>Created with Sketch.</desc>
<g id="Page-1" sketch:type="MSPage">
	<g id="SSL-Lock" sketch:type="MSLayerGroup">
		<g id="Layer_1_1_">
		</g>
		<g id="Isolation_Mode" transform="translate(4.000000, 4.000000)" sketch:type="MSShapeGroup">
			<g id="_x23_a0cc41ff">
				<path id="Shape_7_" fill="#A0CC41" d="M18.5,1.8c1-1.7,3.4-1.2,5-1.2c0,0,28.5,0.4,40.2,0.2c0.7,0,1.2,0.7,1.1,1.3
					c-0.3,2.3-0.8,4.7-1.3,7c-0.2,0.7,0.4,1.4,1.1,1.5c2.1,0.1,4.2,0.1,6.2,0.2c0.7,0,1.3,0.7,1.1,1.4C68.7,25,61.4,56.8,60.7,60
					c-0.1,0.4-0.6,0.6-1,0.6H21.6c-0.7,0-1.3-0.5-1.2-1.2c0.7-3.6,7.3-34.7,10.1-47c0.2-0.7-0.3-1.4-1-1.5
					c-3.9-0.3-7.8-0.3-11.7-0.3c-0.7,0-1.3-0.7-1.2-1.4C17.1,6.8,17.5,4.2,18.5,1.8L18.5,1.8L18.5,1.8z M44.7,33.2
					c-1.1,3.2-2.3,6.4-3.5,9.6c-0.3,0.8,0.3,1.6,1.1,1.6h5.5c0.6,0,1.1-0.5,1.2-1.1c0.3-3.5,0.6-6.9,0.9-10.4c0-0.3,0.2-0.6,0.4-0.8
					c2-1.8,3.8-4.7,2-7.2c-0.1-0.1-0.1-0.2-0.2-0.2c-4.3-3.6-10.8,3-7.6,7.4C44.8,32.4,44.8,32.8,44.7,33.2L44.7,33.2L44.7,33.2z"/>
				<path id="Shape_8_" fill="#A0CC41" d="M15.8,16.4c5,0,5,0,7.9-0.1c0.7,0,1.3,0.7,1.1,1.4c-0.6,2.6-1.3,5.2-1.9,7.7
					c-0.1,0.4-0.5,0.7-1,0.7c-2.6,0.1-4.9,0.1-7.6,0.1c-0.7,0-1.3-0.7-1.1-1.4c0.6-2.7,1.1-5.2,1.8-7.7C15,16.7,15.4,16.4,15.8,16.4
					L15.8,16.4L15.8,16.4z"/>
				<path id="Shape_9_" fill="#A0CC41" d="M3.4,0.3c5,0,5,0,7.9-0.1c0.7,0,1.3,0.7,1.1,1.4c-0.6,2.6-1.3,5.2-1.9,7.7
					C10.4,9.7,10,10,9.5,10c-2.6,0.1-4.9,0.1-7.6,0.1c-0.7,0-1.3-0.7-1.1-1.4C1.4,6,1.9,3.5,2.6,1C2.6,0.7,3,0.3,3.4,0.3L3.4,0.3
					L3.4,0.3z"/>
			</g>
		</g>
	</g>
</g>
</svg>
