<?xml version="1.0" encoding="UTF-8" ?>
<!DOCTYPE svg PUBLIC "-//W3C//DTD SVG 1.1//EN" "http://www.w3.org/Graphics/SVG/1.1/DTD/svg11.dtd">
<svg width="400pt" height="400pt" viewBox="0 0 400 400" version="1.1" xmlns="http://www.w3.org/2000/svg">
<g id="#fb481cff">
<path fill="#fb481c" opacity="1.00" d=" M 0.00 140.38 C 36.00 140.35 72.00 140.38 108.00 140.37 C 112.34 140.33 116.74 139.90 121.00 140.96 C 121.90 146.60 121.32 152.32 121.41 158.00 C 121.43 187.67 121.42 217.33 121.42 247.00 C 121.46 251.62 121.84 256.30 120.87 260.86 C 116.63 261.77 112.29 261.51 108.00 261.43 C 72.00 261.35 36.00 261.54 0.00 261.33 L 0.00 140.38 Z" />
</g>
<g id="#15e014ff">
<path fill="#15e014" opacity="1.00" d=" M 140.61 140.61 C 142.08 140.49 143.55 140.40 145.02 140.34 C 180.01 140.40 215.01 140.35 250.00 140.37 C 253.64 140.46 257.41 139.75 260.92 141.02 C 261.14 142.33 261.30 143.65 261.41 144.97 C 261.34 182.33 261.35 219.70 261.40 257.06 C 261.28 258.32 261.09 259.57 260.81 260.81 C 259.57 261.09 258.32 261.28 257.05 261.40 C 219.70 261.36 182.33 261.33 144.97 261.41 C 143.65 261.30 142.34 261.14 141.04 260.91 C 139.72 257.41 140.47 253.63 140.37 250.00 C 140.36 217.33 140.37 184.67 140.37 152.00 C 140.29 148.20 140.24 144.39 140.61 140.61 Z" />
</g>
<g id="#0343faff">
<path fill="#0343fa" opacity="1.00" d=" M 280.66 140.66 C 285.09 140.21 289.55 140.25 294.00 140.36 C 329.33 140.42 364.67 140.29 400.00 140.43 L 400.00 261.39 C 365.00 261.38 330.00 261.40 295.00 261.38 C 290.33 261.43 285.63 261.75 281.01 260.92 C 279.73 256.38 280.43 251.64 280.38 247.00 C 280.32 213.34 280.43 179.68 280.32 146.02 C 280.38 144.23 280.52 142.44 280.66 140.66 Z" />
</g>
</svg>
