<?xml version="1.0" encoding="utf-8"?>
<!-- Generator: Adobe Illustrator 18.0.0, SVG Export Plug-In . SVG Version: 6.00 Build 0)  -->
<!DOCTYPE svg PUBLIC "-//W3C//DTD SVG 1.1//EN" "http://www.w3.org/Graphics/SVG/1.1/DTD/svg11.dtd">
<svg version="1.1" xmlns="http://www.w3.org/2000/svg" xmlns:xlink="http://www.w3.org/1999/xlink" x="0px" y="0px" width="800px"
	 height="800px" viewBox="0 0 800 800" enable-background="new 0 0 800 800" xml:space="preserve">
<g id="background">
	<g>
		<defs>
			<rect id="SVGID_1_" width="800" height="800"/>
		</defs>
		<clipPath id="SVGID_2_">
			<use xlink:href="#SVGID_1_"  overflow="visible"/>
		</clipPath>
		<g clip-path="url(#SVGID_2_)">
			<polygon fill="#46ABA4" points="752.949,963.014 776.474,922.267 799.999,963.014 			"/>
			<polygon fill="#46ABA4" points="705.898,963.014 729.423,922.267 752.948,963.014 			"/>
			<polygon fill="#46ABA4" points="658.847,963.014 682.372,922.267 705.898,963.014 			"/>
			<polygon fill="#6CBAD4" points="611.796,963.014 635.321,922.267 658.847,963.014 			"/>
			<polygon fill="#6795C1" points="564.746,963.014 588.271,922.267 611.795,963.014 			"/>
			<polygon fill="#6795C1" points="517.695,963.014 541.22,922.267 564.745,963.014 			"/>
			<polygon fill="#46ABA4" points="470.645,963.014 494.169,922.267 517.694,963.014 			"/>
			<polygon fill="#6CBAD4" points="423.594,963.014 447.118,922.267 470.644,963.014 			"/>
			<polygon fill="#6CBAD4" points="376.543,963.014 400.067,922.267 423.593,963.014 			"/>
			<polygon fill="#6795C1" points="329.491,963.014 353.017,922.267 376.542,963.014 			"/>
			<polygon fill="#6795C1" points="282.44,963.014 305.966,922.267 329.49,963.014 			"/>
			<polygon fill="#6CBAD4" points="235.39,963.014 258.915,922.267 282.44,963.014 			"/>
			<polygon fill="#46ABA4" points="188.339,963.014 211.864,922.267 235.389,963.014 			"/>
			<polygon fill="#46ABA4" points="141.289,963.014 164.814,922.267 188.338,963.014 			"/>
			<polygon fill="#46ABA4" points="94.237,963.014 117.763,922.267 141.288,963.014 			"/>
			<polygon fill="#6795C1" points="47.187,963.014 70.712,922.267 94.236,963.014 			"/>
			<polygon fill="#6795C1" points="0.136,963.014 23.661,922.267 47.186,963.014 			"/>
			<polygon fill="#46ABA4" points="823.526,922.267 800.001,963.014 776.477,922.267 			"/>
			<polygon fill="#46ABA4" points="776.476,922.267 800,881.519 823.525,922.267 			"/>
			<polygon fill="#6795C1" points="776.476,922.267 752.95,963.014 729.426,922.267 			"/>
			<polygon fill="#46ABA4" points="729.425,922.267 752.949,881.519 776.475,922.267 			"/>
			<polygon fill="#6795C1" points="729.425,922.267 705.899,963.014 682.374,922.267 			"/>
			<polygon fill="#6795C1" points="682.373,922.267 705.898,881.519 729.424,922.267 			"/>
			<polygon fill="#6795C1" points="682.373,922.267 658.849,963.014 635.323,922.267 			"/>
			<polygon fill="#6795C1" points="635.322,922.267 658.848,881.519 682.373,922.267 			"/>
			<polygon fill="#46ABA4" points="635.322,922.267 611.798,963.014 588.273,922.267 			"/>
			<polygon fill="#6795C1" points="588.273,922.267 611.797,881.519 635.321,922.267 			"/>
			<polygon fill="#6CBAD4" points="588.273,922.267 564.747,963.014 541.223,922.267 			"/>
			<polygon fill="#6795C1" points="541.222,922.267 564.746,881.519 588.271,922.267 			"/>
			<polygon fill="#6CBAD4" points="541.222,922.267 517.696,963.014 494.172,922.267 			"/>
			<polygon fill="#46ABA4" points="494.171,922.267 517.695,881.519 541.221,922.267 			"/>
			<polygon fill="#6795C1" points="494.171,922.267 470.646,963.014 447.121,922.267 			"/>
			<polygon fill="#6CBAD4" points="447.12,922.267 470.645,881.519 494.17,922.267 			"/>
			<polygon fill="#6795C1" points="447.12,922.267 423.595,963.014 400.069,922.267 			"/>
			<polygon fill="#46ABA4" points="400.069,922.267 423.594,881.519 447.119,922.267 			"/>
			<polygon fill="#46ABA4" points="400.069,922.267 376.544,963.014 353.019,922.267 			"/>
			<polygon fill="#6CBAD4" points="353.018,922.267 376.543,881.519 400.068,922.267 			"/>
			<polygon fill="#6CBAD4" points="353.018,922.267 329.493,963.014 305.968,922.267 			"/>
			<polygon fill="#6CBAD4" points="305.967,922.267 329.492,881.519 353.017,922.267 			"/>
			<polygon fill="#6795C1" points="305.967,922.267 282.442,963.014 258.917,922.267 			"/>
			<polygon fill="#46ABA4" points="258.916,922.267 282.441,881.519 305.966,922.267 			"/>
			<polygon fill="#6795C1" points="258.916,922.267 235.392,963.014 211.867,922.267 			"/>
			<polygon fill="#6CBAD4" points="211.865,922.267 235.391,881.519 258.915,922.267 			"/>
			<polygon fill="#6795C1" points="211.865,922.267 188.341,963.014 164.816,922.267 			"/>
			<polygon fill="#6795C1" points="164.815,922.267 188.34,881.519 211.864,922.267 			"/>
			<polygon fill="#6795C1" points="164.815,922.267 141.29,963.014 117.765,922.267 			"/>
			<polygon fill="#6795C1" points="117.764,922.267 141.289,881.519 164.814,922.267 			"/>
			<polygon fill="#6795C1" points="117.764,922.267 94.239,963.014 70.714,922.267 			"/>
			<polygon fill="#6795C1" points="70.713,922.267 94.238,881.519 117.763,922.267 			"/>
			<polygon fill="#46ABA4" points="70.713,922.267 47.188,963.014 23.663,922.267 			"/>
			<polygon fill="#6795C1" points="23.662,922.267 47.188,881.519 70.712,922.267 			"/>
			<polygon fill="#46ABA4" points="23.662,922.267 0.138,963.014 -23.388,922.267 			"/>
			<polygon fill="#6795C1" points="-23.389,922.267 0.137,881.519 23.661,922.267 			"/>
			<polygon fill="#6795C1" points="800,881.604 776.475,922.352 752.95,881.604 			"/>
			<polygon fill="#46ABA4" points="752.949,881.604 776.474,840.857 799.999,881.604 			"/>
			<polygon fill="#6795C1" points="752.949,881.604 729.424,922.352 705.899,881.604 			"/>
			<polygon fill="#6CBAD4" points="705.898,881.604 729.423,840.857 752.948,881.604 			"/>
			<polygon fill="#46ABA4" points="705.898,881.604 682.373,922.352 658.848,881.604 			"/>
			<polygon fill="#6CBAD4" points="658.847,881.604 682.372,840.857 705.898,881.604 			"/>
			<polygon fill="#46ABA4" points="658.847,881.604 635.322,922.352 611.797,881.604 			"/>
			<polygon fill="#6795C1" points="611.796,881.604 635.321,840.857 658.847,881.604 			"/>
			<polygon fill="#46ABA4" points="611.796,881.604 588.271,922.352 564.747,881.604 			"/>
			<polygon fill="#6CBAD4" points="564.746,881.604 588.271,840.857 611.795,881.604 			"/>
			<polygon fill="#6CBAD4" points="564.746,881.604 541.221,922.352 517.696,881.604 			"/>
			<polygon fill="#46ABA4" points="517.695,881.604 541.22,840.857 564.745,881.604 			"/>
			<polygon fill="#6795C1" points="517.695,881.604 494.17,922.352 470.646,881.604 			"/>
			<polygon fill="#6CBAD4" points="470.645,881.604 494.169,840.857 517.694,881.604 			"/>
			<polygon fill="#6795C1" points="470.645,881.604 447.119,922.352 423.595,881.604 			"/>
			<polygon fill="#6CBAD4" points="423.594,881.604 447.118,840.857 470.644,881.604 			"/>
			<polygon opacity="0.7" fill="#6CBAD4" points="423.594,881.604 400.068,922.352 376.543,881.604 			"/>
			<polygon fill="#46ABA4" points="376.543,881.604 400.067,840.857 423.593,881.604 			"/>
			<polygon fill="#46ABA4" points="376.543,881.604 353.018,922.352 329.492,881.604 			"/>
			<polygon fill="#6795C1" points="329.491,881.604 353.017,840.857 376.542,881.604 			"/>
			<polygon fill="#6795C1" points="329.491,881.604 305.967,922.352 282.441,881.604 			"/>
			<polygon fill="#46ABA4" points="282.44,881.604 305.966,840.857 329.49,881.604 			"/>
			<polygon opacity="0.7" fill="#6CBAD4" points="282.44,881.604 258.916,922.352 235.391,881.604 			"/>
			<polygon fill="#6795C1" points="235.39,881.604 258.915,840.857 282.44,881.604 			"/>
			<polygon fill="#46ABA4" points="235.39,881.604 211.865,922.352 188.341,881.604 			"/>
			<polygon fill="#6795C1" points="188.339,881.604 211.864,840.857 235.389,881.604 			"/>
			<polygon fill="#46ABA4" points="188.339,881.604 164.814,922.352 141.29,881.604 			"/>
			<polygon fill="#6795C1" points="141.289,881.604 164.814,840.857 188.338,881.604 			"/>
			<polygon fill="#46ABA4" points="141.289,881.604 117.764,922.352 94.238,881.604 			"/>
			<polygon fill="#6795C1" points="94.237,881.604 117.763,840.857 141.288,881.604 			"/>
			<polygon fill="#46ABA4" points="94.237,881.604 70.713,922.352 47.188,881.604 			"/>
			<polygon fill="#6795C1" points="47.187,881.604 70.712,840.857 94.236,881.604 			"/>
			<polygon fill="#46ABA4" points="47.187,881.604 23.662,922.352 0.137,881.604 			"/>
			<polygon fill="#6795C1" points="0.136,881.604 23.661,840.857 47.186,881.604 			"/>
			<polygon fill="#6CBAD4" points="823.526,840.857 800.001,881.604 776.477,840.857 			"/>
			<polygon fill="#6795C1" points="776.476,840.857 800,800.11 823.525,840.857 			"/>
			<polygon fill="#6795C1" points="776.476,840.857 752.95,881.604 729.426,840.857 			"/>
			<polygon fill="#6CBAD4" points="729.425,840.857 752.949,800.11 776.475,840.857 			"/>
			<polygon fill="#6795C1" points="729.425,840.857 705.899,881.604 682.374,840.857 			"/>
			<polygon fill="#6CBAD4" points="682.373,840.857 705.898,800.11 729.424,840.857 			"/>
			<polygon fill="#46ABA4" points="682.373,840.857 658.849,881.604 635.323,840.857 			"/>
			<polygon opacity="0.7" fill="#6CBAD4" points="635.322,840.857 658.848,800.11 682.373,840.857 			"/>
			<polygon fill="#46ABA4" points="635.322,840.857 611.798,881.604 588.273,840.857 			"/>
			<polygon fill="#6CBAD4" points="588.273,840.857 611.797,800.11 635.321,840.857 			"/>
			<polygon fill="#6795C1" points="588.273,840.857 564.747,881.604 541.223,840.857 			"/>
			<polygon fill="#46ABA4" points="541.222,840.857 564.746,800.11 588.271,840.857 			"/>
			<polygon fill="#6795C1" points="541.222,840.857 517.696,881.604 494.172,840.857 			"/>
			<polygon fill="#46ABA4" points="494.171,840.857 517.695,800.11 541.221,840.857 			"/>
			<polygon fill="#6795C1" points="494.171,840.857 470.646,881.604 447.121,840.857 			"/>
			<polygon fill="#6CBAD4" points="447.12,840.857 470.645,800.11 494.17,840.857 			"/>
			<polygon fill="#6795C1" points="447.12,840.857 423.595,881.604 400.069,840.857 			"/>
			<polygon fill="#6CBAD4" points="400.069,840.857 423.594,800.11 447.119,840.857 			"/>
			<polygon fill="#6CBAD4" points="400.069,840.857 376.544,881.604 353.019,840.857 			"/>
			<polygon fill="#46ABA4" points="353.018,840.857 376.543,800.11 400.068,840.857 			"/>
			<polygon opacity="0.7" fill="#6CBAD4" points="353.018,840.857 329.493,881.604 305.968,840.857 			"/>
			<polygon fill="#6CBAD4" points="305.967,840.857 329.492,800.11 353.017,840.857 			"/>
			<polygon fill="#6CBAD4" points="305.967,840.857 282.442,881.604 258.917,840.857 			"/>
			<polygon fill="#6795C1" points="258.916,840.857 282.441,800.11 305.966,840.857 			"/>
			<polygon fill="#6CBAD4" points="258.916,840.857 235.392,881.604 211.867,840.857 			"/>
			<polygon fill="#6795C1" points="211.865,840.857 235.391,800.11 258.915,840.857 			"/>
			<polygon fill="#6CBAD4" points="211.865,840.857 188.341,881.604 164.816,840.857 			"/>
			<polygon fill="#6CBAD4" points="164.815,840.857 188.34,800.11 211.864,840.857 			"/>
			<polygon fill="#46ABA4" points="164.815,840.857 141.29,881.604 117.765,840.857 			"/>
			<polygon fill="#6CBAD4" points="117.764,840.857 141.289,800.11 164.814,840.857 			"/>
			<polygon fill="#6CBAD4" points="117.764,840.857 94.239,881.604 70.714,840.857 			"/>
			<polygon fill="#46ABA4" points="70.713,840.857 94.238,800.11 117.763,840.857 			"/>
			<polygon fill="#6CBAD4" points="70.713,840.857 47.188,881.604 23.663,840.857 			"/>
			<polygon fill="#46ABA4" points="23.662,840.857 47.188,800.11 70.712,840.857 			"/>
			<polygon fill="#46ABA4" points="23.662,840.857 0.138,881.604 -23.388,840.857 			"/>
			<polygon fill="#46ABA4" points="-23.389,840.857 0.137,800.11 23.661,840.857 			"/>
			<polygon fill="#6CBAD4" points="800,800.133 776.475,840.881 752.95,800.133 			"/>
			<polygon fill="#6795C1" points="752.949,800.133 776.474,759.387 799.999,800.133 			"/>
			<polygon fill="#6795C1" points="752.949,800.133 729.424,840.881 705.899,800.133 			"/>
			<polygon fill="#46ABA4" points="705.898,800.133 729.423,759.387 752.948,800.133 			"/>
			<polygon fill="#46ABA4" points="705.898,800.133 682.373,840.881 658.848,800.133 			"/>
			<polygon fill="#6795C1" points="658.847,800.133 682.372,759.387 705.898,800.133 			"/>
			<polygon fill="#6795C1" points="658.847,800.133 635.322,840.881 611.797,800.133 			"/>
			<polygon fill="#46ABA4" points="611.796,800.133 635.321,759.387 658.847,800.133 			"/>
			<polygon fill="#6795C1" points="611.796,800.133 588.271,840.881 564.747,800.133 			"/>
			<polygon opacity="0.5" fill="#54DECD" points="564.746,800.133 588.271,759.387 611.795,800.133 			"/>
			<polygon fill="#6CBAD4" points="564.746,800.133 541.221,840.881 517.696,800.133 			"/>
			<polygon fill="#6795C1" points="517.695,800.133 541.22,759.387 564.745,800.133 			"/>
			<polygon opacity="0.7" fill="#6CBAD4" points="517.695,800.133 494.17,840.881 470.646,800.133 			"/>
			<polygon fill="#6795C1" points="470.645,800.133 494.169,759.387 517.694,800.133 			"/>
			<polygon fill="#6795C1" points="470.645,800.133 447.119,840.881 423.595,800.133 			"/>
			<polygon fill="#46ABA4" points="423.594,800.133 447.118,759.387 470.644,800.133 			"/>
			<polygon opacity="0.7" fill="#6CBAD4" points="423.594,800.133 400.068,840.881 376.543,800.133 			"/>
			<polygon fill="#6CBAD4" points="376.543,800.133 400.067,759.387 423.593,800.133 			"/>
			<polygon fill="#6795C1" points="376.543,800.133 353.018,840.881 329.492,800.133 			"/>
			<polygon opacity="0.7" fill="#6CBAD4" points="329.491,800.133 353.017,759.387 376.542,800.133 			"/>
			<polygon opacity="0.7" fill="#6CBAD4" points="329.491,800.133 305.967,840.881 282.441,800.133 			"/>
			<polygon fill="#6795C1" points="282.44,800.133 305.966,759.387 329.49,800.133 			"/>
			<polygon fill="#6CBAD4" points="282.44,800.133 258.916,840.881 235.391,800.133 			"/>
			<polygon opacity="0.7" fill="#6CBAD4" points="235.39,800.133 258.915,759.387 282.44,800.133 			"/>
			<polygon fill="#46ABA4" points="235.39,800.133 211.865,840.881 188.341,800.133 			"/>
			<polygon fill="#6CBAD4" points="188.339,800.133 211.864,759.387 235.389,800.133 			"/>
			<polygon fill="#6795C1" points="188.339,800.133 164.814,840.881 141.29,800.133 			"/>
			<polygon fill="#46ABA4" points="141.289,800.133 164.814,759.387 188.338,800.133 			"/>
			<polygon fill="#6795C1" points="141.289,800.133 117.764,840.881 94.238,800.133 			"/>
			<polygon fill="#46ABA4" points="94.237,800.133 117.763,759.387 141.288,800.133 			"/>
			<polygon fill="#6CBAD4" points="94.237,800.133 70.713,840.881 47.188,800.133 			"/>
			<polygon fill="#6795C1" points="47.187,800.133 70.712,759.387 94.236,800.133 			"/>
			<polygon fill="#6CBAD4" points="47.187,800.133 23.662,840.88 0.137,800.133 			"/>
			<polygon fill="#46ABA4" points="0.136,800.133 23.661,759.386 47.186,800.133 			"/>
			<polygon fill="#6CBAD4" points="823.526,759.387 800.001,800.133 776.477,759.387 			"/>
			<polygon fill="#6795C1" points="776.476,759.387 800,718.639 823.525,759.387 			"/>
			<polygon opacity="0.5" fill="#54DECD" points="776.476,759.387 752.95,800.133 729.426,759.387 			"/>
			<polygon fill="#6CBAD4" points="729.425,759.387 752.949,718.639 776.475,759.387 			"/>
			<polygon fill="#6CBAD4" points="729.425,759.387 705.899,800.133 682.374,759.387 			"/>
			<polygon fill="#6CBAD4" points="682.373,759.387 705.898,718.639 729.424,759.387 			"/>
			<polygon fill="#6CBAD4" points="682.373,759.387 658.849,800.133 635.323,759.387 			"/>
			<polygon fill="#6795C1" points="635.322,759.387 658.848,718.639 682.373,759.387 			"/>
			<polygon fill="#6CBAD4" points="635.322,759.387 611.798,800.133 588.273,759.387 			"/>
			<polygon fill="#6795C1" points="588.273,759.387 611.797,718.639 635.321,759.387 			"/>
			<polygon opacity="0.7" fill="#6795C1" points="588.273,759.387 564.747,800.133 541.223,759.387 			"/>
			<polygon fill="#6CBAD4" points="541.222,759.387 564.746,718.639 588.271,759.387 			"/>
			<polygon fill="#6CBAD4" points="541.222,759.387 517.696,800.133 494.172,759.387 			"/>
			<polygon fill="#6CBAD4" points="494.171,759.387 517.695,718.639 541.221,759.387 			"/>
			<polygon fill="#6CBAD4" points="494.171,759.387 470.646,800.133 447.121,759.387 			"/>
			<polygon fill="#6795C1" points="447.12,759.387 470.645,718.639 494.17,759.387 			"/>
			<polygon opacity="0.7" fill="#6CBAD4" points="447.12,759.387 423.595,800.133 400.069,759.387 			"/>
			<polygon fill="#6CBAD4" points="400.069,759.387 423.594,718.639 447.119,759.387 			"/>
			<polygon opacity="0.5" fill="#54DECD" points="400.069,759.387 376.544,800.133 353.019,759.387 			"/>
			<polygon fill="#6CBAD4" points="353.018,759.387 376.543,718.639 400.068,759.387 			"/>
			<polygon fill="#46ABA4" points="353.018,759.387 329.493,800.133 305.968,759.387 			"/>
			<polygon fill="#6CBAD4" points="305.967,759.387 329.492,718.639 353.017,759.387 			"/>
			<polygon fill="#6CBAD4" points="305.967,759.387 282.442,800.133 258.917,759.387 			"/>
			<polygon fill="#6CBAD4" points="258.916,759.387 282.441,718.639 305.966,759.387 			"/>
			<polygon fill="#6795C1" points="258.916,759.387 235.392,800.133 211.867,759.387 			"/>
			<polygon fill="#6CBAD4" points="211.865,759.387 235.391,718.639 258.915,759.387 			"/>
			<polygon fill="#6795C1" points="211.865,759.387 188.341,800.133 164.816,759.387 			"/>
			<polygon fill="#6CBAD4" points="164.815,759.387 188.34,718.639 211.864,759.387 			"/>
			<polygon fill="#6CBAD4" points="164.815,759.387 141.29,800.133 117.765,759.387 			"/>
			<polygon fill="#6795C1" points="117.764,759.387 141.289,718.639 164.814,759.387 			"/>
			<polygon fill="#6CBAD4" points="117.764,759.387 94.239,800.133 70.714,759.387 			"/>
			<polygon fill="#6795C1" points="70.713,759.387 94.238,718.639 117.763,759.387 			"/>
			<polygon fill="#6CBAD4" points="70.713,759.387 47.188,800.133 23.663,759.386 			"/>
			<polygon fill="#6CBAD4" points="23.662,759.386 47.188,718.639 70.712,759.387 			"/>
			<polygon fill="#6CBAD4" points="23.662,759.386 0.138,800.133 -23.388,759.386 			"/>
			<polygon fill="#6CBAD4" points="-23.389,759.386 0.137,718.639 23.661,759.386 			"/>
			<polygon opacity="0.7" fill="#6CBAD4" points="800,718.619 776.475,759.367 752.95,718.619 			"/>
			<polygon fill="#6795C1" points="752.949,718.619 776.474,677.873 799.999,718.619 			"/>
			<polygon fill="#6795C1" points="752.949,718.619 729.424,759.367 705.899,718.619 			"/>
			<polygon opacity="0.5" fill="#54DECD" points="705.898,718.619 729.423,677.873 752.948,718.619 			"/>
			<polygon opacity="0.5" fill="#54DECD" points="705.898,718.619 682.373,759.367 658.848,718.619 			"/>
			<polygon fill="#6795C1" points="658.847,718.619 682.372,677.873 705.898,718.619 			"/>
			<polygon fill="#6CBAD4" points="658.847,718.619 635.322,759.367 611.797,718.619 			"/>
			<polygon opacity="0.5" fill="#54DECD" points="611.796,718.619 635.321,677.873 658.847,718.619 			"/>
			<polygon opacity="0.7" fill="#6CBAD4" points="611.796,718.619 588.271,759.367 564.747,718.619 			"/>
			<polygon fill="#6CBAD4" points="564.746,718.619 588.271,677.873 611.795,718.619 			"/>
			<polygon opacity="0.7" fill="#6CBAD4" points="564.746,718.619 541.221,759.367 517.696,718.619 			"/>
			<polygon fill="#6795C1" points="517.695,718.619 541.22,677.873 564.745,718.619 			"/>
			<polygon opacity="0.7" fill="#6CBAD4" points="517.695,718.619 494.17,759.367 470.646,718.619 			"/>
			<polygon fill="#6CBAD4" points="470.645,718.619 494.169,677.873 517.694,718.619 			"/>
			<polygon opacity="0.7" fill="#6CBAD4" points="470.645,718.619 447.119,759.367 423.595,718.619 			"/>
			<polygon fill="#6CBAD4" points="423.594,718.619 447.118,677.873 470.644,718.619 			"/>
			<polygon fill="#6795C1" points="423.594,718.619 400.068,759.367 376.543,718.619 			"/>
			<polygon fill="#6CBAD4" points="376.543,718.619 400.067,677.873 423.593,718.619 			"/>
			<polygon opacity="0.7" fill="#6CBAD4" points="376.543,718.619 353.018,759.367 329.492,718.619 			"/>
			<polygon fill="#6CBAD4" points="329.491,718.619 353.017,677.873 376.542,718.619 			"/>
			<polygon opacity="0.5" fill="#54DECD" points="329.491,718.619 305.967,759.367 282.441,718.619 			"/>
			<polygon opacity="0.7" fill="#6CBAD4" points="282.44,718.619 305.966,677.873 329.49,718.619 			"/>
			<polygon opacity="0.7" fill="#6CBAD4" points="282.44,718.619 258.916,759.367 235.391,718.619 			"/>
			<polygon fill="#6CBAD4" points="235.39,718.619 258.915,677.873 282.44,718.619 			"/>
			<polygon fill="#6795C1" points="235.39,718.619 211.865,759.367 188.341,718.619 			"/>
			<polygon opacity="0.5" fill="#54DECD" points="188.339,718.619 211.864,677.873 235.389,718.619 			"/>
			<polygon opacity="0.7" fill="#6CBAD4" points="188.339,718.619 164.814,759.367 141.29,718.619 			"/>
			<polygon opacity="0.5" fill="#54DECD" points="141.289,718.619 164.814,677.873 188.338,718.619 			"/>
			<polygon opacity="0.7" fill="#6CBAD4" points="141.289,718.619 117.764,759.367 94.238,718.619 			"/>
			<polygon fill="#6CBAD4" points="94.237,718.619 117.763,677.873 141.288,718.619 			"/>
			<polygon fill="#6CBAD4" points="94.237,718.619 70.713,759.367 47.188,718.619 			"/>
			<polygon fill="#6795C1" points="47.187,718.619 23.662,759.366 0.137,718.619 			"/>
			<polygon fill="#6CBAD4" points="0.136,718.619 23.661,677.873 47.186,718.619 			"/>
			<polygon fill="#6CBAD4" points="823.526,677.873 800.001,718.619 776.477,677.873 			"/>
			<polygon opacity="0.5" fill="#54DECD" points="776.476,677.873 800,637.125 823.525,677.873 			"/>
			<polygon opacity="0.5" fill="#54DECD" points="823.527,596.4 847.052,555.654 870.577,596.4 			"/>
			<polygon fill="#6CBAD4" points="776.476,677.873 752.95,718.619 729.426,677.873 			"/>
			<polygon opacity="0.7" fill="#6CBAD4" points="729.425,677.873 752.949,637.125 776.475,677.873 			"/>
			<polygon fill="#6CBAD4" points="729.425,677.873 705.899,718.619 682.374,677.873 			"/>
			<polygon opacity="0.7" fill="#6CBAD4" points="682.373,677.873 658.849,718.619 635.323,677.873 			"/>
			<polygon fill="#6CBAD4" points="635.322,677.873 658.848,637.125 682.373,677.873 			"/>
			<polygon opacity="0.2" fill="#54DECD" points="635.322,677.873 611.798,718.619 588.273,677.873 			"/>
			<polygon fill="#6CBAD4" points="588.273,677.873 611.797,637.125 635.321,677.873 			"/>
			<polygon opacity="0.5" fill="#54DECD" points="588.273,677.873 564.747,718.619 541.223,677.873 			"/>
			<polygon fill="#6CBAD4" points="541.222,677.873 564.746,637.125 588.271,677.873 			"/>
			<polygon opacity="0.5" fill="#54DECD" points="541.222,677.873 517.696,718.619 494.172,677.873 			"/>
			<polygon fill="#6CBAD4" points="494.171,677.873 517.695,637.125 541.221,677.873 			"/>
			<polygon opacity="0.7" fill="#6CBAD4" points="494.171,677.873 470.646,718.619 447.121,677.873 			"/>
			<polygon fill="#6CBAD4" points="447.12,677.873 470.645,637.125 494.17,677.873 			"/>
			<polygon fill="#6795C1" points="447.12,677.873 423.595,718.619 400.069,677.873 			"/>
			<polygon fill="#6CBAD4" points="400.069,677.873 423.594,637.125 447.119,677.873 			"/>
			<polygon opacity="0.7" fill="#6CBAD4" points="400.069,677.873 376.544,718.619 353.019,677.873 			"/>
			<polygon fill="#6CBAD4" points="353.018,677.873 376.543,637.125 400.068,677.873 			"/>
			<polygon fill="#6CBAD4" points="353.018,677.873 329.493,718.619 305.968,677.873 			"/>
			<polygon opacity="0.7" fill="#6CBAD4" points="305.967,677.873 329.492,637.125 353.017,677.873 			"/>
			<polygon opacity="0.5" fill="#54DECD" points="305.967,677.873 282.442,718.619 258.917,677.873 			"/>
			<polygon opacity="0.7" fill="#6CBAD4" points="258.916,677.873 282.441,637.125 305.966,677.873 			"/>
			<polygon opacity="0.7" fill="#6CBAD4" points="258.916,677.873 235.392,718.619 211.867,677.873 			"/>
			<polygon fill="#6795C1" points="211.865,677.873 235.391,637.125 258.915,677.873 			"/>
			<polygon fill="#6CBAD4" points="211.865,677.873 188.341,718.619 164.816,677.873 			"/>
			<polygon opacity="0.5" fill="#54DECD" points="164.815,677.873 188.34,637.125 211.864,677.873 			"/>
			<polygon opacity="0.7" fill="#6CBAD4" points="164.815,677.873 141.29,718.619 117.765,677.873 			"/>
			<polygon fill="#6CBAD4" points="117.764,677.873 141.289,637.125 164.814,677.873 			"/>
			<polygon opacity="0.5" fill="#54DECD" points="117.764,677.873 94.239,718.619 70.714,677.873 			"/>
			<polygon fill="#6CBAD4" points="70.713,677.873 94.238,637.125 117.763,677.873 			"/>
			<polygon opacity="0.7" fill="#6CBAD4" points="70.713,677.873 47.188,718.619 23.663,677.873 			"/>
			<polygon fill="#6CBAD4" points="23.662,677.873 47.188,637.125 70.712,677.873 			"/>
			<polygon opacity="0.5" fill="#54DECD" points="23.662,677.873 0.138,718.619 -23.388,677.872 			"/>
			<polygon opacity="0.7" fill="#6CBAD4" points="-23.389,677.872 0.137,637.125 23.661,677.873 			"/>
			<polygon fill="#6CBAD4" points="752.949,637.148 776.474,596.4 799.999,637.148 			"/>
			<polygon opacity="0.5" fill="#54DECD" points="752.949,637.148 729.424,677.894 705.899,637.148 			"/>
			<polygon opacity="0.2" fill="#54DECD" points="705.898,637.148 729.423,596.4 752.948,637.148 			"/>
			<polygon opacity="0.2" fill="#54DECD" points="705.898,637.148 682.373,677.894 658.848,637.148 			"/>
			<polygon fill="#6CBAD4" points="658.847,637.148 682.372,596.4 705.898,637.148 			"/>
			<polygon opacity="0.5" fill="#54DECD" points="658.847,637.148 635.322,677.894 611.797,637.148 			"/>
			<polygon fill="#6CBAD4" points="611.796,637.148 635.321,596.4 658.847,637.148 			"/>
			<polygon opacity="0.7" fill="#6CBAD4" points="611.796,637.148 588.271,677.894 564.747,637.148 			"/>
			<polygon fill="#6CBAD4" points="564.746,637.148 588.271,596.4 611.795,637.148 			"/>
			<polygon opacity="0.7" fill="#6CBAD4" points="564.746,637.148 541.221,677.894 517.696,637.148 			"/>
			<polygon opacity="0.5" fill="#54DECD" points="517.695,637.148 541.22,596.4 564.745,637.148 			"/>
			<polygon opacity="0.7" fill="#6CBAD4" points="517.695,637.148 494.17,677.894 470.646,637.148 			"/>
			<polygon opacity="0.5" fill="#54DECD" points="470.645,637.148 494.169,596.4 517.694,637.148 			"/>
			<polygon opacity="0.7" fill="#6CBAD4" points="470.645,637.148 447.119,677.894 423.595,637.148 			"/>
			<polygon fill="#6CBAD4" points="423.594,637.148 447.118,596.4 470.644,637.148 			"/>
			<polygon fill="#6795C1" points="423.594,637.148 400.068,677.894 376.543,637.148 			"/>
			<polygon fill="#6CBAD4" points="376.543,637.148 400.067,596.4 423.593,637.148 			"/>
			<polygon opacity="0.5" fill="#54DECD" points="376.543,637.148 353.018,677.894 329.492,637.148 			"/>
			<polygon fill="#6CBAD4" points="329.491,637.148 353.017,596.4 376.542,637.148 			"/>
			<polygon fill="#6CBAD4" points="329.491,637.148 305.967,677.894 282.441,637.148 			"/>
			<polygon fill="#6CBAD4" points="282.44,637.148 305.966,596.4 329.49,637.148 			"/>
			<polygon fill="#6CBAD4" points="282.44,637.148 258.916,677.894 235.391,637.148 			"/>
			<polygon fill="#6CBAD4" points="235.39,637.148 258.915,596.4 282.44,637.148 			"/>
			<polygon fill="#6CBAD4" points="235.39,637.148 211.865,677.894 188.341,637.148 			"/>
			<polygon fill="#6CBAD4" points="188.339,637.148 211.864,596.4 235.389,637.148 			"/>
			<polygon opacity="0.7" fill="#6CBAD4" points="188.339,637.148 164.814,677.894 141.29,637.148 			"/>
			<polygon opacity="0.7" fill="#6CBAD4" points="141.289,637.148 164.814,596.4 188.338,637.148 			"/>
			<polygon opacity="0.5" fill="#54DECD" points="141.289,637.148 117.764,677.894 94.238,637.148 			"/>
			<polygon opacity="0.7" fill="#6CBAD4" points="94.237,637.148 70.713,677.894 47.188,637.148 			"/>
			<polygon fill="#6CBAD4" points="47.187,637.148 70.712,596.4 94.236,637.148 			"/>
			<polygon opacity="0.5" fill="#54DECD" points="47.187,637.148 23.662,677.894 0.137,637.148 			"/>
			<polygon opacity="0.7" fill="#6CBAD4" points="823.526,596.4 800.001,637.148 776.477,596.4 			"/>
			<polygon opacity="0.7" fill="#6CBAD4" points="776.476,596.4 800,555.654 823.525,596.4 			"/>
			<polygon fill="#6CBAD4" points="729.425,596.4 752.949,555.654 776.475,596.4 			"/>
			<polygon fill="#6CBAD4" points="682.373,596.4 705.898,555.654 729.424,596.4 			"/>
			<polygon opacity="0.7" fill="#6CBAD4" points="682.373,596.4 658.849,637.148 635.323,596.4 			"/>
			<polygon fill="#6CBAD4" points="635.322,596.4 658.848,555.654 682.373,596.4 			"/>
			<polygon opacity="0.7" fill="#6CBAD4" points="635.322,596.4 611.798,637.148 588.273,596.4 			"/>
			<polygon fill="#6CBAD4" points="588.273,596.4 611.797,555.654 635.321,596.4 			"/>
			<polygon opacity="0.7" fill="#6CBAD4" points="588.273,596.4 564.747,637.148 541.223,596.4 			"/>
			<polygon fill="#6CBAD4" points="541.222,596.4 564.746,555.654 588.271,596.4 			"/>
			<polygon fill="#6795C1" points="541.222,596.4 517.696,637.148 494.172,596.4 			"/>
			<polygon fill="#6CBAD4" points="494.171,596.4 517.695,555.654 541.221,596.4 			"/>
			<polygon opacity="0.7" fill="#6CBAD4" points="494.171,596.4 470.646,637.148 447.121,596.4 			"/>
			<polygon opacity="0.5" fill="#54DECD" points="447.12,596.4 470.645,555.654 494.17,596.4 			"/>
			<polygon opacity="0.5" fill="#54DECD" points="447.12,596.4 423.595,637.148 400.069,596.4 			"/>
			<polygon fill="#6CBAD4" points="400.069,596.4 423.594,555.654 447.119,596.4 			"/>
			<polygon opacity="0.7" fill="#6CBAD4" points="400.069,596.4 376.544,637.148 353.019,596.4 			"/>
			<polygon fill="#6CBAD4" points="353.018,596.4 376.543,555.654 400.068,596.4 			"/>
			<polygon fill="#6795C1" points="353.018,596.4 329.493,637.148 305.968,596.4 			"/>
			<polygon opacity="0.7" fill="#6CBAD4" points="305.967,596.4 329.492,555.654 353.017,596.4 			"/>
			<polygon opacity="0.7" fill="#6CBAD4" points="305.967,596.4 282.442,637.148 258.917,596.4 			"/>
			<polygon fill="#6795C1" points="258.916,596.4 282.441,555.654 305.966,596.4 			"/>
			<polygon opacity="0.7" fill="#6CBAD4" points="258.916,596.4 235.392,637.148 211.867,596.4 			"/>
			<polygon fill="#6CBAD4" points="211.865,596.4 235.391,555.654 258.915,596.4 			"/>
			<polygon fill="#6CBAD4" points="164.815,596.4 188.34,555.654 211.864,596.4 			"/>
			<polygon fill="#6CBAD4" points="164.815,596.4 141.29,637.148 117.765,596.4 			"/>
			<polygon opacity="0.5" fill="#54DECD" points="117.764,596.4 141.289,555.654 164.814,596.4 			"/>
			<polygon opacity="0.7" fill="#6CBAD4" points="117.764,596.4 94.239,637.148 70.714,596.4 			"/>
			<polygon opacity="0.2" fill="#54DECD" points="70.713,596.4 94.238,555.654 117.763,596.4 			"/>
			<polygon opacity="0.5" fill="#54DECD" points="70.713,596.4 47.188,637.148 23.663,596.4 			"/>
			<polygon fill="#6CBAD4" points="23.662,596.4 0.138,637.148 -23.388,596.4 			"/>
			<polygon opacity="0.7" fill="#6CBAD4" points="705.898,555.672 682.373,596.418 658.848,555.672 			"/>
			<polygon opacity="0.5" fill="#54DECD" points="611.796,555.672 635.321,514.924 658.847,555.672 			"/>
			<polygon opacity="0.7" fill="#6CBAD4" points="611.796,555.672 588.271,596.418 564.747,555.672 			"/>
			<polygon fill="#46ABA4" points="988.203,963.014 1011.727,922.267 1035.253,963.014 			"/>
			<polygon fill="#46ABA4" points="941.151,963.014 964.677,922.267 988.202,963.014 			"/>
			<polygon fill="#6CBAD4" points="894.101,963.014 917.626,922.267 941.151,963.014 			"/>
			<polygon fill="#6795C1" points="847.051,963.014 870.575,922.267 894.1,963.014 			"/>
			<polygon fill="#6795C1" points="1011.729,922.267 988.204,963.014 964.679,922.267 			"/>
			<polygon fill="#6795C1" points="964.678,922.267 988.203,881.519 1011.729,922.267 			"/>
			<polygon fill="#6795C1" points="964.678,922.267 941.153,963.014 917.628,922.267 			"/>
			<polygon fill="#6795C1" points="917.627,922.267 941.152,881.519 964.678,922.267 			"/>
			<polygon fill="#46ABA4" points="917.627,922.267 894.102,963.014 870.578,922.267 			"/>
			<polygon fill="#6795C1" points="870.577,922.267 894.102,881.519 917.626,922.267 			"/>
			<polygon fill="#6CBAD4" points="870.577,922.267 847.052,963.014 823.527,922.267 			"/>
			<polygon fill="#6795C1" points="823.526,922.267 847.051,881.519 870.576,922.267 			"/>
			<polygon fill="#6795C1" points="1035.254,881.604 1011.729,922.352 988.204,881.604 			"/>
			<polygon fill="#6CBAD4" points="988.203,881.604 1011.727,840.857 1035.253,881.604 			"/>
			<polygon fill="#46ABA4" points="988.203,881.604 964.678,922.352 941.152,881.604 			"/>
			<polygon fill="#6CBAD4" points="941.151,881.604 964.677,840.857 988.202,881.604 			"/>
			<polygon fill="#46ABA4" points="941.151,881.604 917.627,922.352 894.102,881.604 			"/>
			<polygon fill="#6795C1" points="894.101,881.604 917.626,840.857 941.151,881.604 			"/>
			<polygon fill="#46ABA4" points="894.101,881.604 870.576,922.352 847.052,881.604 			"/>
			<polygon fill="#6CBAD4" points="847.051,881.604 870.575,840.857 894.1,881.604 			"/>
			<polygon fill="#6795C1" points="1011.729,840.857 988.204,881.604 964.679,840.857 			"/>
			<polygon fill="#6CBAD4" points="964.678,840.857 988.203,800.11 1011.729,840.857 			"/>
			<polygon fill="#46ABA4" points="964.678,840.857 941.153,881.604 917.628,840.857 			"/>
			<polygon opacity="0.7" fill="#6CBAD4" points="917.627,840.857 941.152,800.11 964.678,840.857 			"/>
			<polygon fill="#46ABA4" points="917.627,840.857 894.102,881.604 870.578,840.857 			"/>
			<polygon fill="#6CBAD4" points="870.577,840.857 894.102,800.11 917.626,840.857 			"/>
			<polygon fill="#6795C1" points="870.577,840.857 847.052,881.604 823.527,840.857 			"/>
			<polygon fill="#46ABA4" points="823.526,840.857 847.051,800.11 870.576,840.857 			"/>
			<polygon fill="#6795C1" points="1035.254,800.133 1011.729,840.881 988.204,800.133 			"/>
			<polygon fill="#46ABA4" points="988.203,800.133 1011.727,759.387 1035.253,800.133 			"/>
			<polygon fill="#46ABA4" points="988.203,800.133 964.678,840.881 941.152,800.133 			"/>
			<polygon fill="#6795C1" points="941.151,800.133 964.677,759.387 988.202,800.133 			"/>
			<polygon fill="#6795C1" points="941.151,800.133 917.627,840.881 894.102,800.133 			"/>
			<polygon fill="#46ABA4" points="894.101,800.133 917.626,759.387 941.151,800.133 			"/>
			<polygon fill="#6795C1" points="894.101,800.133 870.576,840.881 847.052,800.133 			"/>
			<polygon opacity="0.5" fill="#54DECD" points="847.051,800.133 870.575,759.387 894.1,800.133 			"/>
			<polygon fill="#6CBAD4" points="1011.729,759.387 988.204,800.133 964.679,759.387 			"/>
			<polygon fill="#6CBAD4" points="964.678,759.387 988.203,718.639 1011.729,759.387 			"/>
			<polygon fill="#6CBAD4" points="964.678,759.387 941.153,800.133 917.628,759.387 			"/>
			<polygon fill="#6795C1" points="917.627,759.387 941.152,718.639 964.678,759.387 			"/>
			<polygon fill="#6CBAD4" points="917.627,759.387 894.102,800.133 870.578,759.387 			"/>
			<polygon fill="#6795C1" points="870.577,759.387 894.102,718.639 917.626,759.387 			"/>
			<polygon opacity="0.7" fill="#6795C1" points="870.577,759.387 847.052,800.133 823.527,759.387 			"/>
			<polygon fill="#6CBAD4" points="823.526,759.387 847.051,718.639 870.576,759.387 			"/>
			<polygon fill="#6795C1" points="1035.254,718.619 1011.729,759.367 988.204,718.619 			"/>
			<polygon opacity="0.5" fill="#54DECD" points="988.203,718.619 1011.727,677.873 1035.253,718.619 			"/>
			<polygon opacity="0.5" fill="#54DECD" points="988.203,718.619 964.678,759.367 941.152,718.619 			"/>
			<polygon fill="#6795C1" points="941.151,718.619 964.677,677.873 988.202,718.619 			"/>
			<polygon fill="#6CBAD4" points="941.151,718.619 917.627,759.367 894.102,718.619 			"/>
			<polygon opacity="0.5" fill="#54DECD" points="894.101,718.619 917.626,677.873 941.151,718.619 			"/>
			<polygon opacity="0.7" fill="#6CBAD4" points="894.101,718.619 870.576,759.367 847.052,718.619 			"/>
			<polygon opacity="0.7" fill="#6CBAD4" points="847.05,718.619 823.525,759.367 800.001,718.619 			"/>
			<polygon fill="#6CBAD4" points="847.051,718.619 870.575,677.873 894.1,718.619 			"/>
			<polygon fill="#6CBAD4" points="1011.729,677.873 988.204,718.619 964.679,677.873 			"/>
			<polygon opacity="0.7" fill="#6CBAD4" points="964.678,677.873 941.153,718.619 917.628,677.873 			"/>
			<polygon fill="#6CBAD4" points="917.626,677.894 941.151,637.148 964.677,677.894 			"/>
			<polygon opacity="0.2" fill="#54DECD" points="917.627,677.873 894.102,718.619 870.578,677.873 			"/>
			<polygon opacity="0.5" fill="#54DECD" points="870.577,677.873 847.052,718.619 823.527,677.873 			"/>
			<polygon fill="#6CBAD4" points="823.526,677.873 847.051,637.125 870.576,677.873 			"/>
			<polygon opacity="0.5" fill="#54DECD" points="1035.254,637.148 1011.729,677.894 988.204,637.148 			"/>
			<polygon opacity="0.2" fill="#54DECD" points="988.203,637.148 1011.727,596.4 1035.253,637.148 			"/>
			<polygon opacity="0.2" fill="#54DECD" points="988.203,637.148 964.678,677.894 941.152,637.148 			"/>
			<polygon opacity="0.5" fill="#54DECD" points="941.151,637.148 917.627,677.894 894.102,637.148 			"/>
			<polygon fill="#6CBAD4" points="894.101,637.148 917.626,596.4 941.151,637.148 			"/>
			<polygon opacity="0.7" fill="#6CBAD4" points="894.101,637.148 870.576,677.894 847.052,637.148 			"/>
			<polygon opacity="0.7" fill="#6CBAD4" points="847.05,637.148 823.525,677.894 800.001,637.148 			"/>
			<polygon fill="#6CBAD4" points="847.051,637.148 870.575,596.4 894.1,637.148 			"/>
			<polygon fill="#6CBAD4" points="964.678,596.4 988.203,555.654 1011.729,596.4 			"/>
			<polygon opacity="0.7" fill="#6CBAD4" points="870.577,596.4 847.052,637.148 823.527,596.4 			"/>
			<polygon opacity="0.7" fill="#6CBAD4" points="894.101,555.672 870.575,596.418 847.051,555.672 			"/>
			<polygon opacity="0.2" fill="#54DECD" points="564.746,555.672 588.271,514.924 611.795,555.672 			"/>
			<polygon opacity="0.5" fill="#54DECD" points="564.746,555.672 541.221,596.418 517.696,555.672 			"/>
			<polygon opacity="0.7" fill="#6CBAD4" points="517.695,555.672 541.22,514.924 564.745,555.672 			"/>
			<polygon opacity="0.7" fill="#6CBAD4" points="517.695,555.672 494.17,596.418 470.646,555.672 			"/>
			<polygon opacity="0.7" fill="#6CBAD4" points="470.645,555.672 494.169,514.924 517.694,555.672 			"/>
			<polygon opacity="0.7" fill="#6CBAD4" points="470.645,555.672 447.119,596.418 423.595,555.672 			"/>
			<polygon opacity="0.7" fill="#6CBAD4" points="423.594,555.672 447.118,514.924 470.644,555.672 			"/>
			<polygon opacity="0.5" fill="#54DECD" points="423.594,555.672 400.068,596.418 376.543,555.672 			"/>
			<polygon opacity="0.7" fill="#6CBAD4" points="376.543,555.672 400.067,514.924 423.593,555.672 			"/>
			<polygon opacity="0.5" fill="#54DECD" points="376.543,555.672 353.018,596.418 329.492,555.672 			"/>
			<polygon opacity="0.2" fill="#54DECD" points="329.491,555.672 353.017,514.924 376.542,555.672 			"/>
			<polygon fill="#6CBAD4" points="329.491,555.672 305.967,596.418 282.441,555.672 			"/>
			<polygon opacity="0.7" fill="#6CBAD4" points="282.44,555.672 305.966,514.924 329.49,555.672 			"/>
			<polygon fill="#6CBAD4" points="282.44,555.672 258.916,596.418 235.391,555.672 			"/>
			<polygon opacity="0.7" fill="#6CBAD4" points="235.39,555.672 258.915,514.924 282.44,555.672 			"/>
			<polygon opacity="0.5" fill="#54DECD" points="235.39,555.672 211.865,596.418 188.341,555.672 			"/>
			<polygon fill="#6CBAD4" points="188.339,555.672 164.814,596.418 141.29,555.672 			"/>
			<polygon opacity="0.7" fill="#6CBAD4" points="141.289,555.672 164.814,514.924 188.338,555.672 			"/>
			<polygon fill="#6CBAD4" points="141.289,555.672 117.764,596.418 94.238,555.672 			"/>
			<polygon fill="#6CBAD4" points="94.237,555.672 70.713,596.418 47.188,555.672 			"/>
			<polygon opacity="0.2" fill="#54DECD" points="47.187,555.672 70.712,514.924 94.236,555.672 			"/>
			<polygon fill="#6CBAD4" points="47.187,555.672 23.662,596.418 0.137,555.672 			"/>
			<polygon opacity="0.7" fill="#6CBAD4" points="0.136,555.672 23.661,514.924 47.186,555.672 			"/>
			<polygon opacity="0.7" fill="#6CBAD4" points="729.425,514.924 705.899,555.672 682.374,514.924 			"/>
			<polygon opacity="0.2" fill="#54DECD" points="682.373,514.924 705.898,474.178 729.424,514.924 			"/>
			<polygon opacity="0.7" fill="#6CBAD4" points="682.373,514.924 658.849,555.672 635.323,514.924 			"/>
			<polygon opacity="0.5" fill="#54DECD" points="635.322,514.924 658.848,474.178 682.373,514.924 			"/>
			<polygon opacity="0.7" fill="#6CBAD4" points="635.322,514.924 611.798,555.672 588.273,514.924 			"/>
			<polygon opacity="0.5" fill="#54DECD" points="588.273,514.924 564.747,555.672 541.223,514.924 			"/>
			<polygon opacity="0.7" fill="#6CBAD4" points="541.222,514.924 564.746,474.178 588.271,514.924 			"/>
			<polygon opacity="0.5" fill="#54DECD" points="541.222,514.924 517.696,555.672 494.172,514.924 			"/>
			<polygon opacity="0.5" fill="#54DECD" points="494.171,514.924 517.695,474.178 541.221,514.924 			"/>
			<polygon opacity="0.2" fill="#54DECD" points="494.171,514.924 470.646,555.672 447.121,514.924 			"/>
			<polygon opacity="0.7" fill="#6CBAD4" points="447.12,514.924 470.645,474.178 494.17,514.924 			"/>
			<polygon fill="#6CBAD4" points="447.12,514.924 423.595,555.672 400.069,514.924 			"/>
			<polygon opacity="0.7" fill="#6CBAD4" points="400.069,514.924 423.594,474.177 447.119,514.924 			"/>
			<polygon opacity="0.7" fill="#6CBAD4" points="400.069,514.924 376.544,555.672 353.019,514.924 			"/>
			<polygon opacity="0.7" fill="#6CBAD4" points="353.018,514.924 376.543,474.177 400.068,514.924 			"/>
			<polygon opacity="0.7" fill="#6CBAD4" points="353.018,514.924 329.493,555.672 305.968,514.924 			"/>
			<polygon opacity="0.2" fill="#54DECD" points="305.967,514.924 329.492,474.177 353.017,514.924 			"/>
			<polygon opacity="0.5" fill="#54DECD" points="305.967,514.924 282.442,555.672 258.917,514.924 			"/>
			<polygon opacity="0.7" fill="#6CBAD4" points="258.916,514.924 235.392,555.672 211.867,514.924 			"/>
			<polygon opacity="0.5" fill="#54DECD" points="211.865,514.924 235.391,474.177 258.915,514.924 			"/>
			<polygon opacity="0.7" fill="#6CBAD4" points="164.815,514.924 188.34,474.177 211.864,514.924 			"/>
			<polygon opacity="0.5" fill="#54DECD" points="164.815,514.924 141.29,555.672 117.765,514.924 			"/>
			<polygon opacity="0.7" fill="#6CBAD4" points="117.764,514.924 141.289,474.177 164.814,514.924 			"/>
			<polygon opacity="0.7" fill="#6CBAD4" points="117.764,514.924 94.239,555.672 70.714,514.924 			"/>
			<polygon fill="#6CBAD4" points="-46.915,963.014 -23.39,922.267 0.135,963.014 			"/>
			<polygon fill="#46ABA4" points="-93.966,963.014 -70.44,922.267 -46.916,963.014 			"/>
			<polygon fill="#46ABA4" points="-141.016,963.014 -117.491,922.267 -93.967,963.014 			"/>
			<polygon fill="#46ABA4" points="-188.067,963.014 -164.542,922.267 -141.017,963.014 			"/>
			<polygon fill="#6795C1" points="-235.118,963.014 -211.593,922.267 -188.068,963.014 			"/>
			<polygon fill="#6795C1" points="-23.389,922.267 -46.913,963.014 -70.438,922.267 			"/>
			<polygon fill="#6CBAD4" points="-70.439,922.267 -46.914,881.519 -23.39,922.267 			"/>
			<polygon fill="#6795C1" points="-70.439,922.267 -93.964,963.014 -117.488,922.267 			"/>
			<polygon fill="#6795C1" points="-117.489,922.267 -93.965,881.519 -70.44,922.267 			"/>
			<polygon fill="#6795C1" points="-117.489,922.267 -141.015,963.014 -164.54,922.267 			"/>
			<polygon fill="#6795C1" points="-164.541,922.267 -141.016,881.519 -117.49,922.267 			"/>
			<polygon fill="#6795C1" points="-164.541,922.267 -188.065,963.014 -211.591,922.267 			"/>
			<polygon fill="#6795C1" points="-211.592,922.267 -188.066,881.519 -164.542,922.267 			"/>
			<polygon opacity="0.7" fill="#6CBAD4" points="0.136,881.604 -23.389,922.352 -46.914,881.604 			"/>
			<polygon fill="#6795C1" points="-46.915,881.604 -23.39,840.857 0.135,881.604 			"/>
			<polygon fill="#46ABA4" points="-46.915,881.604 -70.439,922.352 -93.964,881.604 			"/>
			<polygon fill="#6795C1" points="-93.966,881.604 -70.44,840.857 -46.916,881.604 			"/>
			<polygon fill="#46ABA4" points="-93.966,881.604 -117.49,922.352 -141.015,881.604 			"/>
			<polygon fill="#6795C1" points="-141.016,881.604 -117.491,840.857 -93.967,881.604 			"/>
			<polygon fill="#46ABA4" points="-141.016,881.604 -164.541,922.352 -188.066,881.604 			"/>
			<polygon fill="#6795C1" points="-188.067,881.604 -164.542,840.857 -141.017,881.604 			"/>
			<polygon fill="#46ABA4" points="-188.067,881.604 -211.592,922.352 -235.117,881.604 			"/>
			<polygon fill="#6795C1" points="-235.118,881.604 -211.593,840.857 -188.068,881.604 			"/>
			<polygon fill="#6CBAD4" points="-23.389,840.857 -46.913,881.604 -70.438,840.857 			"/>
			<polygon fill="#6795C1" points="-70.439,840.857 -46.914,800.11 -23.39,840.857 			"/>
			<polygon fill="#6CBAD4" points="-70.439,840.857 -93.964,881.604 -117.488,840.857 			"/>
			<polygon fill="#6CBAD4" points="-117.489,840.857 -93.965,800.11 -70.44,840.857 			"/>
			<polygon fill="#46ABA4" points="-117.489,840.857 -141.015,881.604 -164.54,840.857 			"/>
			<polygon fill="#6CBAD4" points="-164.541,840.857 -141.016,800.11 -117.49,840.857 			"/>
			<polygon fill="#6CBAD4" points="-164.541,840.857 -188.065,881.604 -211.591,840.857 			"/>
			<polygon fill="#46ABA4" points="-211.592,840.857 -188.066,800.11 -164.542,840.857 			"/>
			<polygon fill="#6CBAD4" points="0.136,800.133 -23.389,840.88 -46.914,800.133 			"/>
			<polygon opacity="0.7" fill="#6CBAD4" points="-46.915,800.133 -23.39,759.386 0.135,800.133 			"/>
			<polygon fill="#46ABA4" points="-46.915,800.133 -70.439,840.88 -93.964,800.133 			"/>
			<polygon fill="#6CBAD4" points="-93.966,800.133 -70.44,759.386 -46.916,800.133 			"/>
			<polygon fill="#6795C1" points="-93.966,800.133 -117.49,840.88 -141.015,800.133 			"/>
			<polygon fill="#46ABA4" points="-141.016,800.133 -117.491,759.386 -93.967,800.133 			"/>
			<polygon fill="#6795C1" points="-141.016,800.133 -164.541,840.88 -188.066,800.133 			"/>
			<polygon fill="#46ABA4" points="-188.067,800.133 -164.542,759.386 -141.017,800.133 			"/>
			<polygon fill="#6CBAD4" points="-188.067,800.133 -211.592,840.88 -235.117,800.133 			"/>
			<polygon fill="#6795C1" points="-235.118,800.133 -211.593,759.386 -188.068,800.133 			"/>
			<polygon fill="#6795C1" points="-23.389,759.386 -46.913,800.133 -70.438,759.386 			"/>
			<polygon fill="#6CBAD4" points="-70.439,759.386 -46.914,718.639 -23.39,759.386 			"/>
			<polygon fill="#6795C1" points="-70.439,759.386 -93.964,800.133 -117.488,759.386 			"/>
			<polygon fill="#6CBAD4" points="-117.489,759.386 -93.965,718.639 -70.44,759.386 			"/>
			<polygon fill="#6CBAD4" points="-117.489,759.386 -141.015,800.133 -164.54,759.386 			"/>
			<polygon fill="#6795C1" points="-164.541,759.386 -141.016,718.639 -117.49,759.386 			"/>
			<polygon fill="#6CBAD4" points="-164.541,759.386 -188.065,800.133 -211.591,759.386 			"/>
			<polygon fill="#6795C1" points="-211.592,759.386 -188.066,718.639 -164.542,759.386 			"/>
			<polygon opacity="0.7" fill="#6CBAD4" points="0.136,718.619 -23.389,759.366 -46.914,718.619 			"/>
			<polygon fill="#6CBAD4" points="-46.915,718.619 -23.39,677.872 0.135,718.619 			"/>
			<polygon fill="#6795C1" points="-46.915,718.619 -70.439,759.366 -93.964,718.619 			"/>
			<polygon fill="#46ABA4" points="-93.966,718.619 -70.44,677.872 -46.916,718.619 			"/>
			<polygon opacity="0.7" fill="#6CBAD4" points="-93.966,718.619 -117.49,759.366 -141.015,718.619 			"/>
			<polygon opacity="0.5" fill="#54DECD" points="-141.016,718.619 -117.491,677.872 -93.967,718.619 			"/>
			<polygon opacity="0.7" fill="#6CBAD4" points="-141.016,718.619 -164.541,759.366 -188.066,718.619 			"/>
			<polygon fill="#6CBAD4" points="-188.067,718.619 -164.542,677.872 -141.017,718.619 			"/>
			<polygon fill="#6CBAD4" points="-188.067,718.619 -211.592,759.366 -235.117,718.619 			"/>
			<polygon opacity="0.7" fill="#6CBAD4" points="-23.389,677.872 -46.913,718.619 -70.438,677.872 			"/>
			<polygon fill="#6795C1" points="-70.439,677.872 -46.914,637.125 -23.39,677.872 			"/>
			<polygon fill="#6CBAD4" points="-70.439,677.872 -93.964,718.619 -117.488,677.872 			"/>
			<polygon opacity="0.5" fill="#54DECD" points="-117.489,677.872 -93.965,637.125 -70.44,677.872 			"/>
			<polygon opacity="0.7" fill="#6CBAD4" points="-117.489,677.872 -141.015,718.619 -164.54,677.872 			"/>
			<polygon fill="#6CBAD4" points="-164.541,677.872 -141.016,637.125 -117.49,677.872 			"/>
			<polygon opacity="0.5" fill="#54DECD" points="-164.541,677.872 -188.065,718.619 -211.591,677.872 			"/>
			<polygon fill="#6CBAD4" points="-211.592,677.872 -188.066,637.125 -164.542,677.872 			"/>
			<polygon fill="#6CBAD4" points="0.136,637.148 -23.389,677.894 -46.914,637.148 			"/>
			<polygon opacity="0.5" fill="#54DECD" points="-46.915,637.148 -23.39,596.4 0.135,637.148 			"/>
			<polygon fill="#6CBAD4" points="-46.915,637.148 -70.439,677.894 -93.964,637.147 			"/>
			<polygon opacity="0.5" fill="#54DECD" points="-93.966,637.147 -70.44,596.4 -46.916,637.148 			"/>
			<polygon fill="#46ABA4" points="-93.966,637.147 -117.49,677.894 -141.015,637.147 			"/>
			<polygon opacity="0.7" fill="#6CBAD4" points="-141.016,637.147 -117.491,596.4 -93.967,637.147 			"/>
			<polygon opacity="0.5" fill="#54DECD" points="-141.016,637.147 -164.541,677.894 -188.066,637.147 			"/>
			<polygon opacity="0.7" fill="#6CBAD4" points="-188.067,637.147 -211.592,677.894 -235.117,637.147 			"/>
			<polygon fill="#6CBAD4" points="-235.118,637.147 -211.593,596.4 -188.068,637.147 			"/>
			<polygon opacity="0.7" fill="#6CBAD4" points="-23.389,596.4 -46.913,637.148 -70.438,596.4 			"/>
			<polygon fill="#6CBAD4" points="-117.489,596.4 -93.965,555.653 -70.44,596.4 			"/>
			<polygon fill="#6CBAD4" points="-117.489,596.4 -141.015,637.147 -164.54,596.4 			"/>
			<polygon opacity="0.5" fill="#54DECD" points="-164.541,596.4 -141.016,555.653 -117.49,596.4 			"/>
			<polygon opacity="0.7" fill="#6CBAD4" points="-164.541,596.4 -188.065,637.147 -211.591,596.4 			"/>
			<polygon opacity="0.2" fill="#54DECD" points="-211.592,596.4 -188.066,555.653 -164.542,596.4 			"/>
			<polygon fill="#6CBAD4" points="0.136,555.672 -23.389,596.418 -46.914,555.672 			"/>
			<polygon opacity="0.5" fill="#54DECD" points="-46.915,555.672 -70.439,596.418 -93.964,555.671 			"/>
			<polygon opacity="0.7" fill="#6CBAD4" points="-141.016,555.671 -117.491,514.924 -93.967,555.671 			"/>
			<polygon opacity="0.7" fill="#6CBAD4" points="-23.389,514.924 -46.913,555.672 -70.438,514.924 			"/>
			<polygon opacity="0.5" fill="#54DECD" points="70.713,514.924 94.238,474.177 117.763,514.924 			"/>
			<polygon opacity="0.7" fill="#6CBAD4" points="23.662,514.924 47.188,474.177 70.712,514.924 			"/>
			<polygon opacity="0.2" fill="#54DECD" points="658.847,474.158 635.322,514.906 611.797,474.158 			"/>
			<polygon opacity="0.7" fill="#6CBAD4" points="611.796,474.158 588.271,514.906 564.747,474.158 			"/>
			<polygon opacity="0.2" fill="#54DECD" points="564.746,474.158 541.221,514.906 517.696,474.158 			"/>
			<polygon opacity="0.7" fill="#6CBAD4" points="517.695,474.158 541.22,433.412 564.745,474.158 			"/>
			<polygon opacity="0.5" fill="#54DECD" points="470.645,474.158 494.169,433.412 517.694,474.158 			"/>
			<polygon opacity="0.2" fill="#54DECD" points="470.645,474.158 447.119,514.906 423.595,474.158 			"/>
			<polygon opacity="0.5" fill="#54DECD" points="423.594,474.158 447.118,433.411 470.644,474.158 			"/>
			<polygon opacity="0.2" fill="#54DECD" points="423.594,474.158 400.068,514.906 376.543,474.158 			"/>
			<polygon opacity="0.5" fill="#54DECD" points="376.543,474.158 400.067,433.411 423.593,474.158 			"/>
			<polygon opacity="0.5" fill="#54DECD" points="376.543,474.158 353.018,514.906 329.492,474.158 			"/>
			<polygon opacity="0.2" fill="#54DECD" points="329.491,474.158 353.017,433.411 376.542,474.158 			"/>
			<polygon opacity="0.7" fill="#6CBAD4" points="329.491,474.158 305.967,514.906 282.441,474.158 			"/>
			<polygon opacity="0.2" fill="#54DECD" points="282.44,474.158 258.916,514.906 235.391,474.158 			"/>
			<polygon opacity="0.7" fill="#6CBAD4" points="235.39,474.158 258.915,433.411 282.44,474.158 			"/>
			<polygon opacity="0.5" fill="#54DECD" points="188.339,474.158 211.864,433.411 235.389,474.158 			"/>
			<polygon opacity="0.2" fill="#54DECD" points="188.339,474.158 164.814,514.906 141.29,474.158 			"/>
			<polygon opacity="0.7" fill="#6CBAD4" points="682.373,433.412 658.849,474.158 635.323,433.412 			"/>
			<polygon opacity="0.7" fill="#6CBAD4" points="635.322,433.412 611.798,474.158 588.273,433.412 			"/>
			<polygon opacity="0.5" fill="#54DECD" points="588.273,433.412 564.747,474.158 541.223,433.412 			"/>
			<polygon opacity="0.2" fill="#54DECD" points="541.222,433.412 517.696,474.158 494.172,433.412 			"/>
			<polygon opacity="0.2" fill="#54DECD" points="447.12,433.411 470.645,392.664 494.17,433.412 			"/>
			<polygon opacity="0.2" fill="#54DECD" points="447.12,433.411 423.595,474.158 400.069,433.411 			"/>
			<polygon opacity="0.2" fill="#54DECD" points="400.069,433.411 376.544,474.158 353.019,433.411 			"/>
			<polygon opacity="0.5" fill="#54DECD" points="353.018,433.411 376.543,392.664 400.068,433.411 			"/>
			<polygon opacity="0.5" fill="#54DECD" points="353.018,433.411 329.493,474.158 305.968,433.411 			"/>
			<polygon opacity="0.7" fill="#6CBAD4" points="305.967,433.411 329.492,392.664 353.017,433.411 			"/>
			<polygon opacity="0.2" fill="#54DECD" points="305.967,433.411 282.442,474.158 258.917,433.411 			"/>
			<polygon opacity="0.7" fill="#6CBAD4" points="258.916,433.411 282.441,392.664 305.966,433.411 			"/>
			<polygon opacity="0.5" fill="#54DECD" points="211.865,433.411 235.391,392.664 258.915,433.411 			"/>
			<polygon opacity="0.2" fill="#54DECD" points="164.815,433.411 188.34,392.664 211.864,433.411 			"/>
			<polygon opacity="0.5" fill="#54DECD" points="164.815,433.411 141.29,474.158 117.765,433.411 			"/>
			<polygon opacity="0.7" fill="#6CBAD4" points="564.746,392.635 588.271,351.889 611.795,392.635 			"/>
			<polygon opacity="0.5" fill="#54DECD" points="564.746,392.635 541.221,433.383 517.696,392.635 			"/>
			<polygon opacity="0.5" fill="#54DECD" points="517.695,392.635 494.17,433.383 470.646,392.635 			"/>
			<polygon opacity="0.2" fill="#54DECD" points="470.645,392.635 494.169,351.889 517.694,392.635 			"/>
			<polygon opacity="0.5" fill="#54DECD" points="470.645,392.635 447.119,433.382 423.595,392.635 			"/>
			<polygon opacity="0.2" fill="#54DECD" points="423.594,392.635 400.068,433.382 376.543,392.635 			"/>
			<polygon opacity="0.5" fill="#54DECD" points="329.491,392.635 353.017,351.889 376.542,392.635 			"/>
			<polygon opacity="0.5" fill="#54DECD" points="329.491,392.635 305.967,433.382 282.441,392.635 			"/>
			<polygon opacity="0.5" fill="#54DECD" points="282.44,392.635 305.966,351.889 329.49,392.635 			"/>
			<polygon opacity="0.5" fill="#54DECD" points="447.12,351.889 470.645,311.141 494.17,351.889 			"/>
			<polygon opacity="0.5" fill="#54DECD" points="447.12,351.889 423.595,392.635 400.069,351.889 			"/>
			<polygon opacity="0.2" fill="#54DECD" points="400.069,351.889 423.594,311.141 447.119,351.889 			"/>
			<polygon opacity="0.2" fill="#54DECD" points="400.069,351.889 376.544,392.635 353.019,351.889 			"/>
			<polygon opacity="0.5" fill="#54DECD" points="305.967,351.889 329.492,311.141 353.017,351.889 			"/>
			<polygon opacity="0.2" fill="#54DECD" points="211.865,351.889 235.391,311.141 258.915,351.889 			"/>
		</g>
	</g>
</g>
<g id="objects">
</g>
</svg>
