<?xml version="1.0" encoding="utf-8"?>
<!-- Generator: Adobe Illustrator 18.0.0, SVG Export Plug-In . SVG Version: 6.00 Build 0)  -->
<!DOCTYPE svg PUBLIC "-//W3C//DTD SVG 1.1//EN" "http://www.w3.org/Graphics/SVG/1.1/DTD/svg11.dtd">
<svg version="1.1" xmlns="http://www.w3.org/2000/svg" xmlns:xlink="http://www.w3.org/1999/xlink" x="0px" y="0px" width="800px"
	 height="800px" viewBox="0 0 800 800" enable-background="new 0 0 800 800" xml:space="preserve">
<g id="background">
	<g>
		<defs>
			<rect id="SVGID_1_" width="800" height="800"/>
		</defs>
		<clipPath id="SVGID_2_">
			<use xlink:href="#SVGID_1_"  overflow="visible"/>
		</clipPath>
		<g clip-path="url(#SVGID_2_)">
			<polygon fill="#46ABA4" points="47.051,-163.014 23.526,-122.267 0.001,-163.014 			"/>
			<polygon fill="#46ABA4" points="94.102,-163.014 70.577,-122.267 47.052,-163.014 			"/>
			<polygon fill="#46ABA4" points="141.153,-163.014 117.628,-122.267 94.103,-163.014 			"/>
			<polygon fill="#6CBAD4" points="188.204,-163.014 164.679,-122.267 141.153,-163.014 			"/>
			<polygon fill="#6795C1" points="235.254,-163.014 211.73,-122.267 188.205,-163.014 			"/>
			<polygon fill="#6795C1" points="282.305,-163.014 258.78,-122.267 235.255,-163.014 			"/>
			<polygon fill="#46ABA4" points="329.355,-163.014 305.831,-122.267 282.306,-163.014 			"/>
			<polygon fill="#6CBAD4" points="376.406,-163.014 352.882,-122.267 329.356,-163.014 			"/>
			<polygon fill="#6CBAD4" points="423.457,-163.014 399.933,-122.267 376.407,-163.014 			"/>
			<polygon fill="#6795C1" points="470.509,-163.014 446.983,-122.267 423.458,-163.014 			"/>
			<polygon fill="#6795C1" points="517.56,-163.014 494.034,-122.267 470.51,-163.014 			"/>
			<polygon fill="#6CBAD4" points="564.61,-163.014 541.085,-122.267 517.56,-163.014 			"/>
			<polygon fill="#46ABA4" points="611.661,-163.014 588.136,-122.267 564.611,-163.014 			"/>
			<polygon fill="#46ABA4" points="658.711,-163.014 635.187,-122.267 611.662,-163.014 			"/>
			<polygon fill="#46ABA4" points="705.763,-163.014 682.237,-122.267 658.712,-163.014 			"/>
			<polygon fill="#6795C1" points="752.813,-163.014 729.288,-122.267 705.764,-163.014 			"/>
			<polygon fill="#6795C1" points="799.864,-163.014 776.339,-122.267 752.815,-163.014 			"/>
			<polygon fill="#46ABA4" points="-23.526,-122.267 -0.001,-163.014 23.523,-122.267 			"/>
			<polygon fill="#46ABA4" points="23.524,-122.267 0,-81.519 -23.525,-122.267 			"/>
			<polygon fill="#6795C1" points="23.524,-122.267 47.05,-163.014 70.574,-122.267 			"/>
			<polygon fill="#46ABA4" points="70.575,-122.267 47.051,-81.519 23.525,-122.267 			"/>
			<polygon fill="#6795C1" points="70.575,-122.267 94.101,-163.014 117.626,-122.267 			"/>
			<polygon fill="#6795C1" points="117.627,-122.267 94.102,-81.519 70.576,-122.267 			"/>
			<polygon fill="#6795C1" points="117.627,-122.267 141.151,-163.014 164.677,-122.267 			"/>
			<polygon fill="#6795C1" points="164.678,-122.267 141.152,-81.519 117.627,-122.267 			"/>
			<polygon fill="#46ABA4" points="164.678,-122.267 188.202,-163.014 211.727,-122.267 			"/>
			<polygon fill="#6795C1" points="211.727,-122.267 188.203,-81.519 164.679,-122.267 			"/>
			<polygon fill="#6CBAD4" points="211.727,-122.267 235.253,-163.014 258.777,-122.267 			"/>
			<polygon fill="#6795C1" points="258.778,-122.267 235.254,-81.519 211.729,-122.267 			"/>
			<polygon fill="#6CBAD4" points="258.778,-122.267 282.304,-163.014 305.828,-122.267 			"/>
			<polygon fill="#46ABA4" points="305.829,-122.267 282.305,-81.519 258.779,-122.267 			"/>
			<polygon fill="#6795C1" points="305.829,-122.267 329.354,-163.014 352.879,-122.267 			"/>
			<polygon fill="#6CBAD4" points="352.88,-122.267 329.355,-81.519 305.83,-122.267 			"/>
			<polygon fill="#6795C1" points="352.88,-122.267 376.405,-163.014 399.931,-122.267 			"/>
			<polygon fill="#46ABA4" points="399.931,-122.267 376.406,-81.519 352.881,-122.267 			"/>
			<polygon fill="#46ABA4" points="399.931,-122.267 423.456,-163.014 446.981,-122.267 			"/>
			<polygon fill="#6CBAD4" points="446.982,-122.267 423.457,-81.519 399.932,-122.267 			"/>
			<polygon fill="#6CBAD4" points="446.982,-122.267 470.507,-163.014 494.032,-122.267 			"/>
			<polygon fill="#6CBAD4" points="494.033,-122.267 470.508,-81.519 446.983,-122.267 			"/>
			<polygon fill="#6795C1" points="494.033,-122.267 517.558,-163.014 541.083,-122.267 			"/>
			<polygon fill="#46ABA4" points="541.084,-122.267 517.559,-81.519 494.034,-122.267 			"/>
			<polygon fill="#6795C1" points="541.084,-122.267 564.608,-163.014 588.133,-122.267 			"/>
			<polygon fill="#6CBAD4" points="588.135,-122.267 564.609,-81.519 541.085,-122.267 			"/>
			<polygon fill="#6795C1" points="588.135,-122.267 611.659,-163.014 635.184,-122.267 			"/>
			<polygon fill="#6795C1" points="635.185,-122.267 611.66,-81.519 588.136,-122.267 			"/>
			<polygon fill="#6795C1" points="635.185,-122.267 658.71,-163.014 682.235,-122.267 			"/>
			<polygon fill="#6795C1" points="682.236,-122.267 658.711,-81.519 635.185,-122.267 			"/>
			<polygon fill="#6795C1" points="682.236,-122.267 705.761,-163.014 729.286,-122.267 			"/>
			<polygon fill="#6795C1" points="729.287,-122.267 705.762,-81.519 682.237,-122.267 			"/>
			<polygon fill="#46ABA4" points="729.287,-122.267 752.812,-163.014 776.337,-122.267 			"/>
			<polygon fill="#6795C1" points="776.338,-122.267 752.812,-81.519 729.288,-122.267 			"/>
			<polygon fill="#46ABA4" points="776.338,-122.267 799.862,-163.014 823.388,-122.267 			"/>
			<polygon fill="#6795C1" points="823.389,-122.267 799.863,-81.519 776.339,-122.267 			"/>
			<polygon fill="#6795C1" points="0,-81.604 23.525,-122.352 47.05,-81.604 			"/>
			<polygon fill="#46ABA4" points="47.051,-81.604 23.526,-40.857 0.001,-81.604 			"/>
			<polygon fill="#6795C1" points="47.051,-81.604 70.576,-122.352 94.101,-81.604 			"/>
			<polygon fill="#6CBAD4" points="94.102,-81.604 70.577,-40.857 47.052,-81.604 			"/>
			<polygon fill="#46ABA4" points="94.102,-81.604 117.627,-122.352 141.152,-81.604 			"/>
			<polygon fill="#6CBAD4" points="141.153,-81.604 117.628,-40.857 94.103,-81.604 			"/>
			<polygon fill="#46ABA4" points="141.153,-81.604 164.678,-122.352 188.203,-81.604 			"/>
			<polygon fill="#6795C1" points="188.204,-81.604 164.679,-40.857 141.153,-81.604 			"/>
			<polygon fill="#46ABA4" points="188.204,-81.604 211.729,-122.352 235.253,-81.604 			"/>
			<polygon fill="#6CBAD4" points="235.254,-81.604 211.73,-40.857 188.205,-81.604 			"/>
			<polygon fill="#6CBAD4" points="235.254,-81.604 258.779,-122.352 282.304,-81.604 			"/>
			<polygon fill="#46ABA4" points="282.305,-81.604 258.78,-40.857 235.255,-81.604 			"/>
			<polygon fill="#6795C1" points="282.305,-81.604 305.83,-122.352 329.354,-81.604 			"/>
			<polygon fill="#6CBAD4" points="329.355,-81.604 305.831,-40.857 282.306,-81.604 			"/>
			<polygon fill="#6795C1" points="329.355,-81.604 352.881,-122.352 376.405,-81.604 			"/>
			<polygon fill="#6CBAD4" points="376.406,-81.604 352.882,-40.857 329.356,-81.604 			"/>
			<polygon opacity="0.7" fill="#6CBAD4" points="376.406,-81.604 399.932,-122.352 423.457,-81.604 			"/>
			<polygon fill="#46ABA4" points="423.457,-81.604 399.933,-40.857 376.407,-81.604 			"/>
			<polygon fill="#46ABA4" points="423.457,-81.604 446.982,-122.352 470.508,-81.604 			"/>
			<polygon fill="#6795C1" points="470.509,-81.604 446.983,-40.857 423.458,-81.604 			"/>
			<polygon fill="#6795C1" points="470.509,-81.604 494.033,-122.352 517.559,-81.604 			"/>
			<polygon fill="#46ABA4" points="517.56,-81.604 494.034,-40.857 470.51,-81.604 			"/>
			<polygon opacity="0.7" fill="#6CBAD4" points="517.56,-81.604 541.084,-122.352 564.609,-81.604 			"/>
			<polygon fill="#6795C1" points="564.61,-81.604 541.085,-40.857 517.56,-81.604 			"/>
			<polygon fill="#46ABA4" points="564.61,-81.604 588.135,-122.352 611.659,-81.604 			"/>
			<polygon fill="#6795C1" points="611.661,-81.604 588.136,-40.857 564.611,-81.604 			"/>
			<polygon fill="#46ABA4" points="611.661,-81.604 635.185,-122.352 658.71,-81.604 			"/>
			<polygon fill="#6795C1" points="658.711,-81.604 635.187,-40.857 611.662,-81.604 			"/>
			<polygon fill="#46ABA4" points="658.711,-81.604 682.236,-122.352 705.762,-81.604 			"/>
			<polygon fill="#6795C1" points="705.763,-81.604 682.237,-40.857 658.712,-81.604 			"/>
			<polygon fill="#46ABA4" points="705.763,-81.604 729.287,-122.352 752.812,-81.604 			"/>
			<polygon fill="#6795C1" points="752.813,-81.604 729.288,-40.857 705.764,-81.604 			"/>
			<polygon fill="#46ABA4" points="752.813,-81.604 776.338,-122.352 799.863,-81.604 			"/>
			<polygon fill="#6795C1" points="799.864,-81.604 776.339,-40.857 752.815,-81.604 			"/>
			<polygon fill="#6CBAD4" points="-23.526,-40.857 -0.001,-81.604 23.523,-40.857 			"/>
			<polygon fill="#6795C1" points="23.524,-40.857 0,-0.11 -23.525,-40.857 			"/>
			<polygon fill="#6795C1" points="23.524,-40.857 47.05,-81.604 70.574,-40.857 			"/>
			<polygon fill="#6CBAD4" points="70.575,-40.857 47.051,-0.11 23.525,-40.857 			"/>
			<polygon fill="#6795C1" points="70.575,-40.857 94.101,-81.604 117.626,-40.857 			"/>
			<polygon fill="#6CBAD4" points="117.627,-40.857 94.102,-0.11 70.576,-40.857 			"/>
			<polygon fill="#46ABA4" points="117.627,-40.857 141.151,-81.604 164.677,-40.857 			"/>
			<polygon opacity="0.7" fill="#6CBAD4" points="164.678,-40.857 141.152,-0.11 117.627,-40.857 			"/>
			<polygon fill="#46ABA4" points="164.678,-40.857 188.202,-81.604 211.727,-40.857 			"/>
			<polygon fill="#6CBAD4" points="211.727,-40.857 188.203,-0.11 164.679,-40.857 			"/>
			<polygon fill="#6795C1" points="211.727,-40.857 235.253,-81.604 258.777,-40.857 			"/>
			<polygon fill="#46ABA4" points="258.778,-40.857 235.254,-0.11 211.729,-40.857 			"/>
			<polygon fill="#6795C1" points="258.778,-40.857 282.304,-81.604 305.828,-40.857 			"/>
			<polygon fill="#46ABA4" points="305.829,-40.857 282.305,-0.11 258.779,-40.857 			"/>
			<polygon fill="#6795C1" points="305.829,-40.857 329.354,-81.604 352.879,-40.857 			"/>
			<polygon fill="#6CBAD4" points="352.88,-40.857 329.355,-0.11 305.83,-40.857 			"/>
			<polygon fill="#6795C1" points="352.88,-40.857 376.405,-81.604 399.931,-40.857 			"/>
			<polygon fill="#6CBAD4" points="399.931,-40.857 376.406,-0.11 352.881,-40.857 			"/>
			<polygon fill="#6CBAD4" points="399.931,-40.857 423.456,-81.604 446.981,-40.857 			"/>
			<polygon fill="#46ABA4" points="446.982,-40.857 423.457,-0.11 399.932,-40.857 			"/>
			<polygon opacity="0.7" fill="#6CBAD4" points="446.982,-40.857 470.507,-81.604 494.032,-40.857 			"/>
			<polygon fill="#6CBAD4" points="494.033,-40.857 470.508,-0.11 446.983,-40.857 			"/>
			<polygon fill="#6CBAD4" points="494.033,-40.857 517.558,-81.604 541.083,-40.857 			"/>
			<polygon fill="#6795C1" points="541.084,-40.857 517.559,-0.11 494.034,-40.857 			"/>
			<polygon fill="#6CBAD4" points="541.084,-40.857 564.608,-81.604 588.133,-40.857 			"/>
			<polygon fill="#6795C1" points="588.135,-40.857 564.609,-0.11 541.085,-40.857 			"/>
			<polygon fill="#6CBAD4" points="588.135,-40.857 611.659,-81.604 635.184,-40.857 			"/>
			<polygon fill="#6CBAD4" points="635.185,-40.857 611.66,-0.11 588.136,-40.857 			"/>
			<polygon fill="#46ABA4" points="635.185,-40.857 658.71,-81.604 682.235,-40.857 			"/>
			<polygon fill="#6CBAD4" points="682.236,-40.857 658.711,-0.11 635.185,-40.857 			"/>
			<polygon fill="#6CBAD4" points="682.236,-40.857 705.761,-81.604 729.286,-40.857 			"/>
			<polygon fill="#46ABA4" points="729.287,-40.857 705.762,-0.11 682.237,-40.857 			"/>
			<polygon fill="#6CBAD4" points="729.287,-40.857 752.812,-81.604 776.337,-40.857 			"/>
			<polygon fill="#46ABA4" points="776.338,-40.857 752.812,-0.11 729.288,-40.857 			"/>
			<polygon fill="#46ABA4" points="776.338,-40.857 799.862,-81.604 823.388,-40.857 			"/>
			<polygon fill="#46ABA4" points="823.389,-40.857 799.863,-0.11 776.339,-40.857 			"/>
			<polygon fill="#6CBAD4" points="0,-0.133 23.525,-40.881 47.05,-0.133 			"/>
			<polygon fill="#6795C1" points="47.051,-0.133 23.526,40.613 0.001,-0.133 			"/>
			<polygon fill="#6795C1" points="47.051,-0.133 70.576,-40.881 94.101,-0.133 			"/>
			<polygon fill="#46ABA4" points="94.102,-0.133 70.577,40.613 47.052,-0.133 			"/>
			<polygon fill="#46ABA4" points="94.102,-0.133 117.627,-40.881 141.152,-0.133 			"/>
			<polygon fill="#6795C1" points="141.153,-0.133 117.628,40.613 94.103,-0.133 			"/>
			<polygon fill="#6795C1" points="141.153,-0.133 164.678,-40.881 188.203,-0.133 			"/>
			<polygon fill="#46ABA4" points="188.204,-0.133 164.679,40.613 141.153,-0.133 			"/>
			<polygon fill="#6795C1" points="188.204,-0.133 211.729,-40.881 235.253,-0.133 			"/>
			<polygon opacity="0.5" fill="#54DECD" points="235.254,-0.133 211.73,40.613 188.205,-0.133 			"/>
			<polygon fill="#6CBAD4" points="235.254,-0.133 258.779,-40.881 282.304,-0.133 			"/>
			<polygon fill="#6795C1" points="282.305,-0.133 258.78,40.613 235.255,-0.133 			"/>
			<polygon opacity="0.7" fill="#6CBAD4" points="282.305,-0.133 305.83,-40.881 329.354,-0.133 			"/>
			<polygon fill="#6795C1" points="329.355,-0.133 305.831,40.613 282.306,-0.133 			"/>
			<polygon fill="#6795C1" points="329.355,-0.133 352.881,-40.881 376.405,-0.133 			"/>
			<polygon fill="#46ABA4" points="376.406,-0.133 352.882,40.613 329.356,-0.133 			"/>
			<polygon opacity="0.7" fill="#6CBAD4" points="376.406,-0.133 399.932,-40.881 423.457,-0.133 			"/>
			<polygon fill="#6CBAD4" points="423.457,-0.133 399.933,40.613 376.407,-0.133 			"/>
			<polygon fill="#6795C1" points="423.457,-0.133 446.982,-40.881 470.508,-0.133 			"/>
			<polygon opacity="0.7" fill="#6CBAD4" points="470.509,-0.133 446.983,40.613 423.458,-0.133 			"/>
			<polygon opacity="0.7" fill="#6CBAD4" points="470.509,-0.133 494.033,-40.881 517.559,-0.133 			"/>
			<polygon fill="#6795C1" points="517.56,-0.133 494.034,40.613 470.51,-0.133 			"/>
			<polygon fill="#6CBAD4" points="517.56,-0.133 541.084,-40.881 564.609,-0.133 			"/>
			<polygon opacity="0.7" fill="#6CBAD4" points="564.61,-0.133 541.085,40.613 517.56,-0.133 			"/>
			<polygon fill="#46ABA4" points="564.61,-0.133 588.135,-40.881 611.659,-0.133 			"/>
			<polygon fill="#6CBAD4" points="611.661,-0.133 588.136,40.613 564.611,-0.133 			"/>
			<polygon fill="#6795C1" points="611.661,-0.133 635.185,-40.881 658.71,-0.133 			"/>
			<polygon fill="#46ABA4" points="658.711,-0.133 635.187,40.613 611.662,-0.133 			"/>
			<polygon fill="#6795C1" points="658.711,-0.133 682.236,-40.881 705.762,-0.133 			"/>
			<polygon fill="#46ABA4" points="705.763,-0.133 682.237,40.613 658.712,-0.133 			"/>
			<polygon fill="#6CBAD4" points="705.763,-0.133 729.287,-40.881 752.812,-0.133 			"/>
			<polygon fill="#6795C1" points="752.813,-0.133 729.288,40.613 705.764,-0.133 			"/>
			<polygon fill="#6CBAD4" points="752.813,-0.133 776.338,-40.88 799.863,-0.133 			"/>
			<polygon fill="#46ABA4" points="799.864,-0.133 776.339,40.614 752.815,-0.133 			"/>
			<polygon fill="#6CBAD4" points="-23.526,40.613 -0.001,-0.133 23.523,40.613 			"/>
			<polygon fill="#6795C1" points="23.524,40.613 0,81.361 -23.525,40.613 			"/>
			<polygon opacity="0.5" fill="#54DECD" points="23.524,40.613 47.05,-0.133 70.574,40.613 			"/>
			<polygon fill="#6CBAD4" points="70.575,40.613 47.051,81.361 23.525,40.613 			"/>
			<polygon fill="#6CBAD4" points="70.575,40.613 94.101,-0.133 117.626,40.613 			"/>
			<polygon fill="#6CBAD4" points="117.627,40.613 94.102,81.361 70.576,40.613 			"/>
			<polygon fill="#6CBAD4" points="117.627,40.613 141.151,-0.133 164.677,40.613 			"/>
			<polygon fill="#6795C1" points="164.678,40.613 141.152,81.361 117.627,40.613 			"/>
			<polygon fill="#6CBAD4" points="164.678,40.613 188.202,-0.133 211.727,40.613 			"/>
			<polygon fill="#6795C1" points="211.727,40.613 188.203,81.361 164.679,40.613 			"/>
			<polygon opacity="0.7" fill="#6795C1" points="211.727,40.613 235.253,-0.133 258.777,40.613 			"/>
			<polygon fill="#6CBAD4" points="258.778,40.613 235.254,81.361 211.729,40.613 			"/>
			<polygon fill="#6CBAD4" points="258.778,40.613 282.304,-0.133 305.828,40.613 			"/>
			<polygon fill="#6CBAD4" points="305.829,40.613 282.305,81.361 258.779,40.613 			"/>
			<polygon fill="#6CBAD4" points="305.829,40.613 329.354,-0.133 352.879,40.613 			"/>
			<polygon fill="#6795C1" points="352.88,40.613 329.355,81.361 305.83,40.613 			"/>
			<polygon opacity="0.7" fill="#6CBAD4" points="352.88,40.613 376.405,-0.133 399.931,40.613 			"/>
			<polygon fill="#6CBAD4" points="399.931,40.613 376.406,81.361 352.881,40.613 			"/>
			<polygon opacity="0.5" fill="#54DECD" points="399.931,40.613 423.456,-0.133 446.981,40.613 			"/>
			<polygon fill="#6CBAD4" points="446.982,40.613 423.457,81.361 399.932,40.613 			"/>
			<polygon fill="#46ABA4" points="446.982,40.613 470.507,-0.133 494.032,40.613 			"/>
			<polygon fill="#6CBAD4" points="494.033,40.613 470.508,81.361 446.983,40.613 			"/>
			<polygon fill="#6CBAD4" points="494.033,40.613 517.558,-0.133 541.083,40.613 			"/>
			<polygon fill="#6CBAD4" points="541.084,40.613 517.559,81.361 494.034,40.613 			"/>
			<polygon fill="#6795C1" points="541.084,40.613 564.608,-0.133 588.133,40.613 			"/>
			<polygon fill="#6CBAD4" points="588.135,40.613 564.609,81.361 541.085,40.613 			"/>
			<polygon fill="#6795C1" points="588.135,40.613 611.659,-0.133 635.184,40.613 			"/>
			<polygon fill="#6CBAD4" points="635.185,40.613 611.66,81.361 588.136,40.613 			"/>
			<polygon fill="#6CBAD4" points="635.185,40.613 658.71,-0.133 682.235,40.613 			"/>
			<polygon fill="#6795C1" points="682.236,40.613 658.711,81.361 635.185,40.613 			"/>
			<polygon fill="#6CBAD4" points="682.236,40.613 705.761,-0.133 729.286,40.613 			"/>
			<polygon fill="#6795C1" points="729.287,40.613 705.762,81.361 682.237,40.613 			"/>
			<polygon fill="#6CBAD4" points="729.287,40.613 752.812,-0.133 776.337,40.614 			"/>
			<polygon fill="#6CBAD4" points="776.338,40.614 752.812,81.361 729.288,40.613 			"/>
			<polygon fill="#6CBAD4" points="776.338,40.614 799.862,-0.133 823.388,40.614 			"/>
			<polygon fill="#6CBAD4" points="823.389,40.614 799.863,81.361 776.339,40.614 			"/>
			<polygon opacity="0.7" fill="#6CBAD4" points="0,81.381 23.525,40.633 47.05,81.381 			"/>
			<polygon fill="#6795C1" points="47.051,81.381 23.526,122.127 0.001,81.381 			"/>
			<polygon fill="#6795C1" points="47.051,81.381 70.576,40.633 94.101,81.381 			"/>
			<polygon opacity="0.5" fill="#54DECD" points="94.102,81.381 70.577,122.127 47.052,81.381 			"/>
			<polygon opacity="0.5" fill="#54DECD" points="94.102,81.381 117.627,40.633 141.152,81.381 			"/>
			<polygon fill="#6795C1" points="141.153,81.381 117.628,122.127 94.103,81.381 			"/>
			<polygon fill="#6CBAD4" points="141.153,81.381 164.678,40.633 188.203,81.381 			"/>
			<polygon opacity="0.5" fill="#54DECD" points="188.204,81.381 164.679,122.127 141.153,81.381 			"/>
			<polygon opacity="0.7" fill="#6CBAD4" points="188.204,81.381 211.729,40.633 235.253,81.381 			"/>
			<polygon fill="#6CBAD4" points="235.254,81.381 211.73,122.127 188.205,81.381 			"/>
			<polygon opacity="0.7" fill="#6CBAD4" points="235.254,81.381 258.779,40.633 282.304,81.381 			"/>
			<polygon fill="#6795C1" points="282.305,81.381 258.78,122.127 235.255,81.381 			"/>
			<polygon opacity="0.7" fill="#6CBAD4" points="282.305,81.381 305.83,40.633 329.354,81.381 			"/>
			<polygon fill="#6CBAD4" points="329.355,81.381 305.831,122.127 282.306,81.381 			"/>
			<polygon opacity="0.7" fill="#6CBAD4" points="329.355,81.381 352.881,40.633 376.405,81.381 			"/>
			<polygon fill="#6CBAD4" points="376.406,81.381 352.882,122.127 329.356,81.381 			"/>
			<polygon fill="#6795C1" points="376.406,81.381 399.932,40.633 423.457,81.381 			"/>
			<polygon fill="#6CBAD4" points="423.457,81.381 399.933,122.127 376.407,81.381 			"/>
			<polygon opacity="0.7" fill="#6CBAD4" points="423.457,81.381 446.982,40.633 470.508,81.381 			"/>
			<polygon fill="#6CBAD4" points="470.509,81.381 446.983,122.127 423.458,81.381 			"/>
			<polygon opacity="0.5" fill="#54DECD" points="470.509,81.381 494.033,40.633 517.559,81.381 			"/>
			<polygon opacity="0.7" fill="#6CBAD4" points="517.56,81.381 494.034,122.127 470.51,81.381 			"/>
			<polygon opacity="0.7" fill="#6CBAD4" points="517.56,81.381 541.084,40.633 564.609,81.381 			"/>
			<polygon fill="#6CBAD4" points="564.61,81.381 541.085,122.127 517.56,81.381 			"/>
			<polygon fill="#6795C1" points="564.61,81.381 588.135,40.633 611.659,81.381 			"/>
			<polygon opacity="0.5" fill="#54DECD" points="611.661,81.381 588.136,122.127 564.611,81.381 			"/>
			<polygon opacity="0.7" fill="#6CBAD4" points="611.661,81.381 635.185,40.633 658.71,81.381 			"/>
			<polygon opacity="0.5" fill="#54DECD" points="658.711,81.381 635.187,122.127 611.662,81.381 			"/>
			<polygon opacity="0.7" fill="#6CBAD4" points="658.711,81.381 682.236,40.633 705.762,81.381 			"/>
			<polygon fill="#6CBAD4" points="705.763,81.381 682.237,122.127 658.712,81.381 			"/>
			<polygon fill="#6CBAD4" points="705.763,81.381 729.287,40.633 752.812,81.381 			"/>
			<polygon fill="#6795C1" points="752.813,81.381 776.338,40.634 799.863,81.381 			"/>
			<polygon fill="#6CBAD4" points="799.864,81.381 776.339,122.127 752.815,81.381 			"/>
			<polygon fill="#6CBAD4" points="-23.526,122.127 -0.001,81.381 23.523,122.127 			"/>
			<polygon opacity="0.5" fill="#54DECD" points="23.524,122.127 0,162.875 -23.525,122.127 			"/>
			<polygon opacity="0.5" fill="#54DECD" points="-23.527,203.6 -47.052,244.346 -70.577,203.6 			"/>
			<polygon fill="#6CBAD4" points="23.524,122.127 47.05,81.381 70.574,122.127 			"/>
			<polygon opacity="0.7" fill="#6CBAD4" points="70.575,122.127 47.051,162.875 23.525,122.127 			"/>
			<polygon fill="#6CBAD4" points="70.575,122.127 94.101,81.381 117.626,122.127 			"/>
			<polygon opacity="0.7" fill="#6CBAD4" points="117.627,122.127 141.151,81.381 164.677,122.127 			"/>
			<polygon fill="#6CBAD4" points="164.678,122.127 141.152,162.875 117.627,122.127 			"/>
			<polygon opacity="0.2" fill="#54DECD" points="164.678,122.127 188.202,81.381 211.727,122.127 			"/>
			<polygon fill="#6CBAD4" points="211.727,122.127 188.203,162.875 164.679,122.127 			"/>
			<polygon opacity="0.5" fill="#54DECD" points="211.727,122.127 235.253,81.381 258.777,122.127 			"/>
			<polygon fill="#6CBAD4" points="258.778,122.127 235.254,162.875 211.729,122.127 			"/>
			<polygon opacity="0.5" fill="#54DECD" points="258.778,122.127 282.304,81.381 305.828,122.127 			"/>
			<polygon fill="#6CBAD4" points="305.829,122.127 282.305,162.875 258.779,122.127 			"/>
			<polygon opacity="0.7" fill="#6CBAD4" points="305.829,122.127 329.354,81.381 352.879,122.127 			"/>
			<polygon fill="#6CBAD4" points="352.88,122.127 329.355,162.875 305.83,122.127 			"/>
			<polygon fill="#6795C1" points="352.88,122.127 376.405,81.381 399.931,122.127 			"/>
			<polygon fill="#6CBAD4" points="399.931,122.127 376.406,162.875 352.881,122.127 			"/>
			<polygon opacity="0.7" fill="#6CBAD4" points="399.931,122.127 423.456,81.381 446.981,122.127 			"/>
			<polygon fill="#6CBAD4" points="446.982,122.127 423.457,162.875 399.932,122.127 			"/>
			<polygon fill="#6CBAD4" points="446.982,122.127 470.507,81.381 494.032,122.127 			"/>
			<polygon opacity="0.7" fill="#6CBAD4" points="494.033,122.127 470.508,162.875 446.983,122.127 			"/>
			<polygon opacity="0.5" fill="#54DECD" points="494.033,122.127 517.558,81.381 541.083,122.127 			"/>
			<polygon opacity="0.7" fill="#6CBAD4" points="541.084,122.127 517.559,162.875 494.034,122.127 			"/>
			<polygon opacity="0.7" fill="#6CBAD4" points="541.084,122.127 564.608,81.381 588.133,122.127 			"/>
			<polygon fill="#6795C1" points="588.135,122.127 564.609,162.875 541.085,122.127 			"/>
			<polygon fill="#6CBAD4" points="588.135,122.127 611.659,81.381 635.184,122.127 			"/>
			<polygon opacity="0.5" fill="#54DECD" points="635.185,122.127 611.66,162.875 588.136,122.127 			"/>
			<polygon opacity="0.7" fill="#6CBAD4" points="635.185,122.127 658.71,81.381 682.235,122.127 			"/>
			<polygon fill="#6CBAD4" points="682.236,122.127 658.711,162.875 635.185,122.127 			"/>
			<polygon opacity="0.5" fill="#54DECD" points="682.236,122.127 705.761,81.381 729.286,122.127 			"/>
			<polygon fill="#6CBAD4" points="729.287,122.127 705.762,162.875 682.237,122.127 			"/>
			<polygon opacity="0.7" fill="#6CBAD4" points="729.287,122.127 752.812,81.381 776.337,122.127 			"/>
			<polygon fill="#6CBAD4" points="776.338,122.127 752.812,162.875 729.288,122.127 			"/>
			<polygon opacity="0.5" fill="#54DECD" points="776.338,122.127 799.862,81.381 823.388,122.128 			"/>
			<polygon opacity="0.7" fill="#6CBAD4" points="823.389,122.128 799.863,162.875 776.339,122.127 			"/>
			<polygon fill="#6CBAD4" points="47.051,162.852 23.526,203.6 0.001,162.852 			"/>
			<polygon opacity="0.5" fill="#54DECD" points="47.051,162.852 70.576,122.106 94.101,162.852 			"/>
			<polygon opacity="0.2" fill="#54DECD" points="94.102,162.852 70.577,203.6 47.052,162.852 			"/>
			<polygon opacity="0.2" fill="#54DECD" points="94.102,162.852 117.627,122.106 141.152,162.852 			"/>
			<polygon fill="#6CBAD4" points="141.153,162.852 117.628,203.6 94.103,162.852 			"/>
			<polygon opacity="0.5" fill="#54DECD" points="141.153,162.852 164.678,122.106 188.203,162.852 			"/>
			<polygon fill="#6CBAD4" points="188.204,162.852 164.679,203.6 141.153,162.852 			"/>
			<polygon opacity="0.7" fill="#6CBAD4" points="188.204,162.852 211.729,122.106 235.253,162.852 			"/>
			<polygon fill="#6CBAD4" points="235.254,162.852 211.73,203.6 188.205,162.852 			"/>
			<polygon opacity="0.7" fill="#6CBAD4" points="235.254,162.852 258.779,122.106 282.304,162.852 			"/>
			<polygon opacity="0.5" fill="#54DECD" points="282.305,162.852 258.78,203.6 235.255,162.852 			"/>
			<polygon opacity="0.7" fill="#6CBAD4" points="282.305,162.852 305.83,122.106 329.354,162.852 			"/>
			<polygon opacity="0.5" fill="#54DECD" points="329.355,162.852 305.831,203.6 282.306,162.852 			"/>
			<polygon opacity="0.7" fill="#6CBAD4" points="329.355,162.852 352.881,122.106 376.405,162.852 			"/>
			<polygon fill="#6CBAD4" points="376.406,162.852 352.882,203.6 329.356,162.852 			"/>
			<polygon fill="#6795C1" points="376.406,162.852 399.932,122.106 423.457,162.852 			"/>
			<polygon fill="#6CBAD4" points="423.457,162.852 399.933,203.6 376.407,162.852 			"/>
			<polygon opacity="0.5" fill="#54DECD" points="423.457,162.852 446.982,122.106 470.508,162.852 			"/>
			<polygon fill="#6CBAD4" points="470.509,162.852 446.983,203.6 423.458,162.852 			"/>
			<polygon fill="#6CBAD4" points="470.509,162.852 494.033,122.106 517.559,162.852 			"/>
			<polygon fill="#6CBAD4" points="517.56,162.852 494.034,203.6 470.51,162.852 			"/>
			<polygon fill="#6CBAD4" points="517.56,162.852 541.084,122.106 564.609,162.852 			"/>
			<polygon fill="#6CBAD4" points="564.61,162.852 541.085,203.6 517.56,162.852 			"/>
			<polygon fill="#6CBAD4" points="564.61,162.852 588.135,122.106 611.659,162.852 			"/>
			<polygon fill="#6CBAD4" points="611.661,162.852 588.136,203.6 564.611,162.852 			"/>
			<polygon opacity="0.7" fill="#6CBAD4" points="611.661,162.852 635.185,122.106 658.71,162.852 			"/>
			<polygon opacity="0.7" fill="#6CBAD4" points="658.711,162.852 635.187,203.6 611.662,162.852 			"/>
			<polygon opacity="0.5" fill="#54DECD" points="658.711,162.852 682.236,122.106 705.762,162.852 			"/>
			<polygon opacity="0.7" fill="#6CBAD4" points="705.763,162.852 729.287,122.106 752.812,162.852 			"/>
			<polygon fill="#6CBAD4" points="752.813,162.852 729.288,203.6 705.764,162.852 			"/>
			<polygon opacity="0.5" fill="#54DECD" points="752.813,162.852 776.338,122.106 799.863,162.852 			"/>
			<polygon opacity="0.7" fill="#6CBAD4" points="-23.526,203.6 -0.001,162.852 23.523,203.6 			"/>
			<polygon opacity="0.7" fill="#6CBAD4" points="23.524,203.6 0,244.346 -23.525,203.6 			"/>
			<polygon fill="#6CBAD4" points="70.575,203.6 47.051,244.346 23.525,203.6 			"/>
			<polygon fill="#6CBAD4" points="117.627,203.6 94.102,244.346 70.576,203.6 			"/>
			<polygon opacity="0.7" fill="#6CBAD4" points="117.627,203.6 141.151,162.852 164.677,203.6 			"/>
			<polygon fill="#6CBAD4" points="164.678,203.6 141.152,244.346 117.627,203.6 			"/>
			<polygon opacity="0.7" fill="#6CBAD4" points="164.678,203.6 188.202,162.852 211.727,203.6 			"/>
			<polygon fill="#6CBAD4" points="211.727,203.6 188.203,244.346 164.679,203.6 			"/>
			<polygon opacity="0.7" fill="#6CBAD4" points="211.727,203.6 235.253,162.852 258.777,203.6 			"/>
			<polygon fill="#6CBAD4" points="258.778,203.6 235.254,244.346 211.729,203.6 			"/>
			<polygon fill="#6795C1" points="258.778,203.6 282.304,162.852 305.828,203.6 			"/>
			<polygon fill="#6CBAD4" points="305.829,203.6 282.305,244.346 258.779,203.6 			"/>
			<polygon opacity="0.7" fill="#6CBAD4" points="305.829,203.6 329.354,162.852 352.879,203.6 			"/>
			<polygon opacity="0.5" fill="#54DECD" points="352.88,203.6 329.355,244.346 305.83,203.6 			"/>
			<polygon opacity="0.5" fill="#54DECD" points="352.88,203.6 376.405,162.852 399.931,203.6 			"/>
			<polygon fill="#6CBAD4" points="399.931,203.6 376.406,244.346 352.881,203.6 			"/>
			<polygon opacity="0.7" fill="#6CBAD4" points="399.931,203.6 423.456,162.852 446.981,203.6 			"/>
			<polygon fill="#6CBAD4" points="446.982,203.6 423.457,244.346 399.932,203.6 			"/>
			<polygon fill="#6795C1" points="446.982,203.6 470.507,162.852 494.032,203.6 			"/>
			<polygon opacity="0.7" fill="#6CBAD4" points="494.033,203.6 470.508,244.346 446.983,203.6 			"/>
			<polygon opacity="0.7" fill="#6CBAD4" points="494.033,203.6 517.558,162.852 541.083,203.6 			"/>
			<polygon fill="#6795C1" points="541.084,203.6 517.559,244.346 494.034,203.6 			"/>
			<polygon opacity="0.7" fill="#6CBAD4" points="541.084,203.6 564.608,162.852 588.133,203.6 			"/>
			<polygon fill="#6CBAD4" points="588.135,203.6 564.609,244.346 541.085,203.6 			"/>
			<polygon fill="#6CBAD4" points="635.185,203.6 611.66,244.346 588.136,203.6 			"/>
			<polygon fill="#6CBAD4" points="635.185,203.6 658.71,162.852 682.235,203.6 			"/>
			<polygon opacity="0.5" fill="#54DECD" points="682.236,203.6 658.711,244.346 635.185,203.6 			"/>
			<polygon opacity="0.7" fill="#6CBAD4" points="682.236,203.6 705.761,162.852 729.286,203.6 			"/>
			<polygon opacity="0.2" fill="#54DECD" points="729.287,203.6 705.762,244.346 682.237,203.6 			"/>
			<polygon opacity="0.5" fill="#54DECD" points="729.287,203.6 752.812,162.852 776.337,203.6 			"/>
			<polygon fill="#6CBAD4" points="776.338,203.6 799.862,162.852 823.388,203.6 			"/>
			<polygon opacity="0.7" fill="#6CBAD4" points="94.102,244.328 117.627,203.582 141.152,244.328 			"/>
			<polygon opacity="0.5" fill="#54DECD" points="188.204,244.328 164.679,285.076 141.153,244.328 			"/>
			<polygon opacity="0.7" fill="#6CBAD4" points="188.204,244.328 211.729,203.582 235.253,244.328 			"/>
			<polygon fill="#46ABA4" points="-188.203,-163.014 -211.727,-122.267 -235.253,-163.014 			"/>
			<polygon fill="#46ABA4" points="-141.151,-163.014 -164.677,-122.267 -188.202,-163.014 			"/>
			<polygon fill="#6CBAD4" points="-94.101,-163.014 -117.626,-122.267 -141.151,-163.014 			"/>
			<polygon fill="#6795C1" points="-47.051,-163.014 -70.575,-122.267 -94.1,-163.014 			"/>
			<polygon fill="#6795C1" points="-211.729,-122.267 -188.204,-163.014 -164.679,-122.267 			"/>
			<polygon fill="#6795C1" points="-164.678,-122.267 -188.203,-81.519 -211.729,-122.267 			"/>
			<polygon fill="#6795C1" points="-164.678,-122.267 -141.153,-163.014 -117.628,-122.267 			"/>
			<polygon fill="#6795C1" points="-117.627,-122.267 -141.152,-81.519 -164.678,-122.267 			"/>
			<polygon fill="#46ABA4" points="-117.627,-122.267 -94.103,-163.014 -70.578,-122.267 			"/>
			<polygon fill="#6795C1" points="-70.577,-122.267 -94.102,-81.519 -117.626,-122.267 			"/>
			<polygon fill="#6CBAD4" points="-70.577,-122.267 -47.052,-163.014 -23.527,-122.267 			"/>
			<polygon fill="#6795C1" points="-23.526,-122.267 -47.051,-81.519 -70.576,-122.267 			"/>
			<polygon fill="#6795C1" points="-235.254,-81.604 -211.729,-122.352 -188.204,-81.604 			"/>
			<polygon fill="#6CBAD4" points="-188.203,-81.604 -211.727,-40.857 -235.253,-81.604 			"/>
			<polygon fill="#46ABA4" points="-188.203,-81.604 -164.678,-122.352 -141.152,-81.604 			"/>
			<polygon fill="#6CBAD4" points="-141.151,-81.604 -164.677,-40.857 -188.202,-81.604 			"/>
			<polygon fill="#46ABA4" points="-141.151,-81.604 -117.627,-122.352 -94.102,-81.604 			"/>
			<polygon fill="#6795C1" points="-94.101,-81.604 -117.626,-40.857 -141.151,-81.604 			"/>
			<polygon fill="#46ABA4" points="-94.101,-81.604 -70.576,-122.352 -47.052,-81.604 			"/>
			<polygon fill="#6CBAD4" points="-47.051,-81.604 -70.575,-40.857 -94.1,-81.604 			"/>
			<polygon fill="#6795C1" points="-211.729,-40.857 -188.204,-81.604 -164.679,-40.857 			"/>
			<polygon fill="#6CBAD4" points="-164.678,-40.857 -188.203,-0.11 -211.729,-40.857 			"/>
			<polygon fill="#46ABA4" points="-164.678,-40.857 -141.153,-81.604 -117.628,-40.857 			"/>
			<polygon opacity="0.7" fill="#6CBAD4" points="-117.627,-40.857 -141.152,-0.11 -164.678,-40.857 			"/>
			<polygon fill="#46ABA4" points="-117.627,-40.857 -94.103,-81.604 -70.578,-40.857 			"/>
			<polygon fill="#6CBAD4" points="-70.577,-40.857 -94.102,-0.11 -117.626,-40.857 			"/>
			<polygon fill="#6795C1" points="-70.577,-40.857 -47.052,-81.604 -23.527,-40.857 			"/>
			<polygon fill="#46ABA4" points="-23.526,-40.857 -47.051,-0.11 -70.576,-40.857 			"/>
			<polygon fill="#6795C1" points="-235.254,-0.133 -211.729,-40.881 -188.204,-0.133 			"/>
			<polygon fill="#46ABA4" points="-188.203,-0.133 -211.727,40.613 -235.253,-0.133 			"/>
			<polygon fill="#46ABA4" points="-188.203,-0.133 -164.678,-40.881 -141.152,-0.133 			"/>
			<polygon fill="#6795C1" points="-141.151,-0.133 -164.677,40.613 -188.202,-0.133 			"/>
			<polygon fill="#6795C1" points="-141.151,-0.133 -117.627,-40.881 -94.102,-0.133 			"/>
			<polygon fill="#46ABA4" points="-94.101,-0.133 -117.626,40.613 -141.151,-0.133 			"/>
			<polygon fill="#6795C1" points="-94.101,-0.133 -70.576,-40.881 -47.052,-0.133 			"/>
			<polygon opacity="0.5" fill="#54DECD" points="-47.051,-0.133 -70.575,40.613 -94.1,-0.133 			"/>
			<polygon fill="#6CBAD4" points="-211.729,40.613 -188.204,-0.133 -164.679,40.613 			"/>
			<polygon fill="#6CBAD4" points="-164.678,40.613 -188.203,81.361 -211.729,40.613 			"/>
			<polygon fill="#6CBAD4" points="-164.678,40.613 -141.153,-0.133 -117.628,40.613 			"/>
			<polygon fill="#6795C1" points="-117.627,40.613 -141.152,81.361 -164.678,40.613 			"/>
			<polygon fill="#6CBAD4" points="-117.627,40.613 -94.103,-0.133 -70.578,40.613 			"/>
			<polygon fill="#6795C1" points="-70.577,40.613 -94.102,81.361 -117.626,40.613 			"/>
			<polygon opacity="0.7" fill="#6795C1" points="-70.577,40.613 -47.052,-0.133 -23.527,40.613 			"/>
			<polygon fill="#6CBAD4" points="-23.526,40.613 -47.051,81.361 -70.576,40.613 			"/>
			<polygon fill="#6795C1" points="-235.254,81.381 -211.729,40.633 -188.204,81.381 			"/>
			<polygon opacity="0.5" fill="#54DECD" points="-188.203,81.381 -211.727,122.127 -235.253,81.381 			"/>
			<polygon opacity="0.5" fill="#54DECD" points="-188.203,81.381 -164.678,40.633 -141.152,81.381 			"/>
			<polygon fill="#6795C1" points="-141.151,81.381 -164.677,122.127 -188.202,81.381 			"/>
			<polygon fill="#6CBAD4" points="-141.151,81.381 -117.627,40.633 -94.102,81.381 			"/>
			<polygon opacity="0.5" fill="#54DECD" points="-94.101,81.381 -117.626,122.127 -141.151,81.381 			"/>
			<polygon opacity="0.7" fill="#6CBAD4" points="-94.101,81.381 -70.576,40.633 -47.052,81.381 			"/>
			<polygon opacity="0.7" fill="#6CBAD4" points="-47.05,81.381 -23.525,40.633 -0.001,81.381 			"/>
			<polygon fill="#6CBAD4" points="-47.051,81.381 -70.575,122.127 -94.1,81.381 			"/>
			<polygon fill="#6CBAD4" points="-211.729,122.127 -188.204,81.381 -164.679,122.127 			"/>
			<polygon opacity="0.7" fill="#6CBAD4" points="-164.678,122.127 -141.153,81.381 -117.628,122.127 			"/>
			<polygon fill="#6CBAD4" points="-117.626,122.106 -141.151,162.852 -164.677,122.106 			"/>
			<polygon opacity="0.2" fill="#54DECD" points="-117.627,122.127 -94.103,81.381 -70.578,122.127 			"/>
			<polygon opacity="0.5" fill="#54DECD" points="-70.577,122.127 -47.052,81.381 -23.527,122.127 			"/>
			<polygon fill="#6CBAD4" points="-23.526,122.127 -47.051,162.875 -70.576,122.127 			"/>
			<polygon opacity="0.5" fill="#54DECD" points="-235.254,162.852 -211.729,122.106 -188.204,162.852 			"/>
			<polygon opacity="0.2" fill="#54DECD" points="-188.203,162.852 -211.727,203.6 -235.253,162.852 			"/>
			<polygon opacity="0.2" fill="#54DECD" points="-188.203,162.852 -164.678,122.106 -141.152,162.852 			"/>
			<polygon opacity="0.5" fill="#54DECD" points="-141.151,162.852 -117.627,122.106 -94.102,162.852 			"/>
			<polygon fill="#6CBAD4" points="-94.101,162.852 -117.626,203.6 -141.151,162.852 			"/>
			<polygon opacity="0.7" fill="#6CBAD4" points="-94.101,162.852 -70.576,122.106 -47.052,162.852 			"/>
			<polygon opacity="0.7" fill="#6CBAD4" points="-47.05,162.852 -23.525,122.106 -0.001,162.852 			"/>
			<polygon fill="#6CBAD4" points="-47.051,162.852 -70.575,203.6 -94.1,162.852 			"/>
			<polygon fill="#6CBAD4" points="-164.678,203.6 -188.203,244.346 -211.729,203.6 			"/>
			<polygon opacity="0.7" fill="#6CBAD4" points="-70.577,203.6 -47.052,162.852 -23.527,203.6 			"/>
			<polygon opacity="0.7" fill="#6CBAD4" points="-94.101,244.328 -70.575,203.582 -47.051,244.328 			"/>
			<polygon opacity="0.2" fill="#54DECD" points="235.254,244.328 211.73,285.076 188.205,244.328 			"/>
			<polygon opacity="0.5" fill="#54DECD" points="235.254,244.328 258.779,203.582 282.304,244.328 			"/>
			<polygon opacity="0.7" fill="#6CBAD4" points="282.305,244.328 258.78,285.076 235.255,244.328 			"/>
			<polygon opacity="0.7" fill="#6CBAD4" points="282.305,244.328 305.83,203.582 329.354,244.328 			"/>
			<polygon opacity="0.7" fill="#6CBAD4" points="329.355,244.328 305.831,285.076 282.306,244.328 			"/>
			<polygon opacity="0.7" fill="#6CBAD4" points="329.355,244.328 352.881,203.582 376.405,244.328 			"/>
			<polygon opacity="0.7" fill="#6CBAD4" points="376.406,244.328 352.882,285.076 329.356,244.328 			"/>
			<polygon opacity="0.5" fill="#54DECD" points="376.406,244.328 399.932,203.582 423.457,244.328 			"/>
			<polygon opacity="0.7" fill="#6CBAD4" points="423.457,244.328 399.933,285.076 376.407,244.328 			"/>
			<polygon opacity="0.5" fill="#54DECD" points="423.457,244.328 446.982,203.582 470.508,244.328 			"/>
			<polygon opacity="0.2" fill="#54DECD" points="470.509,244.328 446.983,285.076 423.458,244.328 			"/>
			<polygon fill="#6CBAD4" points="470.509,244.328 494.033,203.582 517.559,244.328 			"/>
			<polygon opacity="0.7" fill="#6CBAD4" points="517.56,244.328 494.034,285.076 470.51,244.328 			"/>
			<polygon fill="#6CBAD4" points="517.56,244.328 541.084,203.582 564.609,244.328 			"/>
			<polygon opacity="0.7" fill="#6CBAD4" points="564.61,244.328 541.085,285.076 517.56,244.328 			"/>
			<polygon opacity="0.5" fill="#54DECD" points="564.61,244.328 588.135,203.582 611.659,244.328 			"/>
			<polygon fill="#6CBAD4" points="611.661,244.328 635.185,203.582 658.71,244.328 			"/>
			<polygon opacity="0.7" fill="#6CBAD4" points="658.711,244.328 635.187,285.076 611.662,244.328 			"/>
			<polygon fill="#6CBAD4" points="658.711,244.328 682.236,203.582 705.762,244.328 			"/>
			<polygon fill="#6CBAD4" points="705.763,244.328 729.287,203.582 752.812,244.328 			"/>
			<polygon opacity="0.2" fill="#54DECD" points="752.813,244.328 729.288,285.076 705.764,244.328 			"/>
			<polygon fill="#6CBAD4" points="752.813,244.328 776.338,203.582 799.863,244.328 			"/>
			<polygon opacity="0.7" fill="#6CBAD4" points="799.864,244.328 776.339,285.076 752.815,244.328 			"/>
			<polygon opacity="0.7" fill="#6CBAD4" points="70.575,285.076 94.101,244.328 117.626,285.076 			"/>
			<polygon opacity="0.2" fill="#54DECD" points="117.627,285.076 94.102,325.822 70.576,285.076 			"/>
			<polygon opacity="0.7" fill="#6CBAD4" points="117.627,285.076 141.151,244.328 164.677,285.076 			"/>
			<polygon opacity="0.5" fill="#54DECD" points="164.678,285.076 141.152,325.822 117.627,285.076 			"/>
			<polygon opacity="0.7" fill="#6CBAD4" points="164.678,285.076 188.202,244.328 211.727,285.076 			"/>
			<polygon opacity="0.5" fill="#54DECD" points="211.727,285.076 235.253,244.328 258.777,285.076 			"/>
			<polygon opacity="0.7" fill="#6CBAD4" points="258.778,285.076 235.254,325.822 211.729,285.076 			"/>
			<polygon opacity="0.5" fill="#54DECD" points="258.778,285.076 282.304,244.328 305.828,285.076 			"/>
			<polygon opacity="0.5" fill="#54DECD" points="305.829,285.076 282.305,325.822 258.779,285.076 			"/>
			<polygon opacity="0.2" fill="#54DECD" points="305.829,285.076 329.354,244.328 352.879,285.076 			"/>
			<polygon opacity="0.7" fill="#6CBAD4" points="352.88,285.076 329.355,325.822 305.83,285.076 			"/>
			<polygon fill="#6CBAD4" points="352.88,285.076 376.405,244.328 399.931,285.076 			"/>
			<polygon opacity="0.7" fill="#6CBAD4" points="399.931,285.076 376.406,325.823 352.881,285.076 			"/>
			<polygon opacity="0.7" fill="#6CBAD4" points="399.931,285.076 423.456,244.328 446.981,285.076 			"/>
			<polygon opacity="0.7" fill="#6CBAD4" points="446.982,285.076 423.457,325.823 399.932,285.076 			"/>
			<polygon opacity="0.7" fill="#6CBAD4" points="446.982,285.076 470.507,244.328 494.032,285.076 			"/>
			<polygon opacity="0.2" fill="#54DECD" points="494.033,285.076 470.508,325.823 446.983,285.076 			"/>
			<polygon opacity="0.5" fill="#54DECD" points="494.033,285.076 517.558,244.328 541.083,285.076 			"/>
			<polygon opacity="0.7" fill="#6CBAD4" points="541.084,285.076 564.608,244.328 588.133,285.076 			"/>
			<polygon opacity="0.5" fill="#54DECD" points="588.135,285.076 564.609,325.823 541.085,285.076 			"/>
			<polygon opacity="0.7" fill="#6CBAD4" points="635.185,285.076 611.66,325.823 588.136,285.076 			"/>
			<polygon opacity="0.5" fill="#54DECD" points="635.185,285.076 658.71,244.328 682.235,285.076 			"/>
			<polygon opacity="0.7" fill="#6CBAD4" points="682.236,285.076 658.711,325.823 635.185,285.076 			"/>
			<polygon opacity="0.7" fill="#6CBAD4" points="682.236,285.076 705.761,244.328 729.286,285.076 			"/>
			<polygon fill="#6CBAD4" points="846.915,-163.014 823.39,-122.267 799.865,-163.014 			"/>
			<polygon fill="#46ABA4" points="893.966,-163.014 870.44,-122.267 846.916,-163.014 			"/>
			<polygon fill="#46ABA4" points="941.016,-163.014 917.491,-122.267 893.967,-163.014 			"/>
			<polygon fill="#46ABA4" points="988.067,-163.014 964.542,-122.267 941.017,-163.014 			"/>
			<polygon fill="#6795C1" points="1035.118,-163.014 1011.593,-122.267 988.068,-163.014 			"/>
			<polygon fill="#6795C1" points="823.389,-122.267 846.913,-163.014 870.438,-122.267 			"/>
			<polygon fill="#6CBAD4" points="870.44,-122.267 846.914,-81.519 823.39,-122.267 			"/>
			<polygon fill="#6795C1" points="870.44,-122.267 893.964,-163.014 917.488,-122.267 			"/>
			<polygon fill="#6795C1" points="917.489,-122.267 893.965,-81.519 870.44,-122.267 			"/>
			<polygon fill="#6795C1" points="917.489,-122.267 941.015,-163.014 964.54,-122.267 			"/>
			<polygon fill="#6795C1" points="964.541,-122.267 941.016,-81.519 917.49,-122.267 			"/>
			<polygon fill="#6795C1" points="964.541,-122.267 988.065,-163.014 1011.591,-122.267 			"/>
			<polygon fill="#6795C1" points="1011.592,-122.267 988.066,-81.519 964.542,-122.267 			"/>
			<polygon opacity="0.7" fill="#6CBAD4" points="799.864,-81.604 823.389,-122.352 846.914,-81.604 			"/>
			<polygon fill="#6795C1" points="846.915,-81.604 823.39,-40.857 799.865,-81.604 			"/>
			<polygon fill="#46ABA4" points="846.915,-81.604 870.44,-122.352 893.964,-81.604 			"/>
			<polygon fill="#6795C1" points="893.966,-81.604 870.44,-40.857 846.916,-81.604 			"/>
			<polygon fill="#46ABA4" points="893.966,-81.604 917.49,-122.352 941.015,-81.604 			"/>
			<polygon fill="#6795C1" points="941.016,-81.604 917.491,-40.857 893.967,-81.604 			"/>
			<polygon fill="#46ABA4" points="941.016,-81.604 964.541,-122.352 988.066,-81.604 			"/>
			<polygon fill="#6795C1" points="988.067,-81.604 964.542,-40.857 941.017,-81.604 			"/>
			<polygon fill="#46ABA4" points="988.067,-81.604 1011.592,-122.352 1035.117,-81.604 			"/>
			<polygon fill="#6795C1" points="1035.118,-81.604 1011.593,-40.857 988.068,-81.604 			"/>
			<polygon fill="#6CBAD4" points="823.389,-40.857 846.913,-81.604 870.438,-40.857 			"/>
			<polygon fill="#6795C1" points="870.44,-40.857 846.914,-0.11 823.39,-40.857 			"/>
			<polygon fill="#6CBAD4" points="870.44,-40.857 893.964,-81.604 917.488,-40.857 			"/>
			<polygon fill="#6CBAD4" points="917.489,-40.857 893.965,-0.11 870.44,-40.857 			"/>
			<polygon fill="#46ABA4" points="917.489,-40.857 941.015,-81.604 964.54,-40.857 			"/>
			<polygon fill="#6CBAD4" points="964.541,-40.857 941.016,-0.11 917.49,-40.857 			"/>
			<polygon fill="#6CBAD4" points="964.541,-40.857 988.065,-81.604 1011.591,-40.857 			"/>
			<polygon fill="#46ABA4" points="1011.592,-40.857 988.066,-0.11 964.542,-40.857 			"/>
			<polygon fill="#6CBAD4" points="799.864,-0.133 823.389,-40.88 846.914,-0.133 			"/>
			<polygon opacity="0.7" fill="#6CBAD4" points="846.915,-0.133 823.39,40.614 799.865,-0.133 			"/>
			<polygon fill="#46ABA4" points="846.915,-0.133 870.44,-40.88 893.964,-0.133 			"/>
			<polygon fill="#6CBAD4" points="893.966,-0.133 870.44,40.614 846.916,-0.133 			"/>
			<polygon fill="#6795C1" points="893.966,-0.133 917.49,-40.88 941.015,-0.133 			"/>
			<polygon fill="#46ABA4" points="941.016,-0.133 917.491,40.614 893.967,-0.133 			"/>
			<polygon fill="#6795C1" points="941.016,-0.133 964.541,-40.88 988.066,-0.133 			"/>
			<polygon fill="#46ABA4" points="988.067,-0.133 964.542,40.614 941.017,-0.133 			"/>
			<polygon fill="#6CBAD4" points="988.067,-0.133 1011.592,-40.88 1035.117,-0.133 			"/>
			<polygon fill="#6795C1" points="1035.118,-0.133 1011.593,40.614 988.068,-0.133 			"/>
			<polygon fill="#6795C1" points="823.389,40.614 846.913,-0.133 870.438,40.614 			"/>
			<polygon fill="#6CBAD4" points="870.44,40.614 846.914,81.361 823.39,40.614 			"/>
			<polygon fill="#6795C1" points="870.44,40.614 893.964,-0.133 917.488,40.614 			"/>
			<polygon fill="#6CBAD4" points="917.489,40.614 893.965,81.361 870.44,40.614 			"/>
			<polygon fill="#6CBAD4" points="917.489,40.614 941.015,-0.133 964.54,40.614 			"/>
			<polygon fill="#6795C1" points="964.541,40.614 941.016,81.361 917.49,40.614 			"/>
			<polygon fill="#6CBAD4" points="964.541,40.614 988.065,-0.133 1011.591,40.614 			"/>
			<polygon fill="#6795C1" points="1011.592,40.614 988.066,81.361 964.542,40.614 			"/>
			<polygon opacity="0.7" fill="#6CBAD4" points="799.864,81.381 823.389,40.634 846.914,81.381 			"/>
			<polygon fill="#6CBAD4" points="846.915,81.381 823.39,122.128 799.865,81.381 			"/>
			<polygon fill="#6795C1" points="846.915,81.381 870.44,40.634 893.964,81.381 			"/>
			<polygon fill="#46ABA4" points="893.966,81.381 870.44,122.128 846.916,81.381 			"/>
			<polygon opacity="0.7" fill="#6CBAD4" points="893.966,81.381 917.49,40.634 941.015,81.381 			"/>
			<polygon opacity="0.5" fill="#54DECD" points="941.016,81.381 917.491,122.128 893.967,81.381 			"/>
			<polygon opacity="0.7" fill="#6CBAD4" points="941.016,81.381 964.541,40.634 988.066,81.381 			"/>
			<polygon fill="#6CBAD4" points="988.067,81.381 964.542,122.128 941.017,81.381 			"/>
			<polygon fill="#6CBAD4" points="988.067,81.381 1011.592,40.634 1035.117,81.381 			"/>
			<polygon opacity="0.7" fill="#6CBAD4" points="823.389,122.128 846.913,81.381 870.438,122.128 			"/>
			<polygon fill="#6795C1" points="870.44,122.128 846.914,162.875 823.39,122.128 			"/>
			<polygon fill="#6CBAD4" points="870.44,122.128 893.964,81.381 917.488,122.128 			"/>
			<polygon opacity="0.5" fill="#54DECD" points="917.489,122.128 893.965,162.875 870.44,122.128 			"/>
			<polygon opacity="0.7" fill="#6CBAD4" points="917.489,122.128 941.015,81.381 964.54,122.128 			"/>
			<polygon fill="#6CBAD4" points="964.541,122.128 941.016,162.875 917.49,122.128 			"/>
			<polygon opacity="0.5" fill="#54DECD" points="964.541,122.128 988.065,81.381 1011.591,122.128 			"/>
			<polygon fill="#6CBAD4" points="1011.592,122.128 988.066,162.875 964.542,122.128 			"/>
			<polygon fill="#6CBAD4" points="799.864,162.852 823.389,122.106 846.914,162.852 			"/>
			<polygon opacity="0.5" fill="#54DECD" points="846.915,162.852 823.39,203.6 799.865,162.852 			"/>
			<polygon fill="#6CBAD4" points="846.915,162.852 870.44,122.106 893.964,162.853 			"/>
			<polygon opacity="0.5" fill="#54DECD" points="893.966,162.853 870.44,203.6 846.916,162.852 			"/>
			<polygon fill="#46ABA4" points="893.966,162.853 917.49,122.106 941.015,162.853 			"/>
			<polygon opacity="0.7" fill="#6CBAD4" points="941.016,162.853 917.491,203.6 893.967,162.853 			"/>
			<polygon opacity="0.5" fill="#54DECD" points="941.016,162.853 964.541,122.106 988.066,162.853 			"/>
			<polygon opacity="0.7" fill="#6CBAD4" points="988.067,162.853 1011.592,122.106 1035.117,162.853 			"/>
			<polygon fill="#6CBAD4" points="1035.118,162.853 1011.593,203.6 988.068,162.853 			"/>
			<polygon opacity="0.7" fill="#6CBAD4" points="823.389,203.6 846.913,162.852 870.438,203.6 			"/>
			<polygon fill="#6CBAD4" points="917.489,203.6 893.965,244.347 870.44,203.6 			"/>
			<polygon fill="#6CBAD4" points="917.489,203.6 941.015,162.853 964.54,203.6 			"/>
			<polygon opacity="0.5" fill="#54DECD" points="964.541,203.6 941.016,244.347 917.49,203.6 			"/>
			<polygon opacity="0.7" fill="#6CBAD4" points="964.541,203.6 988.065,162.853 1011.591,203.6 			"/>
			<polygon opacity="0.2" fill="#54DECD" points="1011.592,203.6 988.066,244.347 964.542,203.6 			"/>
			<polygon fill="#6CBAD4" points="799.864,244.328 823.389,203.582 846.914,244.328 			"/>
			<polygon opacity="0.5" fill="#54DECD" points="846.915,244.328 870.44,203.582 893.964,244.329 			"/>
			<polygon opacity="0.7" fill="#6CBAD4" points="941.016,244.329 917.491,285.076 893.967,244.329 			"/>
			<polygon opacity="0.7" fill="#6CBAD4" points="823.389,285.076 846.913,244.328 870.438,285.076 			"/>
			<polygon opacity="0.5" fill="#54DECD" points="729.287,285.076 705.762,325.823 682.237,285.076 			"/>
			<polygon opacity="0.7" fill="#6CBAD4" points="776.338,285.076 752.812,325.823 729.288,285.076 			"/>
			<polygon opacity="0.2" fill="#54DECD" points="141.153,325.842 164.678,285.094 188.203,325.842 			"/>
			<polygon opacity="0.7" fill="#6CBAD4" points="188.204,325.842 211.729,285.094 235.253,325.842 			"/>
			<polygon opacity="0.2" fill="#54DECD" points="235.254,325.842 258.779,285.094 282.304,325.842 			"/>
			<polygon opacity="0.7" fill="#6CBAD4" points="282.305,325.842 258.78,366.588 235.255,325.842 			"/>
			<polygon opacity="0.5" fill="#54DECD" points="329.355,325.842 305.831,366.588 282.306,325.842 			"/>
			<polygon opacity="0.2" fill="#54DECD" points="329.355,325.842 352.881,285.094 376.405,325.842 			"/>
			<polygon opacity="0.5" fill="#54DECD" points="376.406,325.842 352.882,366.589 329.356,325.842 			"/>
			<polygon opacity="0.2" fill="#54DECD" points="376.406,325.842 399.932,285.094 423.457,325.842 			"/>
			<polygon opacity="0.5" fill="#54DECD" points="423.457,325.842 399.933,366.589 376.407,325.842 			"/>
			<polygon opacity="0.5" fill="#54DECD" points="423.457,325.842 446.982,285.094 470.508,325.842 			"/>
			<polygon opacity="0.2" fill="#54DECD" points="470.509,325.842 446.983,366.589 423.458,325.842 			"/>
			<polygon opacity="0.7" fill="#6CBAD4" points="470.509,325.842 494.033,285.094 517.559,325.842 			"/>
			<polygon opacity="0.2" fill="#54DECD" points="517.56,325.842 541.084,285.094 564.609,325.842 			"/>
			<polygon opacity="0.7" fill="#6CBAD4" points="564.61,325.842 541.085,366.589 517.56,325.842 			"/>
			<polygon opacity="0.5" fill="#54DECD" points="611.661,325.842 588.136,366.589 564.611,325.842 			"/>
			<polygon opacity="0.2" fill="#54DECD" points="611.661,325.842 635.185,285.094 658.71,325.842 			"/>
			<polygon opacity="0.7" fill="#6CBAD4" points="117.627,366.588 141.151,325.842 164.677,366.588 			"/>
			<polygon opacity="0.7" fill="#6CBAD4" points="164.678,366.588 188.202,325.842 211.727,366.588 			"/>
			<polygon opacity="0.5" fill="#54DECD" points="211.727,366.588 235.253,325.842 258.777,366.588 			"/>
			<polygon opacity="0.2" fill="#54DECD" points="258.778,366.588 282.304,325.842 305.828,366.588 			"/>
			<polygon opacity="0.2" fill="#54DECD" points="352.88,366.589 329.355,407.336 305.83,366.588 			"/>
			<polygon opacity="0.2" fill="#54DECD" points="352.88,366.589 376.405,325.842 399.931,366.589 			"/>
			<polygon opacity="0.2" fill="#54DECD" points="399.931,366.589 423.456,325.842 446.981,366.589 			"/>
			<polygon opacity="0.5" fill="#54DECD" points="446.982,366.589 423.457,407.336 399.932,366.589 			"/>
			<polygon opacity="0.5" fill="#54DECD" points="446.982,366.589 470.507,325.842 494.032,366.589 			"/>
			<polygon opacity="0.7" fill="#6CBAD4" points="494.033,366.589 470.508,407.336 446.983,366.589 			"/>
			<polygon opacity="0.2" fill="#54DECD" points="494.033,366.589 517.558,325.842 541.083,366.589 			"/>
			<polygon opacity="0.7" fill="#6CBAD4" points="541.084,366.589 517.559,407.336 494.034,366.589 			"/>
			<polygon opacity="0.5" fill="#54DECD" points="588.135,366.589 564.609,407.336 541.085,366.589 			"/>
			<polygon opacity="0.2" fill="#54DECD" points="635.185,366.589 611.66,407.336 588.136,366.589 			"/>
			<polygon opacity="0.5" fill="#54DECD" points="635.185,366.589 658.71,325.842 682.235,366.589 			"/>
			<polygon opacity="0.7" fill="#6CBAD4" points="235.254,407.365 211.73,448.111 188.205,407.365 			"/>
			<polygon opacity="0.5" fill="#54DECD" points="235.254,407.365 258.779,366.617 282.304,407.365 			"/>
			<polygon opacity="0.5" fill="#54DECD" points="282.305,407.365 305.83,366.617 329.354,407.365 			"/>
			<polygon opacity="0.2" fill="#54DECD" points="329.355,407.365 305.831,448.111 282.306,407.365 			"/>
			<polygon opacity="0.5" fill="#54DECD" points="329.355,407.365 352.881,366.618 376.405,407.365 			"/>
			<polygon opacity="0.2" fill="#54DECD" points="376.406,407.365 399.932,366.618 423.457,407.365 			"/>
			<polygon opacity="0.5" fill="#54DECD" points="470.509,407.365 446.983,448.111 423.458,407.365 			"/>
			<polygon opacity="0.5" fill="#54DECD" points="470.509,407.365 494.033,366.618 517.559,407.365 			"/>
			<polygon opacity="0.5" fill="#54DECD" points="517.56,407.365 494.034,448.111 470.51,407.365 			"/>
			<polygon opacity="0.5" fill="#54DECD" points="352.88,448.111 329.355,488.859 305.83,448.111 			"/>
			<polygon opacity="0.5" fill="#54DECD" points="352.88,448.111 376.405,407.365 399.931,448.111 			"/>
			<polygon opacity="0.2" fill="#54DECD" points="399.931,448.111 376.406,488.859 352.881,448.111 			"/>
			<polygon opacity="0.2" fill="#54DECD" points="399.931,448.111 423.456,407.365 446.981,448.111 			"/>
			<polygon opacity="0.5" fill="#54DECD" points="494.033,448.111 470.508,488.859 446.983,448.111 			"/>
			<polygon opacity="0.2" fill="#54DECD" points="588.135,448.111 564.609,488.859 541.085,448.111 			"/>
		</g>
	</g>
</g>
<g id="objects">
</g>
</svg>
