<?xml version="1.0" encoding="utf-8"?>
<!-- Generator: Adobe Illustrator 19.0.0, SVG Export Plug-In . SVG Version: 6.00 Build 0)  -->
<svg version="1.1" id="Layer_1" xmlns="http://www.w3.org/2000/svg" xmlns:xlink="http://www.w3.org/1999/xlink" x="0px" y="0px"
	 viewBox="-566.5 1982.1 903.5 298.8" style="enable-background:new -566.5 1982.1 903.5 298.8;" xml:space="preserve">
<style type="text/css">
	.st0{fill-rule:evenodd;clip-rule:evenodd;fill:#333333;}
	.st1{fill-rule:evenodd;clip-rule:evenodd;fill:#666666;}
	.st2{fill-rule:evenodd;clip-rule:evenodd;fill:#FFFFFF;}
	.st3{fill-rule:evenodd;clip-rule:evenodd;fill:#444444;}
	.st4{fill:#104D7C;}
	.st5{fill:#A2D7E7;}
	.st6{fill:#E6E7E8;}
	.st7{fill:#A7A9AC;}
	.st8{fill:#F5F5F5;}
	.st9{fill:#4C8EB4;}
	.st10{fill:#609DC1;}
	.st11{fill:#73ACCD;}
	.st12{fill:#87BBDA;}
	.st13{fill:#9ACAE6;}
	.st14{fill:#CCCCCC;}
	.st15{fill:#FEC00F;}
	.st16{fill:#15B0BF;}
	.st17{fill:#00A295;}
	.st18{fill:#FF7C55;}
	.st19{fill:#2C465F;}
	.st20{fill:#333333;}
	.st21{fill:#666666;}
	.st22{fill:#444444;}
	.st23{fill:#421F0C;}
	.st24{fill:#502A14;}
	.st25{fill:#453F41;}
	.st26{fill:#888888;}
	.st27{fill:#312726;}
	.st28{fill:#414042;}
	.st29{fill:#3E8484;}
	.st30{fill:#E64717;}
	.st31{fill:#555555;}
	.st32{fill:#D1B354;}
	.st33{fill:#EEEEEE;}
	.st34{fill:#F7B03E;}
	.st35{fill:#FDC915;}
	.st36{fill:#F0B16C;}
	.st37{fill:#103754;}
	.st38{fill:#C62229;}
	.st39{fill:#F85A68;}
	.st40{fill:#000405;}
	.st41{fill:#71B2C8;}
	.st42{fill:#999999;}
</style>
<g id="Objects">
	<g id="Work_Space">
		<g id="laptop">
			<path class="st0" d="M-530.5,2110.7l188.3-43c2.4-0.6,4.8,1,5.4,3.4l27.9,122.1c0.6,2.4-1,4.8-3.4,5.4l-188.3,43
				c-2.4,0.6-4.8-1-5.4-3.4l-27.9-122.1C-534.5,2113.7-532.9,2111.3-530.5,2110.7z"/>
			<path class="st1" d="M-522,2108.8l10.9-2.5l1.4,6.2c0.1,0.6-0.2,1.1-0.8,1.3l-8.9,2c-0.6,0.1-1.1-0.2-1.3-0.8L-522,2108.8z"/>
			<path class="st1" d="M-361.7,2072.2l10.9-2.5l1.4,6.2c0.1,0.6-0.2,1.1-0.8,1.3l-8.9,2c-0.6,0.1-1.1-0.2-1.3-0.8L-361.7,2072.2z"
				/>
			<path class="st0" d="M-562,2057l224.3-51.3c5.4-1.2,7.6,0.9,6.2,4.9l-7.4,54l-196.6,44.9l-27.4-42.9
				C-567.9,2061.6-567.9,2058.3-562,2057z"/>
			<polygon class="st2" points="-342.2,2016.2 -346.1,2062.1 -529.8,2104 -553.4,2064.4 			"/>
			<path class="st1" d="M-563,2058.1l227.4-51.9c0.5-0.1,1,0.2,1.1,0.7l0,0c0.1,0.5-0.2,1-0.7,1.1l-227.4,51.9
				c-0.5,0.1-1-0.2-1.1-0.7l0,0C-563.8,2058.7-563.5,2058.2-563,2058.1z"/>
			<path class="st0" d="M-521.7,2102.8l7.8-1.8c0.5-0.1,1,0.2,1.1,0.7l2.1,9.2c0.1,0.5-0.2,1-0.7,1.1l-7.8,1.8
				c-0.5,0.1-1-0.2-1.1-0.7l-2.1-9.2C-522.5,2103.4-522.2,2102.9-521.7,2102.8z"/>
			<path class="st0" d="M-361.4,2066.1l7.8-1.8c0.5-0.1,1,0.2,1.1,0.7l2.1,9.2c0.1,0.5-0.2,1-0.7,1.1l-7.8,1.8
				c-0.5,0.1-1-0.2-1.1-0.7l-2.1-9.2C-362.2,2066.8-361.9,2066.3-361.4,2066.1z"/>
			<path class="st3" d="M-353,2088.5l6.1-1.4c0.7-0.2,1.4,0.3,1.5,1l1,4.5c0.2,0.7-0.3,1.4-1,1.5l-6.1,1.4c-0.7,0.2-1.4-0.3-1.5-1
				l-1-4.5C-354.1,2089.4-353.7,2088.7-353,2088.5z"/>
			<path class="st3" d="M-350.7,2097.1l5.5-1.3c0.8-0.2,1.7,0.3,1.9,1.2l1.4,6.1c0.2,0.8-0.3,1.7-1.2,1.9l-5.5,1.3
				c-0.8,0.2-1.7-0.3-1.9-1.2l-1.4-6.1C-352.1,2098.1-351.6,2097.3-350.7,2097.1z"/>
			<path class="st3" d="M-348.3,2107.9l5.5-1.3c0.8-0.2,1.7,0.3,1.9,1.2l1.4,6.1c0.2,0.8-0.3,1.7-1.2,1.9l-5.5,1.3
				c-0.8,0.2-1.7-0.3-1.9-1.2l-1.4-6.1C-349.7,2108.9-349.1,2108.1-348.3,2107.9z"/>
			<path class="st3" d="M-345.8,2118.7l5.5-1.3c0.8-0.2,1.7,0.3,1.9,1.2l1.4,6.1c0.2,0.8-0.3,1.7-1.2,1.9l-5.5,1.3
				c-0.8,0.2-1.7-0.3-1.9-1.2l-1.4-6.1C-347.2,2119.7-346.7,2118.9-345.8,2118.7z"/>
			<path class="st3" d="M-343.4,2129.4l5.5-1.3c0.8-0.2,1.7,0.3,1.9,1.2l1.4,6.1c0.2,0.8-0.3,1.7-1.2,1.9l-5.5,1.3
				c-0.8,0.2-1.7-0.3-1.9-1.2l-1.4-6.1C-344.7,2130.5-344.2,2129.6-343.4,2129.4z"/>
			<path class="st3" d="M-340.9,2140.2l5.5-1.3c0.8-0.2,1.7,0.3,1.9,1.2l1.4,6.1c0.2,0.8-0.3,1.7-1.2,1.9l-5.5,1.3
				c-0.8,0.2-1.7-0.3-1.9-1.2l-1.4-6.1C-342.3,2141.3-341.7,2140.4-340.9,2140.2z"/>
			<path class="st3" d="M-363.7,2091l6.1-1.4c0.7-0.2,1.4,0.3,1.5,1l1,4.5c0.2,0.7-0.3,1.4-1,1.5l-6.1,1.4c-0.7,0.2-1.4-0.3-1.5-1
				l-1-4.5C-364.9,2091.8-364.4,2091.2-363.7,2091z"/>
			<path class="st3" d="M-371.3,2101.8l15.2-3.5c0.9-0.2,1.8,0.4,2,1.3l1.4,5.9c0.2,0.9-0.4,1.8-1.3,2l-15.2,3.5
				c-0.9,0.2-1.8-0.4-2-1.3l-1.3-5.9C-372.8,2102.9-372.2,2102-371.3,2101.8z"/>
			<path class="st3" d="M-361.9,2111l8.2-1.9c0.9-0.2,1.8,0.4,2,1.3l1.3,5.9c0.2,0.9-0.4,1.8-1.3,2l-8.2,1.9c-0.9,0.2-1.8-0.4-2-1.3
				l-1.4-5.9C-363.3,2112.1-362.8,2111.2-361.9,2111z"/>
			<path class="st3" d="M-367.6,2123.6l16.4-3.8c0.9-0.2,1.8,0.4,2,1.3l1.4,5.9c0.2,0.9-0.4,1.8-1.3,2l-16.4,3.8
				c-0.9,0.2-1.8-0.4-2-1.3l-1.4-5.9C-369.1,2124.8-368.5,2123.8-367.6,2123.6z"/>
			<path class="st3" d="M-354.1,2131.9l5.5-1.3c0.8-0.2,1.7,0.3,1.9,1.2l1.4,6.1c0.2,0.8-0.3,1.7-1.2,1.9l-5.5,1.3
				c-0.8,0.2-1.7-0.3-1.9-1.2l-1.4-6.1C-355.5,2132.9-354.9,2132.1-354.1,2131.9z"/>
			<path class="st3" d="M-351.6,2142.7l5.5-1.3c0.8-0.2,1.7,0.3,1.9,1.2l1.4,6.1c0.2,0.8-0.3,1.7-1.2,1.9l-5.5,1.3
				c-0.8,0.2-1.7-0.3-1.9-1.2l-1.4-6.1C-353,2143.7-352.5,2142.9-351.6,2142.7z"/>
			<path class="st3" d="M-373.7,2093.3l5.3-1.2c0.7-0.2,1.4,0.3,1.5,1l1,4.5c0.2,0.7-0.3,1.4-1,1.5l-5.3,1.2c-0.7,0.2-1.4-0.3-1.5-1
				l-1-4.5C-374.8,2094.1-374.4,2093.4-373.7,2093.3z"/>
			<path class="st3" d="M-383.8,2095.6l5.3-1.2c0.7-0.2,1.4,0.3,1.5,1l1,4.5c0.2,0.7-0.3,1.4-1,1.5l-5.3,1.2c-0.7,0.2-1.4-0.3-1.5-1
				l-1-4.5C-384.9,2096.4-384.4,2095.7-383.8,2095.6z"/>
			<path class="st3" d="M-393.8,2097.9l5.3-1.2c0.7-0.2,1.4,0.3,1.5,1l1,4.5c0.2,0.7-0.3,1.4-1,1.5l-5.3,1.2c-0.7,0.2-1.4-0.3-1.5-1
				l-1-4.5C-395,2098.7-394.5,2098-393.8,2097.9z"/>
			<path class="st3" d="M-403.9,2100.2l5.3-1.2c0.7-0.2,1.4,0.3,1.5,1l1,4.5c0.2,0.7-0.3,1.4-1,1.5l-5.3,1.2c-0.7,0.2-1.4-0.3-1.5-1
				l-1-4.5C-405.1,2101-404.6,2100.3-403.9,2100.2z"/>
			<path class="st3" d="M-414,2102.5l5.3-1.2c0.7-0.2,1.4,0.3,1.5,1l1,4.5c0.2,0.7-0.3,1.4-1,1.5l-5.3,1.2c-0.7,0.2-1.4-0.3-1.5-1
				l-1-4.5C-415.1,2103.3-414.7,2102.6-414,2102.5z"/>
			<path class="st3" d="M-424.1,2104.8l5.3-1.2c0.7-0.2,1.4,0.3,1.5,1l1,4.5c0.2,0.7-0.3,1.4-1,1.5l-5.3,1.2c-0.7,0.2-1.4-0.3-1.5-1
				l-1-4.5C-425.2,2105.6-424.8,2104.9-424.1,2104.8z"/>
			<path class="st3" d="M-434.2,2107.1l5.3-1.2c0.7-0.2,1.4,0.3,1.5,1l1,4.5c0.2,0.7-0.3,1.4-1,1.5l-5.3,1.2c-0.7,0.2-1.4-0.3-1.5-1
				l-1-4.5C-435.3,2107.9-434.9,2107.2-434.2,2107.1z"/>
			<path class="st3" d="M-444.3,2109.4l5.3-1.2c0.7-0.2,1.4,0.3,1.5,1l1,4.5c0.2,0.7-0.3,1.4-1,1.5l-5.3,1.2c-0.7,0.2-1.4-0.3-1.5-1
				l-1-4.5C-445.4,2110.2-445,2109.5-444.3,2109.4z"/>
			<path class="st3" d="M-454.4,2111.7l5.3-1.2c0.7-0.2,1.4,0.3,1.5,1l1,4.5c0.2,0.7-0.3,1.4-1,1.5l-5.3,1.2c-0.7,0.2-1.4-0.3-1.5-1
				l-1-4.5C-455.5,2112.5-455,2111.9-454.4,2111.7z"/>
			<path class="st3" d="M-464.4,2114l5.3-1.2c0.7-0.2,1.4,0.3,1.5,1l1,4.5c0.2,0.7-0.3,1.4-1,1.5l-5.3,1.2c-0.7,0.2-1.4-0.3-1.5-1
				l-1-4.5C-465.6,2114.9-465.1,2114.2-464.4,2114z"/>
			<path class="st3" d="M-474.5,2116.3l5.3-1.2c0.7-0.2,1.4,0.3,1.5,1l1,4.5c0.2,0.7-0.3,1.4-1,1.5l-5.3,1.2c-0.7,0.2-1.4-0.3-1.5-1
				l-1-4.5C-475.7,2117.2-475.2,2116.5-474.5,2116.3z"/>
			<path class="st3" d="M-484.6,2118.6l5.3-1.2c0.7-0.2,1.4,0.3,1.5,1l1,4.5c0.2,0.7-0.3,1.4-1,1.5l-5.3,1.2c-0.7,0.2-1.4-0.3-1.5-1
				l-1-4.5C-485.7,2119.5-485.3,2118.8-484.6,2118.6z"/>
			<path class="st3" d="M-494.7,2120.9l5.3-1.2c0.7-0.2,1.4,0.3,1.5,1l1,4.5c0.2,0.7-0.3,1.4-1,1.5l-5.3,1.2c-0.7,0.2-1.4-0.3-1.5-1
				l-1-4.5C-495.8,2121.8-495.4,2121.1-494.7,2120.9z"/>
			<path class="st3" d="M-504.8,2123.2l5.3-1.2c0.7-0.2,1.4,0.3,1.5,1l1,4.5c0.2,0.7-0.3,1.4-1,1.5l-5.3,1.2c-0.7,0.2-1.4-0.3-1.5-1
				l-1-4.5C-505.9,2124.1-505.5,2123.4-504.8,2123.2z"/>
			<path class="st3" d="M-516.1,2125.8l6.1-1.4c0.7-0.2,1.4,0.3,1.5,1l1,4.5c0.2,0.7-0.3,1.4-1,1.5l-6.1,1.4c-0.7,0.2-1.4-0.3-1.5-1
				l-1-4.5C-517.2,2126.7-516.8,2126-516.1,2125.8z"/>
			<path class="st3" d="M-382.2,2104.3l5.4-1.2c0.8-0.2,1.7,0.3,1.9,1.2l1.4,6.2c0.2,0.8-0.3,1.7-1.2,1.9l-5.4,1.2
				c-0.8,0.2-1.7-0.3-1.9-1.2l-1.4-6.2C-383.5,2105.3-383,2104.5-382.2,2104.3z"/>
			<path class="st3" d="M-393.1,2106.8l5.4-1.2c0.8-0.2,1.7,0.3,1.9,1.2l1.4,6.2c0.2,0.8-0.3,1.7-1.2,1.9l-5.4,1.2
				c-0.8,0.2-1.7-0.3-1.9-1.2l-1.4-6.2C-394.5,2107.8-394,2107-393.1,2106.8z"/>
			<path class="st3" d="M-404.1,2109.3l5.4-1.2c0.8-0.2,1.7,0.3,1.9,1.2l1.4,6.2c0.2,0.8-0.3,1.7-1.2,1.9l-5.4,1.2
				c-0.8,0.2-1.7-0.3-1.9-1.2l-1.4-6.2C-405.4,2110.3-404.9,2109.5-404.1,2109.3z"/>
			<path class="st3" d="M-415,2111.8l5.4-1.2c0.8-0.2,1.7,0.3,1.9,1.2l1.4,6.2c0.2,0.8-0.3,1.7-1.2,1.9l-5.4,1.2
				c-0.8,0.2-1.7-0.3-1.9-1.2l-1.4-6.2C-416.4,2112.8-415.9,2112-415,2111.8z"/>
			<path class="st3" d="M-426,2114.3l5.4-1.2c0.8-0.2,1.7,0.3,1.9,1.2l1.4,6.2c0.2,0.8-0.3,1.7-1.2,1.9l-5.4,1.2
				c-0.8,0.2-1.7-0.3-1.9-1.2l-1.4-6.2C-427.3,2115.3-426.8,2114.5-426,2114.3z"/>
			<path class="st3" d="M-436.9,2116.8l5.4-1.2c0.8-0.2,1.7,0.3,1.9,1.2l1.4,6.2c0.2,0.8-0.3,1.7-1.2,1.9l-5.4,1.2
				c-0.8,0.2-1.7-0.3-1.9-1.2l-1.4-6.2C-438.3,2117.8-437.7,2117-436.9,2116.8z"/>
			<path class="st3" d="M-447.9,2119.3l5.4-1.2c0.8-0.2,1.7,0.3,1.9,1.2l1.4,6.2c0.2,0.8-0.3,1.7-1.2,1.9l-5.4,1.2
				c-0.8,0.2-1.7-0.3-1.9-1.2l-1.4-6.2C-449.2,2120.3-448.7,2119.5-447.9,2119.3z"/>
			<path class="st3" d="M-458.8,2121.8l5.4-1.2c0.8-0.2,1.7,0.3,1.9,1.2l1.4,6.2c0.2,0.8-0.3,1.7-1.2,1.9l-5.4,1.2
				c-0.8,0.2-1.7-0.3-1.9-1.2l-1.4-6.2C-460.1,2122.8-459.6,2122-458.8,2121.8z"/>
			<path class="st3" d="M-469.7,2124.3l5.4-1.2c0.8-0.2,1.7,0.3,1.9,1.2l1.4,6.2c0.2,0.8-0.3,1.7-1.2,1.9l-5.4,1.2
				c-0.8,0.2-1.7-0.3-1.8-1.2l-1.4-6.2C-471.1,2125.3-470.6,2124.5-469.7,2124.3z"/>
			<path class="st3" d="M-480.7,2126.8l5.4-1.2c0.8-0.2,1.7,0.3,1.9,1.2l1.4,6.2c0.2,0.8-0.3,1.7-1.2,1.9l-5.4,1.2
				c-0.8,0.2-1.7-0.3-1.9-1.2l-1.4-6.2C-482,2127.8-481.5,2127-480.7,2126.8z"/>
			<path class="st3" d="M-491.6,2129.3l5.4-1.2c0.8-0.2,1.7,0.3,1.9,1.2l1.4,6.2c0.2,0.8-0.3,1.7-1.2,1.9l-5.4,1.2
				c-0.8,0.2-1.7-0.3-1.8-1.2l-1.4-6.2C-493,2130.3-492.4,2129.5-491.6,2129.3z"/>
			<path class="st3" d="M-502.6,2131.8l5.4-1.2c0.8-0.2,1.7,0.3,1.9,1.2l1.4,6.2c0.2,0.8-0.3,1.7-1.2,1.9l-5.4,1.2
				c-0.8,0.2-1.7-0.3-1.9-1.2l-1.4-6.2C-503.9,2132.8-503.4,2132-502.6,2131.8z"/>
			<path class="st3" d="M-513.9,2134.4l5.5-1.3c0.8-0.2,1.7,0.3,1.9,1.2l1.4,6.1c0.2,0.8-0.3,1.7-1.2,1.9l-5.5,1.3
				c-0.8,0.2-1.7-0.3-1.9-1.2l-1.4-6.1C-515.2,2135.4-514.7,2134.6-513.9,2134.4z"/>
			<path class="st3" d="M-511.3,2145.1l11.4-2.6c0.9-0.2,1.8,0.4,2,1.3l1.3,5.9c0.2,0.9-0.4,1.8-1.3,2l-11.4,2.6
				c-0.9,0.2-1.8-0.4-2-1.3l-1.4-5.9C-512.8,2146.2-512.2,2145.3-511.3,2145.1z"/>
			<path class="st3" d="M-508.8,2155.9l13.5-3.1c0.9-0.2,1.8,0.4,2,1.3l1.3,5.9c0.2,0.9-0.4,1.8-1.3,2l-13.5,3.1
				c-0.9,0.2-1.8-0.4-2-1.3l-1.3-5.9C-510.3,2157-509.7,2156.1-508.8,2155.9z"/>
			<path class="st3" d="M-506.4,2166.7l19.4-4.4c0.9-0.2,1.8,0.4,2,1.3l1.3,5.9c0.2,0.9-0.4,1.8-1.3,2l-19.4,4.4
				c-0.9,0.2-1.8-0.4-2-1.3l-1.3-5.9C-507.8,2167.8-507.3,2166.9-506.4,2166.7z"/>
			<path class="st3" d="M-503.9,2177.5l8-1.8c0.9-0.2,1.8,0.4,2,1.3l1.3,5.9c0.2,0.9-0.4,1.8-1.3,2l-8,1.8c-0.9,0.2-1.8-0.4-2-1.3
				l-1.3-5.9C-505.4,2178.6-504.8,2177.7-503.9,2177.5z"/>
			<path class="st3" d="M-495.3,2141.5l5.8-1.3c0.9-0.2,1.8,0.4,2,1.2l1.4,6c0.2,0.9-0.4,1.8-1.2,2l-5.8,1.3c-0.9,0.2-1.8-0.4-2-1.2
				l-1.4-6C-496.8,2142.6-496.2,2141.7-495.3,2141.5z"/>
			<path class="st3" d="M-484.2,2138.9l5.8-1.3c0.9-0.2,1.8,0.4,2,1.2l1.4,6c0.2,0.9-0.4,1.8-1.2,2l-5.8,1.3c-0.9,0.2-1.8-0.4-2-1.2
				l-1.4-6C-485.6,2140-485,2139.1-484.2,2138.9z"/>
			<path class="st3" d="M-473,2136.4l5.8-1.3c0.9-0.2,1.8,0.4,2,1.2l1.4,6c0.2,0.9-0.4,1.8-1.2,2l-5.8,1.3c-0.9,0.2-1.8-0.4-2-1.2
				l-1.4-6C-474.5,2137.5-473.9,2136.6-473,2136.4z"/>
			<path class="st3" d="M-461.9,2133.8l5.8-1.3c0.9-0.2,1.8,0.4,2,1.2l1.4,6c0.2,0.9-0.4,1.8-1.2,2l-5.8,1.3c-0.9,0.2-1.8-0.4-2-1.2
				l-1.4-6C-463.3,2134.9-462.7,2134-461.9,2133.8z"/>
			<path class="st3" d="M-450.7,2131.3l5.8-1.3c0.9-0.2,1.8,0.4,2,1.2l1.4,6c0.2,0.9-0.4,1.8-1.2,2l-5.8,1.3c-0.9,0.2-1.8-0.4-2-1.2
				l-1.4-6C-452.2,2132.4-451.6,2131.5-450.7,2131.3z"/>
			<path class="st3" d="M-439.6,2128.7l5.8-1.3c0.9-0.2,1.8,0.4,2,1.2l1.4,6c0.2,0.9-0.4,1.8-1.2,2l-5.8,1.3c-0.9,0.2-1.8-0.4-2-1.2
				l-1.4-6C-441,2129.8-440.5,2128.9-439.6,2128.7z"/>
			<path class="st3" d="M-428.4,2126.2l5.8-1.3c0.9-0.2,1.8,0.4,2,1.2l1.4,6c0.2,0.9-0.4,1.8-1.2,2l-5.8,1.3c-0.9,0.2-1.8-0.4-2-1.2
				l-1.4-6C-429.9,2127.3-429.3,2126.4-428.4,2126.2z"/>
			<path class="st3" d="M-417.3,2123.6l5.8-1.3c0.9-0.2,1.8,0.4,2,1.2l1.4,6c0.2,0.9-0.4,1.8-1.2,2l-5.8,1.3c-0.9,0.2-1.8-0.4-2-1.2
				l-1.4-6C-418.7,2124.7-418.2,2123.8-417.3,2123.6z"/>
			<path class="st3" d="M-406.1,2121.1l5.8-1.3c0.9-0.2,1.8,0.4,2,1.2l1.4,6c0.2,0.9-0.4,1.8-1.2,2l-5.8,1.3c-0.9,0.2-1.8-0.4-2-1.2
				l-1.4-6C-407.6,2122.2-407,2121.3-406.1,2121.1z"/>
			<path class="st3" d="M-395,2118.5l5.8-1.3c0.9-0.2,1.8,0.4,2,1.2l1.4,6c0.2,0.9-0.4,1.8-1.2,2l-5.8,1.3c-0.9,0.2-1.8-0.4-2-1.2
				l-1.4-6C-396.4,2119.6-395.9,2118.7-395,2118.5z"/>
			<path class="st3" d="M-383.8,2116l5.8-1.3c0.9-0.2,1.8,0.4,2,1.2l1.4,6c0.2,0.9-0.4,1.8-1.2,2l-5.8,1.3c-0.9,0.2-1.8-0.4-2-1.2
				l-1.4-6C-385.3,2117.1-384.7,2116.2-383.8,2116z"/>
			<path class="st3" d="M-372.7,2113.5l5.8-1.3c0.9-0.2,1.8,0.4,2,1.2l1.4,6c0.2,0.9-0.4,1.8-1.2,2l-5.8,1.3c-0.9,0.2-1.8-0.4-2-1.2
				l-1.4-6C-374.1,2114.5-373.6,2113.7-372.7,2113.5z"/>
			<path class="st3" d="M-489.7,2151.5l5.8-1.3c0.9-0.2,1.8,0.4,2,1.2l1.4,6c0.2,0.9-0.4,1.8-1.2,2l-5.8,1.3c-0.9,0.2-1.8-0.4-2-1.2
				l-1.4-6C-491.2,2152.6-490.6,2151.7-489.7,2151.5z"/>
			<path class="st3" d="M-478.6,2149l5.8-1.3c0.9-0.2,1.8,0.4,2,1.2l1.4,6c0.2,0.9-0.4,1.8-1.2,2l-5.8,1.3c-0.9,0.2-1.8-0.4-2-1.2
				l-1.4-6C-480,2150.1-479.5,2149.2-478.6,2149z"/>
			<path class="st3" d="M-467.4,2146.5l5.8-1.3c0.9-0.2,1.8,0.4,2,1.2l1.4,6c0.2,0.9-0.4,1.8-1.2,2l-5.8,1.3c-0.9,0.2-1.8-0.4-2-1.2
				l-1.4-6C-468.9,2147.5-468.3,2146.7-467.4,2146.5z"/>
			<path class="st3" d="M-456.3,2143.9l5.8-1.3c0.9-0.2,1.8,0.4,2,1.2l1.4,6c0.2,0.9-0.4,1.8-1.2,2l-5.8,1.3c-0.9,0.2-1.8-0.4-2-1.2
				l-1.4-6C-457.7,2145-457.2,2144.1-456.3,2143.9z"/>
			<path class="st3" d="M-445.1,2141.4l5.8-1.3c0.9-0.2,1.8,0.4,2,1.2l1.4,6c0.2,0.9-0.4,1.8-1.2,2l-5.8,1.3c-0.9,0.2-1.8-0.4-2-1.2
				l-1.4-6C-446.6,2142.4-446,2141.6-445.1,2141.4z"/>
			<path class="st3" d="M-434,2138.8l5.8-1.3c0.9-0.2,1.8,0.4,2,1.2l1.4,6c0.2,0.9-0.4,1.8-1.2,2l-5.8,1.3c-0.9,0.2-1.8-0.4-2-1.2
				l-1.4-6C-435.4,2139.9-434.9,2139-434,2138.8z"/>
			<path class="st3" d="M-422.8,2136.3l5.8-1.3c0.9-0.2,1.8,0.4,2,1.2l1.4,6c0.2,0.9-0.4,1.8-1.2,2l-5.8,1.3c-0.9,0.2-1.8-0.4-2-1.2
				l-1.4-6C-424.3,2137.4-423.7,2136.5-422.8,2136.3z"/>
			<path class="st3" d="M-411.7,2133.7l5.8-1.3c0.9-0.2,1.8,0.4,2,1.2l1.4,6c0.2,0.9-0.4,1.8-1.2,2l-5.8,1.3c-0.9,0.2-1.8-0.4-2-1.2
				l-1.4-6C-413.1,2134.8-412.6,2133.9-411.7,2133.7z"/>
			<path class="st3" d="M-400.6,2131.2l5.8-1.3c0.9-0.2,1.8,0.4,2,1.2l1.4,6c0.2,0.9-0.4,1.8-1.2,2l-5.8,1.3c-0.9,0.2-1.8-0.4-2-1.2
				l-1.4-6C-402,2132.3-401.4,2131.4-400.6,2131.2z"/>
			<path class="st3" d="M-389.4,2128.6l5.8-1.3c0.9-0.2,1.8,0.4,2,1.2l1.4,6c0.2,0.9-0.4,1.8-1.2,2l-5.8,1.3c-0.9,0.2-1.8-0.4-2-1.2
				l-1.4-6C-390.9,2129.7-390.3,2128.8-389.4,2128.6z"/>
			<path class="st3" d="M-378.3,2126.1l5.8-1.3c0.9-0.2,1.8,0.4,2,1.2l1.4,6c0.2,0.9-0.4,1.8-1.2,2l-5.8,1.3c-0.9,0.2-1.8-0.4-2-1.2
				l-1.4-6C-379.7,2127.2-379.1,2126.3-378.3,2126.1z"/>
			<path class="st3" d="M-481.4,2161l5.8-1.3c0.9-0.2,1.8,0.4,2,1.2l1.4,6c0.2,0.9-0.4,1.8-1.2,2l-5.8,1.3c-0.9,0.2-1.8-0.4-2-1.2
				l-1.4-6C-482.9,2162.1-482.3,2161.2-481.4,2161z"/>
			<path class="st3" d="M-470.3,2158.4l5.8-1.3c0.9-0.2,1.8,0.4,2,1.2l1.4,6c0.2,0.9-0.4,1.8-1.2,2l-5.8,1.3c-0.9,0.2-1.8-0.4-2-1.2
				l-1.4-6C-471.7,2159.5-471.2,2158.6-470.3,2158.4z"/>
			<path class="st3" d="M-459.1,2155.9l5.8-1.3c0.9-0.2,1.8,0.4,2,1.2l1.4,6c0.2,0.9-0.4,1.8-1.2,2l-5.8,1.3c-0.9,0.2-1.8-0.4-2-1.2
				l-1.4-6C-460.6,2157-460,2156.1-459.1,2155.9z"/>
			<path class="st3" d="M-448,2153.4l5.8-1.3c0.9-0.2,1.8,0.4,2,1.2l1.4,6c0.2,0.9-0.4,1.8-1.2,2l-5.8,1.3c-0.9,0.2-1.8-0.4-2-1.2
				l-1.4-6C-449.4,2154.4-448.9,2153.6-448,2153.4z"/>
			<path class="st3" d="M-436.8,2150.8l5.8-1.3c0.9-0.2,1.8,0.4,2,1.2l1.4,6c0.2,0.9-0.4,1.8-1.2,2l-5.8,1.3c-0.9,0.2-1.8-0.4-2-1.2
				l-1.4-6C-438.3,2151.9-437.7,2151-436.8,2150.8z"/>
			<path class="st3" d="M-425.7,2148.3l5.8-1.3c0.9-0.2,1.8,0.4,2,1.2l1.4,6c0.2,0.9-0.4,1.8-1.2,2l-5.8,1.3c-0.9,0.2-1.8-0.4-2-1.2
				l-1.4-6C-427.1,2149.4-426.6,2148.5-425.7,2148.3z"/>
			<path class="st3" d="M-414.5,2145.7l5.8-1.3c0.9-0.2,1.8,0.4,2,1.2l1.4,6c0.2,0.9-0.4,1.8-1.2,2l-5.8,1.3c-0.9,0.2-1.8-0.4-2-1.2
				l-1.4-6C-416,2146.8-415.4,2145.9-414.5,2145.7z"/>
			<path class="st3" d="M-403.4,2143.2l5.8-1.3c0.9-0.2,1.8,0.4,2,1.2l1.4,6c0.2,0.9-0.4,1.8-1.2,2l-5.8,1.3c-0.9,0.2-1.8-0.4-2-1.2
				l-1.4-6C-404.9,2144.3-404.3,2143.4-403.4,2143.2z"/>
			<path class="st3" d="M-392.3,2140.6l5.8-1.3c0.9-0.2,1.8,0.4,2,1.2l1.4,6c0.2,0.9-0.4,1.8-1.2,2l-5.8,1.3c-0.9,0.2-1.8-0.4-2-1.2
				l-1.4-6C-393.7,2141.7-393.1,2140.8-392.3,2140.6z"/>
			<path class="st3" d="M-381.1,2138.1l5.8-1.3c0.9-0.2,1.8,0.4,2,1.2l1.4,6c0.2,0.9-0.4,1.8-1.2,2l-5.8,1.3c-0.9,0.2-1.8-0.4-2-1.2
				l-1.4-6C-382.6,2139.2-382,2138.3-381.1,2138.1z"/>
			<path class="st3" d="M-369.9,2135.5l10.5-2.4c0.9-0.2,1.8,0.4,2,1.3l1.4,5.9c0.2,0.9-0.4,1.8-1.3,2l-10.5,2.4
				c-0.9,0.2-1.8-0.4-2-1.3l-1.4-5.9C-371.4,2136.6-370.8,2135.7-369.9,2135.5z"/>
			<path class="st3" d="M-490.3,2174.4l5.8-1.3c0.9-0.2,1.8,0.4,2,1.2l1.4,6c0.2,0.9-0.4,1.8-1.2,2l-5.8,1.3c-0.9,0.2-1.8-0.4-2-1.2
				l-1.4-6C-491.8,2175.5-491.2,2174.6-490.3,2174.4z"/>
			<path class="st3" d="M-479.2,2171.8l5.8-1.3c0.9-0.2,1.8,0.4,2,1.2l1.4,6c0.2,0.9-0.4,1.8-1.2,2l-5.8,1.3c-0.9,0.2-1.8-0.4-2-1.2
				l-1.4-6C-480.6,2172.9-480,2172-479.2,2171.8z"/>
			<path class="st3" d="M-468,2169.3l5.8-1.3c0.9-0.2,1.8,0.4,2,1.2l1.4,6c0.2,0.9-0.4,1.8-1.2,2l-5.8,1.3c-0.9,0.2-1.8-0.4-2-1.2
				l-1.4-6C-469.5,2170.4-468.9,2169.5-468,2169.3z"/>
			<path class="st3" d="M-456.9,2166.7l5.8-1.3c0.9-0.2,1.8,0.4,2,1.2l1.4,6c0.2,0.9-0.4,1.8-1.2,2l-5.8,1.3c-0.9,0.2-1.8-0.4-2-1.2
				l-1.4-6C-458.3,2167.8-457.7,2166.9-456.9,2166.7z"/>
			<path class="st3" d="M-445.7,2164.2l5.8-1.3c0.9-0.2,1.8,0.4,2,1.2l1.4,6c0.2,0.9-0.4,1.8-1.2,2l-5.8,1.3c-0.9,0.2-1.8-0.4-2-1.2
				l-1.4-6C-447.2,2165.3-446.6,2164.4-445.7,2164.2z"/>
			<path class="st3" d="M-434.6,2161.6l5.8-1.3c0.9-0.2,1.8,0.4,2,1.2l1.4,6c0.2,0.9-0.4,1.8-1.2,2l-5.8,1.3c-0.9,0.2-1.8-0.4-2-1.2
				l-1.4-6C-436,2162.7-435.5,2161.8-434.6,2161.6z"/>
			<path class="st3" d="M-423.4,2159.1l5.8-1.3c0.9-0.2,1.8,0.4,2,1.2l1.4,6c0.2,0.9-0.4,1.8-1.2,2l-5.8,1.3c-0.9,0.2-1.8-0.4-2-1.2
				l-1.4-6C-424.9,2160.2-424.3,2159.3-423.4,2159.1z"/>
			<path class="st3" d="M-412.3,2156.5l5.8-1.3c0.9-0.2,1.8,0.4,2,1.2l1.4,6c0.2,0.9-0.4,1.8-1.2,2l-5.8,1.3c-0.9,0.2-1.8-0.4-2-1.2
				l-1.4-6C-413.7,2157.6-413.2,2156.7-412.3,2156.5z"/>
			<path class="st3" d="M-401.1,2154l5.8-1.3c0.9-0.2,1.8,0.4,2,1.2l1.4,6c0.2,0.9-0.4,1.8-1.2,2l-5.8,1.3c-0.9,0.2-1.8-0.4-2-1.2
				l-1.4-6C-402.6,2155.1-402,2154.2-401.1,2154z"/>
			<path class="st3" d="M-390,2151.4l5.8-1.3c0.9-0.2,1.8,0.4,2,1.2l1.4,6c0.2,0.9-0.4,1.8-1.2,2l-5.8,1.3c-0.9,0.2-1.8-0.4-2-1.2
				l-1.4-6C-391.4,2152.5-390.9,2151.6-390,2151.4z"/>
			<path class="st3" d="M-378.8,2148.9l10.5-2.4c0.9-0.2,1.8,0.4,2,1.3l1.3,5.9c0.2,0.9-0.4,1.8-1.3,2l-10.5,2.4
				c-0.9,0.2-1.8-0.4-2-1.3l-1.3-5.9C-380.3,2150-379.7,2149.1-378.8,2148.9z"/>
			<path class="st3" d="M-362.4,2145.1l5.5-1.3c0.8-0.2,1.7,0.3,1.9,1.2l1.4,6.1c0.2,0.8-0.3,1.7-1.2,1.9l-5.5,1.3
				c-0.8,0.2-1.7-0.3-1.9-1.2l-1.4-6.1C-363.8,2146.2-363.2,2145.3-362.4,2145.1z"/>
			<path class="st3" d="M-445.6,2182l57.9-13.2c0.9-0.2,1.8,0.4,2,1.2l6.4,27.9c0.2,0.9-0.4,1.8-1.2,2l-57.9,13.2
				c-0.9,0.2-1.8-0.4-2-1.2l-6.4-27.9C-447.1,2183.1-446.5,2182.2-445.6,2182z"/>
			<path class="st3" d="M-439.3,2215.4l28.8-6.6c0.2,0,0.4,0.1,0.4,0.3l1.3,5.8c0,0.2-0.1,0.4-0.3,0.4l-28.8,6.6
				c-0.2,0-0.4-0.1-0.4-0.3l-1.3-5.8C-439.6,2215.6-439.5,2215.5-439.3,2215.4z"/>
			<path class="st3" d="M-407.7,2208.2l28.8-6.6c0.2,0,0.4,0.1,0.4,0.3l1.3,5.8c0,0.2-0.1,0.4-0.3,0.4l-28.8,6.6
				c-0.2,0-0.4-0.1-0.4-0.3l-1.3-5.8C-408,2208.4-407.9,2208.2-407.7,2208.2z"/>
			<g>
				<polygon class="st4" points="-342.9,2023.8 -549.5,2071 -553.4,2064.4 -342.2,2016.2 				"/>
				<polygon class="st5" points="-344.2,2039.9 -541.3,2085 -549.5,2071 -342.9,2023.8 				"/>
				<g>
					<g>
						<g>
							<polygon class="st4" points="-467.3,2080.2 -507.4,2089.3 -512.2,2080.9 -470.8,2071.4 							"/>
						</g>
						<g>
							<polygon class="st4" points="-420.1,2069.4 -460.1,2078.5 -463.4,2069.7 -419.6,2059.7 							"/>
						</g>
						<g>
							<polygon class="st4" points="-372.9,2058.6 -412.9,2067.7 -412.9,2058.2 -371.7,2048.8 							"/>
						</g>
					</g>
				</g>
				
					<ellipse transform="matrix(0.9749 -0.2227 0.2227 0.9749 -470.9632 -61.3104)" class="st6" cx="-507.3" cy="2057.6" rx="7.1" ry="2.7"/>
				<g>
					
						<rect x="-396.9" y="2028.5" transform="matrix(-0.9749 0.2227 -0.2227 -0.9749 -314.7392 4095.0405)" class="st6" width="17.3" height="2.5"/>
					
						<rect x="-417.2" y="2033.1" transform="matrix(-0.9749 0.2227 -0.2227 -0.9749 -353.6831 4108.6831)" class="st6" width="17.3" height="2.5"/>
					
						<rect x="-437.4" y="2037.8" transform="matrix(-0.9749 0.2228 -0.2228 -0.9749 -392.5769 4122.3242)" class="st6" width="17.3" height="2.5"/>
					
						<rect x="-457.6" y="2042.4" transform="matrix(-0.9749 0.2228 -0.2228 -0.9749 -431.4054 4135.9644)" class="st6" width="17.3" height="2.5"/>
				</g>
				<polygon class="st7" points="-466.7,2081.9 -466.1,2083.6 -505.7,2092.6 -506.7,2091 				"/>
				<polygon class="st7" points="-465.2,2084.5 -464.7,2086.2 -504.3,2095.3 -505.3,2093.7 				"/>
				<polygon class="st7" points="-412.7,2069.5 -412.7,2071.4 -372.8,2062.3 -372.6,2060.4 				"/>
				<polygon class="st7" points="-412.7,2072.5 -412.6,2074.3 -373,2065.3 -372.8,2063.4 				"/>
				<polygon class="st7" points="-459.6,2080.3 -458.9,2081.9 -420.1,2073.1 -419.9,2071.2 				"/>
				<polygon class="st7" points="-458.5,2083 -457.9,2084.7 -420.3,2076.1 -420,2074.2 				"/>
			</g>
		</g>
		<g id="paper_2_">
			<g>
				<path class="st8" d="M127.2,2061.1l64.1-64l90.6,90.7l-64.1,64L127.2,2061.1z"/>
				<g>
					<polygon class="st9" points="182.1,2099.9 187.6,2094.2 192.6,2099.4 187.1,2104.9 					"/>
					
						<rect x="188.8" y="2087" transform="matrix(0.7075 -0.7067 0.7067 0.7075 -1422.1133 748.1248)" class="st10" width="7.8" height="10.2"/>
					
						<rect x="192.6" y="2074.5" transform="matrix(0.7074 -0.7068 0.7068 0.7074 -1414.8641 748.4301)" class="st11" width="7.8" height="17.3"/>
					
						<rect x="199.9" y="2070.2" transform="matrix(0.7076 -0.7066 0.7066 0.7076 -1408.499 751.4995)" class="st12" width="7.8" height="14.9"/>
					
						<rect x="208.9" y="2070.1" transform="matrix(0.7074 -0.7068 0.7068 0.7074 -1403.5271 757.2138)" class="st13" width="7.8" height="7.5"/>
					
						<rect x="214.2" y="2061.5" transform="matrix(0.7073 -0.7069 0.7069 0.7073 -1397.0601 759.0768)" class="st11" width="7.8" height="10.3"/>
					
						<rect x="218.9" y="2051.1" transform="matrix(0.7076 -0.7066 0.7066 0.7076 -1389.4537 759.3699)" class="st12" width="7.8" height="14.9"/>
					
						<rect x="221.8" y="2036.3" transform="matrix(0.7075 -0.7067 0.7067 0.7075 -1381.7771 758.7489)" class="st13" width="7.8" height="24.8"/>
				</g>
				
					<rect x="188.2" y="2102.2" transform="matrix(0.7075 -0.7067 0.7067 0.7075 -1426.422 760.1875)" class="st14" width="34" height="2.3"/>
				
					<rect x="190.9" y="2105" transform="matrix(0.7075 -0.7067 0.7067 0.7075 -1427.5847 762.9669)" class="st14" width="34" height="2.3"/>
				
					<rect x="193.7" y="2107.8" transform="matrix(0.7075 -0.7067 0.7067 0.7075 -1428.7495 765.7484)" class="st14" width="34" height="2.3"/>
				
					<rect x="196.5" y="2110.6" transform="matrix(0.7075 -0.7067 0.7067 0.7075 -1429.9163 768.5273)" class="st14" width="34" height="2.3"/>
				
					<rect x="199.3" y="2113.3" transform="matrix(0.7075 -0.7067 0.7067 0.7075 -1431.0034 771.3389)" class="st14" width="34" height="2.3"/>
				
					<rect x="202.1" y="2116.1" transform="matrix(0.7076 -0.7067 0.7067 0.7076 -1432.075 773.989)" class="st14" width="34" height="2.3"/>
				
					<rect x="204.9" y="2118.9" transform="matrix(0.7075 -0.7067 0.7067 0.7075 -1433.3374 776.9011)" class="st14" width="34" height="2.3"/>
				
					<rect x="210.2" y="2127.7" transform="matrix(0.7075 -0.7067 0.7067 0.7075 -1440.4873 777.1885)" class="st14" width="17" height="2.3"/>
				
					<rect x="216.5" y="2073.9" transform="matrix(0.7075 -0.7067 0.7067 0.7075 -1398.1338 771.9389)" class="st14" width="34" height="2.3"/>
				
					<rect x="219.3" y="2076.7" transform="matrix(0.7075 -0.7067 0.7067 0.7075 -1399.3057 774.7213)" class="st14" width="34" height="2.3"/>
				
					<rect x="222" y="2079.5" transform="matrix(0.7075 -0.7067 0.7067 0.7075 -1400.46 777.5002)" class="st14" width="34" height="2.3"/>
				
					<rect x="224.8" y="2082.3" transform="matrix(0.7075 -0.7067 0.7067 0.7075 -1401.6327 780.283)" class="st14" width="34" height="2.3"/>
				
					<rect x="227.6" y="2085.1" transform="matrix(0.7075 -0.7067 0.7067 0.7075 -1402.787 783.0621)" class="st14" width="34" height="2.3"/>
				
					<rect x="230.4" y="2087.9" transform="matrix(0.7075 -0.7067 0.7067 0.7075 -1403.9563 785.845)" class="st14" width="34" height="2.3"/>
				
					<rect x="233.2" y="2090.6" transform="matrix(0.7075 -0.7067 0.7067 0.7075 -1405.0413 788.6523)" class="st14" width="34" height="2.3"/>
				
					<rect x="237.5" y="2097" transform="matrix(0.7075 -0.7067 0.7067 0.7075 -1409.781 789.9954)" class="st14" width="23.9" height="2.3"/>
				<g>
					<g>
						<polygon class="st15" points="166.7,2081.9 163.2,2081.4 168,2049.6 188,2045.9 194,2014 197.4,2014.7 191,2048.9 
							171.1,2052.6 						"/>
					</g>
					<g>
						<polygon class="st15" points="202,2018.8 200,2020.8 195.6,2016.3 191.2,2020.8 189.2,2018.8 195.6,2012.5 						"/>
					</g>
				</g>
				<circle class="st16" cx="188.9" cy="2047.2" r="3.9"/>
				<circle class="st16" cx="169.6" cy="2051.1" r="3.9"/>
			</g>
			<g>
				<path class="st8" d="M225.5,2018.8l90.6,0.4l-0.6,128.2l-90.6-0.4L225.5,2018.8z"/>
				
					<rect x="233.5" y="2102.8" transform="matrix(1 4.182409e-03 -4.182409e-03 1 8.8021 -1.1119)" class="st14" width="73.4" height="2.3"/>
				
					<rect x="233.4" y="2106.7" transform="matrix(1 4.180849e-03 -4.180849e-03 1 8.8151 -1.1111)" class="st14" width="73.5" height="2.3"/>
				
					<rect x="233.4" y="2110.7" transform="matrix(1 4.194554e-03 -4.194554e-03 1 8.8608 -1.1145)" class="st14" width="73.5" height="2.3"/>
				
					<rect x="233.3" y="2114.6" transform="matrix(1 4.201412e-03 -4.201412e-03 1 8.8916 -1.1161)" class="st14" width="73.5" height="2.3"/>
				
					<rect x="233.3" y="2118.6" transform="matrix(1 4.187712e-03 -4.187712e-03 1 8.8794 -1.1123)" class="st14" width="73.5" height="2.3"/>
				
					<rect x="233.3" y="2122.5" transform="matrix(1 4.213694e-03 -4.213694e-03 1 8.9509 -1.1189)" class="st14" width="73.5" height="2.3"/>
				
					<rect x="233.3" y="2126.5" transform="matrix(1 4.194548e-03 -4.194548e-03 1 8.927 -1.1142)" class="st14" width="73.5" height="2.3"/>
				
					<rect x="233.3" y="2130.4" transform="matrix(1 4.459516e-03 -4.459516e-03 1 9.508 -1.0572)" class="st14" width="17" height="2.3"/>
				<g>
					<path class="st17" d="M280.9,2065.9c-0.5,1.5-1.3,2.9-2.3,4l7.9,11.1c4-3.4,6.9-8.1,8-13.5L280.9,2065.9z"/>
					<path class="st15" d="M272.9,2051.8c4.6,1,8.1,4.9,8.5,9.7l13.6,1.6c0-0.2,0-0.3,0-0.5c0-12.7-9.7-23.2-22.1-24.4V2051.8z"/>
					<path class="st18" d="M262.6,2055.1c1.5-1.7,3.5-2.9,5.8-3.3l0.1-13.6c-7.2,0.6-13.6,4.4-17.6,10L262.6,2055.1z"/>
					<path class="st19" d="M275,2072.4c-1.4,0.6-2.8,0.9-4.4,0.9c-6,0-10.9-4.9-10.9-10.9c0-1.2,0.3-2.4,0.6-3.5l-11.7-7
						c-1.5,3.2-2.4,6.7-2.4,10.4c-0.1,13.5,10.8,24.4,24.3,24.5c4.5,0,8.7-1.2,12.3-3.3L275,2072.4z"/>
				</g>
			</g>
		</g>
		<g id="mouse">
			<path class="st20" d="M87.6,2289.5l-12.9-39.3c-2.9-9-12.7-14-21.7-11l-4.4,1.4l-4.4,1.4c-9,3-13.9,12.7-11,21.7l12.9,39.3
				c2.9,9,12.7,14,21.7,11l4.4-1.4l4.4-1.4C85.6,2308.3,90.6,2298.5,87.6,2289.5z"/>
			<path class="st21" d="M60.9,2259.7l-1.2-3.5c-0.9-3-4.2-4.7-7.2-3.7s-4.6,4.2-3.7,7.2l1.2,3.5c0.9,3,4.2,4.7,7.2,3.7v0
				C60.2,2266,61.9,2262.7,60.9,2259.7z"/>
		</g>
		<g id="keyboard">
			<path class="st20" d="M21,2207.9c0-1.8-1.6-3.3-3.5-3.3H-246c-1.9,0-3.5,1.5-3.5,3.3v96.8c0,1.8,1.6,3.3,3.5,3.3H17.5
				c1.9,0,3.5-1.5,3.5-3.3V2207.9z"/>
			<g>
				<path class="st22" d="M-228,2227c0,0.5-0.4,0.9-0.9,0.9h-13c-0.5,0-0.9-0.4-0.9-0.9v-13c0-0.5,0.4-0.9,0.9-0.9h13
					c0.5,0,0.9,0.4,0.9,0.9V2227z"/>
				<path class="st22" d="M-201.1,2244.9c0,0.5-0.4,0.9-0.9,0.9h-13c-0.5,0-0.8-0.4-0.8-0.9v-13c0-0.5,0.4-0.8,0.8-0.8h13
					c0.5,0,0.9,0.4,0.9,0.8V2244.9z"/>
				<path class="st22" d="M-196.8,2262.9c0,0.5-0.4,0.8-0.9,0.8h-13c-0.5,0-0.9-0.4-0.9-0.8v-13c0-0.5,0.4-0.8,0.9-0.8h13
					c0.5,0,0.9,0.4,0.9,0.8V2262.9z"/>
				<path class="st22" d="M-205.6,2280.8c0,0.5-0.4,0.9-0.8,0.9h-13c-0.5,0-0.8-0.4-0.8-0.9v-13c0-0.5,0.4-0.9,0.8-0.9h13
					c0.5,0,0.8,0.4,0.8,0.9V2280.8z"/>
				<path class="st22" d="M-228,2301c0,0.5-0.4,0.9-0.9,0.8h-13c-0.5,0-0.9-0.4-0.9-0.9v-15.3c0-0.5,0.4-0.8,0.9-0.8h13
					c0.5,0,0.9,0.4,0.9,0.8V2301z"/>
				<path class="st22" d="M-210.2,2301c0,0.5-0.4,0.9-0.9,0.8h-13c-0.5,0-0.9-0.4-0.9-0.8v-15.3c0-0.5,0.4-0.8,0.9-0.8h13
					c0.5,0,0.9,0.4,0.9,0.8V2301z"/>
				<path class="st22" d="M-192.3,2301c0,0.5-0.4,0.9-0.9,0.9h-13c-0.5,0-0.9-0.4-0.9-0.8v-15.3c0-0.5,0.4-0.8,0.8-0.8h13
					c0.5,0,0.9,0.4,0.9,0.8L-192.3,2301z"/>
				<path class="st22" d="M-39.6,2301c0,0.5-0.4,0.9-0.9,0.9h-13c-0.5,0-0.8-0.4-0.8-0.9v-15.3c0-0.5,0.4-0.8,0.8-0.8h13
					c0.5,0,0.9,0.4,0.9,0.8V2301z"/>
				<path class="st22" d="M-21.6,2301c0,0.5-0.4,0.9-0.9,0.9h-13c-0.5,0-0.9-0.4-0.9-0.8v-6.8c0-0.5,0.4-0.8,0.9-0.8h13
					c0.5,0,0.9,0.4,0.9,0.9V2301z"/>
				<path class="st22" d="M14.2,2301c0,0.5-0.4,0.9-0.9,0.9h-13c-0.5,0-0.9-0.4-0.9-0.9v-6.8c0-0.5,0.4-0.8,0.9-0.8h13
					c0.5,0,0.9,0.4,0.9,0.9V2301z"/>
				<path class="st22" d="M-169.7,2301c0,0.5-0.4,0.8-0.8,0.8h-17.7c-0.5,0-0.8-0.4-0.8-0.9v-15.3c0-0.5,0.4-0.8,0.8-0.8h17.7
					c0.5,0,0.8,0.4,0.8,0.8V2301z"/>
				<path class="st22" d="M-57.5,2301c0,0.5-0.4,0.8-0.9,0.9h-17.7c-0.5,0-0.9-0.4-0.9-0.9v-15.3c0-0.5,0.4-0.8,0.9-0.8h17.8
					c0.5,0,0.9,0.4,0.9,0.8v15.3H-57.5z"/>
				<path class="st22" d="M-80.1,2301c0,0.5-0.4,0.9-0.9,0.9h-84.7c-0.5,0-0.9-0.4-0.9-0.8v-15.3c0-0.5,0.4-0.8,0.9-0.8H-81
					c0.5,0,0.9,0.4,0.9,0.8L-80.1,2301z"/>
				<path class="st22" d="M-187.7,2280.8c0,0.5-0.4,0.9-0.8,0.9h-13c-0.5,0-0.8-0.4-0.8-0.9v-13c0-0.5,0.4-0.9,0.8-0.9h13
					c0.5,0,0.8,0.4,0.8,0.9V2280.8z"/>
				<path class="st22" d="M-169.7,2280.8c0,0.5-0.4,0.9-0.8,0.9h-13c-0.5,0-0.9-0.4-0.9-0.9v-13c0-0.5,0.4-0.9,0.9-0.9h13
					c0.5,0,0.8,0.4,0.8,0.9V2280.8z"/>
				<path class="st22" d="M-151.8,2280.8c0,0.5-0.4,0.9-0.9,0.9h-13c-0.5,0-0.9-0.4-0.9-0.9v-13c0-0.5,0.4-0.9,0.9-0.9h13
					c0.5,0,0.9,0.4,0.9,0.9V2280.8z"/>
				<path class="st22" d="M-133.9,2280.8c0,0.5-0.4,0.9-0.8,0.9h-13c-0.5,0-0.9-0.4-0.9-0.9v-13c0-0.5,0.4-0.9,0.9-0.9h13
					c0.5,0,0.8,0.4,0.8,0.9V2280.8z"/>
				<path class="st22" d="M-115.9,2280.8c0,0.5-0.4,0.9-0.8,0.9h-13c-0.5,0-0.8-0.4-0.8-0.9v-13c0-0.5,0.4-0.9,0.8-0.9h13
					c0.5,0,0.8,0.4,0.8,0.9V2280.8z"/>
				<path class="st22" d="M-98,2280.8c0,0.5-0.4,0.9-0.8,0.9h-13c-0.5,0-0.9-0.4-0.9-0.9v-13c0-0.5,0.4-0.9,0.9-0.9h13
					c0.5,0,0.8,0.4,0.8,0.9V2280.8z"/>
				<path class="st22" d="M-80.1,2280.8c0,0.5-0.4,0.9-0.9,0.9h-13c-0.5,0-0.8-0.4-0.8-0.9v-13c0-0.5,0.4-0.9,0.8-0.9h13
					c0.5,0,0.9,0.4,0.9,0.9V2280.8z"/>
				<path class="st22" d="M-62.2,2280.8c0,0.5-0.4,0.9-0.9,0.9h-13c-0.5,0-0.9-0.4-0.9-0.9v-13c0-0.5,0.4-0.9,0.9-0.9h13
					c0.5,0,0.9,0.4,0.9,0.9V2280.8z"/>
				<path class="st22" d="M-44.2,2280.8c0,0.5-0.4,0.9-0.8,0.9h-13c-0.5,0-0.9-0.4-0.9-0.9v-13c0-0.5,0.4-0.9,0.9-0.9h13
					c0.5,0,0.8,0.4,0.8,0.9V2280.8z"/>
				<path class="st22" d="M-26.3,2280.8c0,0.5-0.4,0.9-0.9,0.9h-13c-0.5,0-0.9-0.4-0.9-0.9v-13c0-0.5,0.4-0.9,0.9-0.9h13
					c0.5,0,0.9,0.4,0.9,0.9V2280.8z"/>
				<path class="st22" d="M14.1,2280.8c0,0.5-0.4,0.9-0.9,0.9h-35.5c-0.5,0-0.9-0.4-0.9-0.9v-13c0-0.5,0.4-0.9,0.9-0.9h35.5
					c0.5,0,0.9,0.4,0.9,0.9V2280.8z"/>
				<path class="st22" d="M-178.9,2262.9c0,0.5-0.4,0.8-0.8,0.8h-13c-0.5,0-0.8-0.4-0.8-0.8v-13c0-0.5,0.4-0.8,0.8-0.8h13
					c0.5,0,0.8,0.4,0.8,0.8V2262.9z"/>
				<path class="st22" d="M-161,2262.9c0,0.5-0.4,0.8-0.9,0.8h-13c-0.5,0-0.8-0.4-0.8-0.8v-13c0-0.5,0.4-0.8,0.8-0.8h13
					c0.5,0,0.9,0.4,0.9,0.8V2262.9z"/>
				<path class="st22" d="M-143,2262.9c0,0.5-0.4,0.8-0.8,0.8h-13c-0.5,0-0.8-0.4-0.8-0.8v-13c0-0.5,0.4-0.8,0.8-0.8h13
					c0.5,0,0.8,0.4,0.8,0.8V2262.9z"/>
				<path class="st22" d="M-125.1,2262.9c0,0.5-0.4,0.8-0.8,0.8h-13c-0.5,0-0.8-0.4-0.8-0.8v-13c0-0.5,0.4-0.8,0.8-0.8h13
					c0.5,0,0.8,0.4,0.8,0.8V2262.9z"/>
				<path class="st22" d="M-107.2,2262.9c0,0.5-0.4,0.8-0.8,0.8h-13c-0.5,0-0.9-0.4-0.9-0.8v-13c0-0.5,0.4-0.8,0.9-0.8h13
					c0.5,0,0.8,0.4,0.8,0.8V2262.9z"/>
				<path class="st22" d="M-89.2,2262.9c0,0.5-0.4,0.8-0.8,0.8h-13c-0.5,0-0.9-0.4-0.9-0.8v-13c0-0.5,0.4-0.8,0.9-0.8h13
					c0.5,0,0.9,0.4,0.9,0.8L-89.2,2262.9z"/>
				<path class="st22" d="M-71.3,2262.9c0,0.5-0.4,0.8-0.8,0.8h-13c-0.5,0-0.8-0.4-0.8-0.8v-13c0-0.5,0.4-0.8,0.8-0.8h13
					c0.5,0,0.8,0.4,0.8,0.8V2262.9z"/>
				<path class="st22" d="M-53.4,2262.9c0,0.5-0.4,0.8-0.8,0.8h-13c-0.5,0-0.8-0.4-0.8-0.8v-13c0-0.5,0.4-0.8,0.8-0.8h13
					c0.5,0,0.8,0.4,0.8,0.8V2262.9z"/>
				<path class="st22" d="M-35.5,2262.9c0,0.5-0.4,0.8-0.8,0.8h-13c-0.5,0-0.8-0.4-0.8-0.8v-13c0-0.5,0.4-0.8,0.8-0.8h13
					c0.5,0,0.8,0.4,0.8,0.8V2262.9z"/>
				<path class="st22" d="M-17.5,2262.9c0,0.5-0.4,0.8-0.8,0.8h-13c-0.5,0-0.9-0.4-0.9-0.8v-13c0-0.5,0.4-0.8,0.9-0.8h13
					c0.5,0,0.8,0.4,0.8,0.8V2262.9z"/>
				<path class="st22" d="M0.4,2262.9c0,0.5-0.4,0.8-0.8,0.8h-13c-0.5,0-0.8-0.4-0.8-0.8v-13c0-0.5,0.4-0.8,0.8-0.8h13
					c0.5,0,0.8,0.4,0.8,0.8V2262.9z"/>
				<path class="st22" d="M-183.1,2244.9c0,0.5-0.4,0.9-0.9,0.9h-13c-0.5,0-0.9-0.4-0.9-0.9v-13c0-0.5,0.4-0.8,0.9-0.8h13
					c0.5,0,0.9,0.4,0.9,0.8V2244.9z"/>
				<path class="st22" d="M-165.2,2244.9c0,0.5-0.4,0.9-0.9,0.9h-13c-0.5,0-0.8-0.4-0.8-0.9v-13c0-0.5,0.4-0.8,0.8-0.8h13
					c0.5,0,0.9,0.4,0.9,0.8V2244.9z"/>
				<path class="st22" d="M-147.3,2244.9c0,0.5-0.4,0.9-0.9,0.9h-13c-0.5,0-0.8-0.4-0.8-0.9v-13c0-0.5,0.4-0.8,0.8-0.8h13
					c0.5,0,0.9,0.4,0.9,0.8V2244.9z"/>
				<path class="st22" d="M-129.3,2244.9c0,0.5-0.4,0.9-0.8,0.9h-13c-0.5,0-0.9-0.4-0.9-0.9v-13c0-0.5,0.4-0.8,0.9-0.8h13
					c0.5,0,0.8,0.4,0.8,0.8V2244.9z"/>
				<path class="st22" d="M-111.4,2244.9c0,0.5-0.4,0.9-0.9,0.9h-13c-0.5,0-0.8-0.4-0.8-0.9v-13c0-0.5,0.4-0.8,0.8-0.8h13
					c0.5,0,0.9,0.4,0.9,0.8V2244.9z"/>
				<path class="st22" d="M-93.5,2244.9c0,0.5-0.4,0.9-0.8,0.9h-13c-0.5,0-0.9-0.4-0.9-0.9v-13c0-0.5,0.4-0.8,0.9-0.8h13
					c0.5,0,0.8,0.4,0.8,0.8V2244.9z"/>
				<path class="st22" d="M-75.6,2244.9c0,0.5-0.4,0.9-0.8,0.9h-13c-0.5,0-0.8-0.4-0.8-0.9v-13c0-0.5,0.4-0.8,0.8-0.8h13
					c0.5,0,0.8,0.4,0.8,0.8V2244.9z"/>
				<path class="st22" d="M-57.6,2244.9c0,0.5-0.4,0.9-0.9,0.9h-13c-0.5,0-0.8-0.4-0.8-0.9v-13c0-0.5,0.4-0.8,0.8-0.8h13
					c0.5,0,0.9,0.4,0.9,0.8V2244.9z"/>
				<path class="st22" d="M-39.7,2244.9c0,0.5-0.4,0.9-0.8,0.9h-13c-0.5,0-0.8-0.4-0.8-0.9v-13c0-0.5,0.4-0.8,0.8-0.8h13
					c0.5,0,0.8,0.4,0.8,0.8V2244.9z"/>
				<path class="st22" d="M-21.8,2244.9c0,0.5-0.4,0.9-0.9,0.9h-13c-0.5,0-0.8-0.4-0.8-0.9v-13c0-0.5,0.4-0.8,0.8-0.8h13
					c0.5,0,0.9,0.4,0.9,0.8V2244.9z"/>
				<path class="st22" d="M-3.9,2244.9c0,0.5-0.4,0.9-0.8,0.9h-13c-0.5,0-0.9-0.4-0.9-0.9v-13c0-0.5,0.4-0.8,0.9-0.8h13
					c0.5,0,0.8,0.4,0.8,0.8V2244.9z"/>
				<path class="st22" d="M-219,2244.9c0,0.5-0.4,0.9-0.8,0.9h-22.1c-0.5,0-0.9-0.4-0.9-0.9v-13c0-0.5,0.4-0.8,0.9-0.8h22.1
					c0.5,0,0.9,0.4,0.9,0.8L-219,2244.9z"/>
				<path class="st22" d="M14.1,2227c0,0.5-0.4,0.9-0.9,0.9H-8.9c-0.5,0-0.8-0.4-0.8-0.9v-13c0-0.5,0.4-0.9,0.8-0.9h22.1
					c0.5,0,0.8,0.4,0.9,0.9V2227z"/>
				<path class="st22" d="M-214.7,2262.9c0,0.5-0.4,0.8-0.9,0.8h-26.3c-0.5,0-0.9-0.4-0.9-0.8v-13c0-0.5,0.4-0.8,0.9-0.8h26.3
					c0.5,0,0.9,0.4,0.9,0.8V2262.9z"/>
				<path class="st22" d="M-223.5,2280.8c0,0.5-0.4,0.9-0.9,0.9h-17.5c-0.5,0-0.9-0.4-0.9-0.9v-13c0-0.5,0.4-0.9,0.9-0.9h17.5
					c0.5,0,0.9,0.4,0.9,0.9V2280.8z"/>
				<path class="st22" d="M-210.1,2227c0,0.5-0.4,0.9-0.9,0.9h-13c-0.5,0-0.9-0.4-0.9-0.9v-13c0-0.5,0.4-0.9,0.9-0.9h13
					c0.5,0,0.9,0.4,0.9,0.9V2227z"/>
				<path class="st22" d="M-192.2,2227c0,0.5-0.4,0.9-0.9,0.9h-13c-0.5,0-0.8-0.4-0.8-0.9v-13c0-0.5,0.4-0.9,0.8-0.9h13
					c0.5,0,0.8,0.4,0.8,0.9v13H-192.2z"/>
				<path class="st22" d="M-174.3,2227c0,0.5-0.4,0.9-0.9,0.9h-13c-0.5,0-0.8-0.4-0.8-0.9v-13c0-0.5,0.4-0.9,0.8-0.9h13
					c0.5,0,0.9,0.4,0.9,0.9V2227z"/>
				<path class="st22" d="M-156.3,2227c0,0.5-0.4,0.9-0.9,0.9h-13c-0.5,0-0.9-0.4-0.9-0.9v-13c0-0.5,0.4-0.9,0.8-0.9h13
					c0.5,0,0.9,0.4,0.9,0.9L-156.3,2227z"/>
				<path class="st22" d="M-138.4,2227c0,0.5-0.4,0.9-0.8,0.9h-13c-0.5,0-0.8-0.4-0.8-0.9v-13c0-0.5,0.4-0.9,0.8-0.9h13
					c0.5,0,0.8,0.4,0.8,0.9V2227z"/>
				<path class="st22" d="M-120.5,2227c0,0.5-0.4,0.9-0.9,0.9h-13c-0.5,0-0.9-0.4-0.9-0.9v-13c0-0.5,0.4-0.9,0.9-0.9h13
					c0.5,0,0.9,0.4,0.9,0.9V2227z"/>
				<path class="st22" d="M-102.6,2227c0,0.5-0.4,0.9-0.8,0.9h-13c-0.5,0-0.9-0.4-0.9-0.9v-13c0-0.5,0.4-0.9,0.9-0.9h13
					c0.5,0,0.8,0.4,0.8,0.9V2227z"/>
				<path class="st22" d="M-84.6,2227c0,0.5-0.4,0.9-0.9,0.9h-13c-0.5,0-0.8-0.4-0.8-0.9v-13c0-0.5,0.4-0.9,0.8-0.9h13
					c0.5,0,0.9,0.4,0.9,0.9V2227z"/>
				<path class="st22" d="M-66.7,2227c0,0.5-0.4,0.9-0.8,0.9h-13c-0.5,0-0.9-0.4-0.9-0.9v-13c0-0.5,0.4-0.9,0.9-0.9h13
					c0.5,0,0.8,0.4,0.8,0.9V2227z"/>
				<path class="st22" d="M-48.8,2227c0,0.5-0.4,0.9-0.8,0.9h-13c-0.5,0-0.8-0.4-0.8-0.9v-13c0-0.5,0.4-0.9,0.8-0.9h13
					c0.5,0,0.8,0.4,0.8,0.9V2227z"/>
				<path class="st22" d="M-30.8,2227c0,0.5-0.4,0.9-0.9,0.9h-13c-0.5,0-0.9-0.4-0.9-0.9v-13c0-0.5,0.4-0.9,0.9-0.9h13
					c0.5,0,0.9,0.4,0.9,0.9V2227z"/>
				<path class="st22" d="M-12.9,2227c0,0.5-0.4,0.9-0.8,0.9h-13c-0.5,0-0.8-0.4-0.8-0.9v-13c0-0.5,0.4-0.9,0.8-0.9h13
					c0.5,0,0.8,0.4,0.8,0.9V2227z"/>
				<g>
					<path class="st22" d="M-18.4,2293.8v7.2c0,0.2,0.1,0.4,0.2,0.6c0.2,0.2,0.4,0.2,0.6,0.3h13c0.2,0,0.4-0.1,0.6-0.3
						c0.2-0.2,0.2-0.4,0.2-0.6v-7.2H-18.4z"/>
					<path class="st22" d="M-3.7,2292.9v-7.2c0-0.2-0.1-0.4-0.2-0.6c-0.2-0.2-0.4-0.3-0.6-0.3h-13c-0.2,0-0.4,0.1-0.6,0.3
						c-0.2,0.2-0.2,0.4-0.2,0.6v7.2H-3.7z"/>
				</g>
				<path class="st22" d="M0.2,2231.1c-0.2,0-0.4,0.1-0.6,0.2c-0.2,0.2-0.2,0.4-0.2,0.6v13c0,0.2,0.1,0.4,0.2,0.6
					c0.2,0.2,0.4,0.3,0.6,0.3h3.4v17.1c0,0.2,0.1,0.4,0.2,0.6c0.2,0.2,0.4,0.2,0.6,0.2h8.8c0.2,0,0.4-0.1,0.6-0.2
					c0.2-0.2,0.2-0.4,0.2-0.6V2232c0-0.2-0.1-0.4-0.2-0.6c-0.2-0.2-0.4-0.2-0.6-0.2L0.2,2231.1L0.2,2231.1z"/>
			</g>
		</g>
		<g id="coffee_1_">
			<path class="st20" d="M95.4,2171.3c0,1.3-0.5,2.6-1.5,3.6s-2.3,1.5-3.6,1.4l-15.2-0.2l0.1-10.1l15.2,0.2c1.3,0,2.6,0.5,3.6,1.5
				S95.5,2170,95.4,2171.3z"/>
			<path class="st21" d="M75.3,2166.1l-0.1,10.1l5.7,0.1c0.5-3.3,0.6-6.7,0.1-10.1L75.3,2166.1z"/>
			<path class="st20" d="M76,2162.8c4.4,16.9-5.7,34.2-22.6,38.6c-16.9,4.4-34.2-5.7-38.6-22.6s5.7-34.2,22.6-38.6
				C54.3,2135.8,71.5,2145.9,76,2162.8z"/>
			<path class="st23" d="M71.1,2164.1c3.7,14.2-4.8,28.7-19,32.4s-28.7-4.8-32.4-19c-3.7-14.2,4.8-28.7,19-32.4
				C52.8,2141.4,67.4,2149.9,71.1,2164.1z"/>
			<path class="st24" d="M29,2183c-3.7-14.2,4.8-28.7,19-32.4c5.2-1.4,10.5-1.1,15.2,0.5c-6.4-5.8-15.5-8.3-24.5-6
				c-14.2,3.7-22.7,18.2-19,32.4c2.3,9,9,15.7,17.2,18.4C33.1,2192.6,30.3,2188.2,29,2183z"/>
		</g>
		<g>
			<g>
				<g>
					<path class="st22" d="M269.8,2213.2c17.8,30.1,15.5,55.3,15.4,56.3l-3.7-0.4c0-0.2,2.2-25.1-14.9-54.1L269.8,2213.2z"/>
				</g>
				<g>
					<path class="st25" d="M252.3,2209.6c-1.5-2.6-0.6-5.9,2-7.4l3.5-2c2.6-1.5,5.9-0.6,7.4,2l7.9,13.9c1.5,2.6,0.6,5.9-2,7.4
						l-3.5,2c-2.6,1.5-5.9,0.6-7.4-2L252.3,2209.6z"/>
					<path class="st21" d="M235.7,2213c-2.5-4.3-1-9.8,3.3-12.2l5.8-3.3c4.3-2.5,9.8-1,12.2,3.3l13.2,23.1c2.5,4.3,1,9.8-3.3,12.2
						l-5.8,3.3c-4.3,2.5-9.8,1-12.2-3.3L235.7,2213z"/>
					<path class="st20" d="M229.4,2207.8c-1.8-3.1-0.7-7,2.4-8.7l1.3-0.7c3.1-1.8,7-0.7,8.7,2.4l20.7,36.4c1.8,3.1,0.7,7-2.4,8.7
						l-1.3,0.7c-3.1,1.8-7,0.7-8.7-2.4L229.4,2207.8z"/>
				</g>
				<g>
					<path class="st22" d="M170.4,2232.9l3.7,0.5c-4.8,33.4,6.8,55.5,6.9,55.7l-3.3,1.8C177.2,2289.9,165.5,2267.5,170.4,2232.9z"/>
				</g>
				<g>
					<path class="st25" d="M185.2,2222.9c0.4-3-1.7-5.7-4.7-6l-4-0.5c-3-0.4-5.7,1.7-6,4.7l-2,15.9c-0.4,3,1.7,5.7,4.7,6l4,0.5
						c3,0.4,5.7-1.7,6-4.7L185.2,2222.9z"/>
					<path class="st21" d="M201.8,2219.7c0.6-4.9-2.9-9.4-7.8-10l-6.6-0.8c-4.9-0.6-9.4,2.9-10,7.8l-3.4,26.4
						c-0.6,4.9,2.9,9.4,7.8,10l6.6,0.8c4.9,0.6,9.4-2.9,10-7.8L201.8,2219.7z"/>
					<path class="st20" d="M205.7,2212.5c0.4-3.5-2-6.7-5.5-7.2l-1.5-0.2c-3.5-0.4-6.7,2-7.2,5.5l-5.3,41.5c-0.4,3.5,2,6.7,5.5,7.2
						l1.5,0.2c3.5,0.4,6.7-2,7.2-5.5L205.7,2212.5z"/>
				</g>
				<g>
					<g>
						<path class="st21" d="M280.6,2267.2c0.8-0.1,1.6-0.1,2.4,0c3,0.7,4.8,3.7,4.1,6.7c-4.2,17.9-19.2,39.2-48.6,45
							c-22.9,4.5-45.3-3-61.3-20.6c-2.1-2.3-1.9-5.8,0.4-7.9c2.3-2.1,5.8-1.9,7.9,0.4c6.3,7,24,22.6,50.9,17.2
							c24.2-4.8,36.5-22.1,39.9-36.6C276.8,2269.2,278.5,2267.6,280.6,2267.2z"/>
					</g>
				</g>
				<path class="st20" d="M283,2267.3c-0.8-0.2-1.6-0.2-2.4,0c-2.1,0.4-3.8,2-4.3,4.2c-3.4,14.6-15.7,31.8-39.9,36.6
					c-27,5.4-44.6-10.3-50.9-17.2c-2.1-2.3-5.6-2.4-7.9-0.4c-0.5,0.4-0.9,1-1.2,1.5c0.2,0.4,0.5,0.8,0.8,1.1
					c16.1,17.7,38.4,25.2,61.3,20.6c28.5-5.7,43.5-25.9,48.2-43.5C286,2268.8,284.7,2267.7,283,2267.3z"/>
				<g>
					<path class="st21" d="M165.8,2211.5c-2.1,0-4.2-0.2-6.5-0.6c-8.9-1.7-15.3-6.9-17.6-14.2c-3.1-10,1.9-22.6,13.7-34.5
						c6.4-6.4,8.4-14.1,5.7-21c-2.8-6.9-9.9-12-17.5-12.2c-4.9-0.2-14,1.6-20.2,14.8c-3.9,8.1-15.8,12.8-27.3,10.6
						c-11.2-2.2-18.3-10.2-19-21.5c-1.6-26.8,20.3-45,63.3-52.9l0.2,1.2c-42.3,7.7-63.8,25.6-62.3,51.6c0.9,15.4,12.9,19.4,18,20.3
						c10.9,2.1,22.3-2.2,25.9-9.9c4.8-10.1,12.6-15.8,21.4-15.5c8,0.3,15.6,5.6,18.6,13s0.8,15.6-5.9,22.4
						c-11.5,11.6-16.4,23.7-13.4,33.3c2.2,6.9,8.2,11.8,16.6,13.4c7.8,1.5,14.6,0.3,20.2-3.6c10-7,13.3-20.4,14.3-25.9
						c2.8-16,13.8-24.5,32.7-25.5c8.1-0.4,14.5,1.7,19.2,6.1c7.4,7,8.2,18,8.1,22.4c0,8.5,4.7,16.6,4.8,16.7l-1.1,0.6
						c-0.2-0.3-5-8.5-4.9-17.3c0-4.2-0.7-14.8-7.8-21.5c-4.4-4.2-10.6-6.1-18.3-5.8c-18.3,0.9-28.9,9.1-31.5,24.4
						c-1,5.6-4.4,19.5-14.8,26.7C176.3,2210,171.4,2211.5,165.8,2211.5z"/>
				</g>
			</g>
			<g>
				<path class="st26" d="M162.2,2075.2c0.1,0.5-0.2,1-0.7,1.1l-10.3,2.3c-0.5,0.1-1-0.2-1.1-0.7l0,0c-0.1-0.5,0.2-1,0.7-1.1
					l10.3-2.3C161.6,2074.4,162.1,2074.7,162.2,2075.2L162.2,2075.2z"/>
				<path class="st20" d="M152.3,2075.1l-10.7,2.3c-1.3,0.3-2.1,1.6-1.8,2.9s1.6,2.1,2.9,1.8l10.7-2.3L152.3,2075.1z"/>
				
					<rect x="151.1" y="2075.4" transform="matrix(-0.9767 0.2148 -0.2148 -0.9767 745.6595 4074.5144)" class="st27" width="0.7" height="4.8"/>
			</g>
		</g>
		<g id="telephone">
			<path class="st20" d="M-264.7,2269.9c0.5,1.9-0.7,3.9-2.7,4.3l-27.9,6.6c-1.9,0.5-3.9-0.7-4.3-2.7l-13.2-56.4
				c-0.5-1.9,0.7-3.9,2.7-4.3l27.9-6.6c1.9-0.5,3.9,0.7,4.3,2.7L-264.7,2269.9z"/>
			
				<rect x="-305.2" y="2220.1" transform="matrix(-0.9735 0.2287 -0.2287 -0.9735 -55.0013 4501.7837)" class="st28" width="33.7" height="55.2"/>
			<circle class="st28" cx="-295.5" cy="2217.4" r="0.9"/>
		</g>
		<g id="calculator">
			<path class="st20" d="M331.4,2126.8h-52.6v50.1c0,0.6,0.2,1.2,0.7,1.7s1.1,0.7,1.7,0.7h47.7c0.6,0,1.2-0.2,1.7-0.7
				s0.7-1.1,0.7-1.7L331.4,2126.8z"/>
			<g>
				<g>
					<g>
						<path class="st29" d="M302.6,2138.1c0,0.2-0.2,0.4-0.4,0.4h-17.5c-0.2,0-0.4-0.2-0.4-0.4v-5.6c0-0.2,0.2-0.4,0.4-0.4h17.5
							c0.2,0,0.4,0.2,0.4,0.4V2138.1z"/>
					</g>
					<g>
						<path class="st30" d="M314.5,2138.1c0,0.2-0.2,0.4-0.4,0.4h-5.6c-0.2,0-0.4-0.2-0.4-0.4v-5.6c0-0.2,0.2-0.4,0.4-0.4h5.6
							c0.2,0,0.4,0.2,0.4,0.4V2138.1z"/>
					</g>
					<g>
						<g>
							<path class="st31" d="M326.4,2138.1c0,0.2-0.2,0.4-0.4,0.4h-5.6c-0.2,0-0.4-0.2-0.4-0.4v-5.6c0-0.2,0.2-0.4,0.4-0.4h5.6
								c0.2,0,0.4,0.2,0.4,0.4V2138.1z"/>
						</g>
					</g>
					<g>
						<g>
							<path class="st31" d="M290.7,2150c0,0.2-0.2,0.4-0.4,0.4h-5.6c-0.2,0-0.4-0.2-0.4-0.4v-5.6c0-0.2,0.2-0.4,0.4-0.4h5.6
								c0.2,0,0.4,0.2,0.4,0.4V2150z"/>
						</g>
					</g>
					<g>
						<g>
							<path class="st31" d="M302.6,2150c0,0.2-0.2,0.4-0.4,0.4h-5.6c-0.2,0-0.4-0.2-0.4-0.4v-5.6c0-0.2,0.2-0.4,0.4-0.4h5.6
								c0.2,0,0.4,0.2,0.4,0.4V2150z"/>
						</g>
					</g>
					<g>
						<g>
							<path class="st31" d="M314.5,2150c0,0.2-0.2,0.4-0.4,0.4h-5.6c-0.2,0-0.4-0.2-0.4-0.4v-5.6c0-0.2,0.2-0.4,0.4-0.4h5.6
								c0.2,0,0.4,0.2,0.4,0.4V2150z"/>
						</g>
					</g>
					<g>
						<g>
							<path class="st31" d="M326.4,2150c0,0.2-0.2,0.4-0.4,0.4h-5.6c-0.2,0-0.4-0.2-0.4-0.4v-5.6c0-0.2,0.2-0.4,0.4-0.4h5.6
								c0.2,0,0.4,0.2,0.4,0.4V2150z"/>
						</g>
					</g>
					<g>
						<g>
							<path class="st31" d="M290.7,2161.9c0,0.2-0.2,0.4-0.4,0.4h-5.6c-0.2,0-0.4-0.2-0.4-0.4v-5.6c0-0.2,0.2-0.4,0.4-0.4h5.6
								c0.2,0,0.4,0.2,0.4,0.4V2161.9z"/>
						</g>
					</g>
					<g>
						<g>
							<path class="st31" d="M302.6,2161.9c0,0.2-0.2,0.4-0.4,0.4h-5.6c-0.2,0-0.4-0.2-0.4-0.4v-5.6c0-0.2,0.2-0.4,0.4-0.4h5.6
								c0.2,0,0.4,0.2,0.4,0.4V2161.9z"/>
						</g>
					</g>
					<g>
						<path class="st32" d="M314.5,2161.9c0,0.2-0.2,0.4-0.4,0.4h-5.6c-0.2,0-0.4-0.2-0.4-0.4v-5.7c0-0.2,0.2-0.4,0.4-0.4h5.6
							c0.2,0,0.4,0.2,0.4,0.4V2161.9z"/>
					</g>
					<g>
						<g>
							<path class="st31" d="M290.7,2173.8c0,0.2-0.2,0.4-0.4,0.4h-5.6c-0.2,0-0.4-0.2-0.4-0.4v-5.6c0-0.2,0.2-0.4,0.4-0.4h5.6
								c0.2,0,0.4,0.2,0.4,0.4V2173.8z"/>
						</g>
					</g>
					<g>
						<g>
							<path class="st31" d="M302.6,2173.8c0,0.2-0.2,0.4-0.4,0.4h-5.6c-0.2,0-0.4-0.2-0.4-0.4v-5.6c0-0.2,0.2-0.4,0.4-0.4h5.6
								c0.2,0,0.4,0.2,0.4,0.4V2173.8z"/>
						</g>
					</g>
					<g>
						<g>
							<path class="st32" d="M314.5,2173.8c0,0.2-0.2,0.4-0.4,0.4h-5.6c-0.2,0-0.4-0.2-0.4-0.4v-5.6c0-0.2,0.2-0.4,0.4-0.4h5.6
								c0.2,0,0.4,0.2,0.4,0.4V2173.8z"/>
						</g>
					</g>
					<g>
						<path class="st32" d="M326.4,2173.8c0,0.2-0.2,0.4-0.4,0.4h-5.6c-0.2,0-0.4-0.2-0.4-0.4v-5.6c0-0.2,0.2-0.4,0.4-0.4h5.6
							c0.2,0,0.4,0.2,0.4,0.4V2173.8z"/>
					</g>
					<g>
						<path class="st32" d="M326.4,2161.9c0,0.2-0.2,0.4-0.4,0.4h-5.6c-0.2,0-0.4-0.2-0.4-0.4v-5.7c0-0.2,0.2-0.4,0.4-0.4h5.6
							c0.2,0,0.4,0.2,0.4,0.4V2161.9z"/>
					</g>
				</g>
			</g>
			<path class="st22" d="M331.4,2105.9c0-0.6-0.2-1.2-0.7-1.7s-1.1-0.7-1.7-0.7h-47.7c-0.6,0-1.2,0.2-1.7,0.7s-0.7,1.1-0.7,1.7v21
				h52.6v-21H331.4z"/>
			<path class="st21" d="M284.7,2122.6c-0.4,0-0.7-0.1-1-0.4c-0.3-0.3-0.4-0.6-0.4-1v-12.1c0-0.4,0.2-0.7,0.4-1
				c0.3-0.3,0.6-0.4,1-0.4H326c0.4,0,0.8,0.2,1,0.4c0.3,0.3,0.4,0.6,0.4,1v12.1c0,0.4-0.2,0.7-0.4,1c-0.3,0.3-0.6,0.4-1,0.4H284.7z"
				/>
			<path class="st33" d="M284.7,2108.7c-0.1,0-0.2,0-0.3,0.1s-0.1,0.2-0.1,0.3v12.1c0,0.1,0,0.2,0.1,0.3c0.1,0.1,0.2,0.1,0.3,0.1
				H326c0.1,0,0.2,0,0.3-0.1c0.1-0.1,0.1-0.2,0.1-0.3v-12.1c0-0.1,0-0.2-0.1-0.3s-0.2-0.1-0.3-0.1H284.7z"/>
			<rect x="278.8" y="2125.8" class="st21" width="52.6" height="1"/>
		</g>
		<g id="pencil_2_">
			<path class="st34" d="M332,2063.4l-69.9-69.9c-0.5,0.8-0.3,1.9,0.4,2.9l68.3,68.3L332,2063.4z"/>
			<path class="st35" d="M327.9,2067.5l2.9-2.9l-68.3-68.3l0,0l0,0l0,0c-1-0.9-2.4-1-3.1-0.3c-0.7,0.7-0.6,2.1,0.3,3.1l0,0l0,0l0,0
				L327.9,2067.5z"/>
			<path class="st34" d="M259.6,1999.2c-0.9-0.8-2.1-1-2.9-0.5l69.9,69.9l1.2-1.2L259.6,1999.2z"/>
			<path class="st36" d="M256.7,1998.8c0.8-0.5,1.9-0.3,2.9,0.5l0,0l0,0l0,0c-0.9-1-1-2.4-0.3-3.1c0.7-0.7,2.1-0.6,3.1,0.3l0,0l0,0
				l0,0c-0.8-0.9-1-2.1-0.4-2.9l-7.1-1.8L256.7,1998.8z"/>
			<path class="st37" d="M258.4,1992.5l-3.5-0.9l0.9,3.5c0.6-0.3,1.1-0.6,1.5-1.1C257.8,1993.6,258.1,1993.1,258.4,1992.5z"/>
			<g>
				
					<rect x="331.6" y="2063.6" transform="matrix(-0.707 0.7072 -0.7072 -0.707 2027.98 3290.0642)" class="st38" width="1.7" height="3"/>
				
					<rect x="328.4" y="2065.6" transform="matrix(-0.707 0.7072 -0.7072 -0.707 2025.8949 3294.8538)" class="st39" width="4.1" height="3"/>
				
					<rect x="327.5" y="2067.7" transform="matrix(-0.7074 0.7068 -0.7068 -0.7074 2023.2117 3300.9126)" class="st38" width="1.7" height="3"/>
			</g>
		</g>
		<g id="screen">
			<path class="st22" d="M-32.5,2120.8c0,12.8-10.4,23.2-23.2,23.2h-117.4c-12.8,0-23.2-10.4-23.2-23.2v-5.9
				c0-12.8,10.4-23.2,23.2-23.2h117.4c12.8,0,23.2,10.4,23.2,23.2V2120.8z"/>
			<path class="st40" d="M-324.3,2010.8c0.3,0.8,0.5,1.6,0.9,2.4l30.3,84.5H62.5l32.8-86.9H-324.3z"/>
			<path class="st20" d="M95.1,2011.2l0.7-1.8c1.1-2.8-0.2-5.8-3.5-5.8h-412.9c-3.5,0-5.1,3.4-3.6,7.7L95.1,2011.2L95.1,2011.2z"/>
			<polygon class="st41" points="75.6,2020.9 50.9,2090.5 -281.4,2090.5 -306.3,2020.9 			"/>
			<path class="st20" d="M-293.2,2097.7l4.2,11.7c1.7,4.7,7.1,8.5,12,8.5H45.8c4.9,0,10.4-3.8,12.2-8.4l4.5-11.8H-293.2z"/>
		</g>
		<g>
			<g>
				<g>
					<path class="st22" d="M-322.4,2260.6c-0.3,0-0.5-0.1-0.8-0.2l-13.6-7.3c-2.6-1.4-5.4-2.5-8.2-3.2c-2.9-0.7-5.8-1.1-8.8-1.1
						h-59.6v-3.2h59.6c3.2,0,6.4,0.4,9.6,1.2c3.1,0.8,6.1,2,9,3.5l13.5,7.3c0.8,0.4,1.1,1.4,0.7,2.2
						C-321.3,2260.2-321.8,2260.6-322.4,2260.6z"/>
					<path class="st22" d="M-415,2260.6c0.3,0,0.5-0.1,0.8-0.2l13.5-7.3c2.6-1.4,5.4-2.5,8.2-3.2c2.9-0.7,5.8-1.1,8.8-1.1h59.6v-3.2
						h-59.6c-3.2,0-6.4,0.4-9.6,1.2c-3.1,0.8-6.1,2-9,3.5l-13.5,7.3c-0.8,0.4-1.1,1.4-0.7,2.2
						C-416.2,2260.2-415.6,2260.6-415,2260.6z"/>
				</g>
			</g>
			<path class="st42" d="M-382.4,2235.4h-11.8h-9.7c-3.4,0-6.2,2.8-6.2,6.2v11.6c0,3.4,2.8,6.2,6.2,6.2h9.7h11.8
				c3.4,0,6.2-2.8,6.2-6.2v-11.6C-376.2,2238.1-379,2235.4-382.4,2235.4z"/>
			<path class="st42" d="M-333.6,2235.4h-11.8h-9.7c-3.4,0-6.2,2.8-6.2,6.2v11.6c0,3.4,2.8,6.2,6.2,6.2h9.7h11.8
				c3.4,0,6.2-2.8,6.2-6.2v-11.6C-327.4,2238.1-330.2,2235.4-333.6,2235.4z"/>
			<path class="st20" d="M-332,2232.2h-24.7c-4.3,0-7.8,3.5-7.8,7.8v2c-1.2-0.9-2.7-1.4-4.4-1.4c-1.5,0-2.9,0.4-4.1,1.2v-1.8
				c0-4.3-3.5-7.8-7.8-7.8h-24.7c-4.3,0-7.8,3.5-7.8,7.8v14.7c0,4.3,3.5,7.8,7.8,7.8h24.7c4.3,0,7.8-3.5,7.8-7.8v-6.6h0
				c0-2.3,1.9-4.2,4.2-4.2s4.2,1.9,4.2,4.2h0.1v6.6c0,4.3,3.5,7.8,7.8,7.8h24.7c4.3,0,7.8-3.5,7.8-7.8v-14.7
				C-324.2,2235.8-327.7,2232.2-332,2232.2z M-376.2,2253.1c0,3.4-2.8,6.2-6.2,6.2h-21.5c-3.4,0-6.2-2.8-6.2-6.2v-11.6
				c0-3.4,2.8-6.2,6.2-6.2h21.5c3.4,0,6.2,2.8,6.2,6.2v4.9c-0.1,0.5-0.2,1.1-0.2,1.7h0.2V2253.1z M-327.4,2253.1
				c0,3.4-2.8,6.2-6.2,6.2h-21.5c-3.4,0-6.2-2.8-6.2-6.2v-11.6c0-3.4,2.8-6.2,6.2-6.2h21.5c3.4,0,6.2,2.8,6.2,6.2V2253.1z"/>
		</g>
		<polygon points="328.7,2062.5 325.8,2065.4 324.6,2066.6 326.7,2068.7 327.9,2067.5 330.8,2064.7 332,2063.4 329.9,2061.3 		"/>
	</g>
</g>
</svg>
