<svg xmlns="http://www.w3.org/2000/svg" id="Layer_1" viewBox="-411 2011.2 903.5 298.8"><style>.st0{fill:#333333;} .st1{fill:#444444;} .st2{fill:#FFFFFF;} .st3{fill:#104D7C;} .st4{fill:#A2D7E7;} .st5{fill:#E6E7E8;} .st6{fill:#A7A9AC;} .st7{fill:#F5F5F5;} .st8{fill:#4C8EB4;} .st9{fill:#609DC1;} .st10{fill:#73ACCD;} .st11{fill:#87BBDA;} .st12{fill:#9ACAE6;} .st13{fill:#CCCCCC;} .st14{fill:#FEC00F;} .st15{fill:#15B0BF;} .st16{fill:#00A295;} .st17{fill:#FF7C55;} .st18{fill:#2C465F;} .st19{fill:#666666;} .st20{fill:#453F41;} .st21{fill:#555555;} .st22{fill:#888888;} .st23{fill:#312726;} .st24{fill:#414042;} .st25{fill:#F7B03E;} .st26{fill:#FDC915;} .st27{fill:#F0B16C;} .st28{fill:#103754;} .st29{fill:#C62229;} .st30{fill:#F85A68;} .st31{fill:#000405;} .st32{fill:#71B2C8;}</style><g id="Objects"><g id="Work_Space"><g id="laptop"><path d="M-373.6 2130.3l188.3-43c2.4-.6 4.8 1 5.4 3.4l27.9 122.1c.6 2.4-1 4.8-3.4 5.4l-188.3 43c-2.4.6-4.8-1-5.4-3.4l-27.9-122.1c-.6-2.4 1-4.8 3.4-5.4z" class="st0"/><path d="M-365.1 2128.4l10.9-2.5 1.4 6.2c.1.6-.2 1.1-.8 1.3l-8.9 2c-.6.1-1.1-.2-1.3-.8l-1.3-6.2zm160.3-36.6l10.9-2.5 1.4 6.2c.1.6-.2 1.1-.8 1.3l-8.9 2c-.6.1-1.1-.2-1.3-.8l-1.3-6.2z" class="st1"/><path d="M-405.1 2076.6l224.3-51.3c5.4-1.2 7.6.9 6.2 4.9l-7.4 54-196.6 44.9-27.4-42.9c-5-5-5-8.3.9-9.6z" class="st0"/><path d="M-185.3 2035.8l-3.9 45.9-183.7 41.9-23.6-39.6z" class="st2"/><path d="M-406.1 2077.7l227.4-51.9c.5-.1 1 .2 1.1.7.1.5-.2 1-.7 1.1l-227.4 51.9c-.5.1-1-.2-1.1-.7-.1-.5.2-1 .7-1.1z" class="st1"/><path d="M-364.8 2122.4l7.8-1.8c.5-.1 1 .2 1.1.7l2.1 9.2c.1.5-.2 1-.7 1.1l-7.8 1.8c-.5.1-1-.2-1.1-.7l-2.1-9.2c-.1-.5.2-1 .7-1.1zm160.3-36.7l7.8-1.8c.5-.1 1 .2 1.1.7l2.1 9.2c.1.5-.2 1-.7 1.1l-7.8 1.8c-.5.1-1-.2-1.1-.7l-2.1-9.2c-.1-.4.2-.9.7-1.1z" class="st0"/><path d="M-196.1 2108.1l6.1-1.4c.7-.2 1.4.3 1.5 1l1 4.5c.2.7-.3 1.4-1 1.5l-6.1 1.4c-.7.2-1.4-.3-1.5-1l-1-4.5c-.1-.6.3-1.3 1-1.5zm2.3 8.6l5.5-1.3c.8-.2 1.7.3 1.9 1.2l1.4 6.1c.2.8-.3 1.7-1.2 1.9l-5.5 1.3c-.8.2-1.7-.3-1.9-1.2l-1.4-6.1c-.2-.9.3-1.7 1.2-1.9zm2.4 10.8l5.5-1.3c.8-.2 1.7.3 1.9 1.2l1.4 6.1c.2.8-.3 1.7-1.2 1.9l-5.5 1.3c-.8.2-1.7-.3-1.9-1.2l-1.4-6.1c-.2-.9.4-1.7 1.2-1.9zm2.5 10.8l5.5-1.3c.8-.2 1.7.3 1.9 1.2l1.4 6.1c.2.8-.3 1.7-1.2 1.9l-5.5 1.3c-.8.2-1.7-.3-1.9-1.2l-1.4-6.1c-.2-.9.3-1.7 1.2-1.9zm2.4 10.7l5.5-1.3c.8-.2 1.7.3 1.9 1.2l1.4 6.1c.2.8-.3 1.7-1.2 1.9l-5.5 1.3c-.8.2-1.7-.3-1.9-1.2l-1.4-6.1c-.1-.8.4-1.7 1.2-1.9zm2.5 10.8l5.5-1.3c.8-.2 1.7.3 1.9 1.2l1.4 6.1c.2.8-.3 1.7-1.2 1.9l-5.5 1.3c-.8.2-1.7-.3-1.9-1.2l-1.4-6.1c-.2-.8.4-1.7 1.2-1.9zm-22.8-49.2l6.1-1.4c.7-.2 1.4.3 1.5 1l1 4.5c.2.7-.3 1.4-1 1.5l-6.1 1.4c-.7.2-1.4-.3-1.5-1l-1-4.5c-.2-.7.3-1.3 1-1.5zm-7.6 10.8l15.2-3.5c.9-.2 1.8.4 2 1.3l1.4 5.9c.2.9-.4 1.8-1.3 2l-15.2 3.5c-.9.2-1.8-.4-2-1.3l-1.3-5.9c-.3-.9.3-1.8 1.2-2zm9.4 9.2l8.2-1.9c.9-.2 1.8.4 2 1.3l1.3 5.9c.2.9-.4 1.8-1.3 2l-8.2 1.9c-.9.2-1.8-.4-2-1.3l-1.4-5.9c0-.9.5-1.8 1.4-2zm-5.7 12.6l16.4-3.8c.9-.2 1.8.4 2 1.3l1.4 5.9c.2.9-.4 1.8-1.3 2l-16.4 3.8c-.9.2-1.8-.4-2-1.3l-1.4-5.9c-.2-.8.4-1.8 1.3-2zm13.5 8.3l5.5-1.3c.8-.2 1.7.3 1.9 1.2l1.4 6.1c.2.8-.3 1.7-1.2 1.9l-5.5 1.3c-.8.2-1.7-.3-1.9-1.2l-1.4-6.1c-.2-.9.4-1.7 1.2-1.9zm2.5 10.8l5.5-1.3c.8-.2 1.7.3 1.9 1.2l1.4 6.1c.2.8-.3 1.7-1.2 1.9l-5.5 1.3c-.8.2-1.7-.3-1.9-1.2l-1.4-6.1c-.2-.9.3-1.7 1.2-1.9zm-22.1-49.4l5.3-1.2c.7-.2 1.4.3 1.5 1l1 4.5c.2.7-.3 1.4-1 1.5l-5.3 1.2c-.7.2-1.4-.3-1.5-1l-1-4.5c-.1-.7.3-1.4 1-1.5zm-10.1 2.3l5.3-1.2c.7-.2 1.4.3 1.5 1l1 4.5c.2.7-.3 1.4-1 1.5l-5.3 1.2c-.7.2-1.4-.3-1.5-1l-1-4.5c-.1-.7.4-1.4 1-1.5zm-10 2.3l5.3-1.2c.7-.2 1.4.3 1.5 1l1 4.5c.2.7-.3 1.4-1 1.5l-5.3 1.2c-.7.2-1.4-.3-1.5-1l-1-4.5c-.2-.7.3-1.4 1-1.5zm-10.1 2.3l5.3-1.2c.7-.2 1.4.3 1.5 1l1 4.5c.2.7-.3 1.4-1 1.5l-5.3 1.2c-.7.2-1.4-.3-1.5-1l-1-4.5c-.2-.7.3-1.4 1-1.5zm-10.1 2.3l5.3-1.2c.7-.2 1.4.3 1.5 1l1 4.5c.2.7-.3 1.4-1 1.5l-5.3 1.2c-.7.2-1.4-.3-1.5-1l-1-4.5c-.1-.7.3-1.4 1-1.5zm-10.1 2.3l5.3-1.2c.7-.2 1.4.3 1.5 1l1 4.5c.2.7-.3 1.4-1 1.5l-5.3 1.2c-.7.2-1.4-.3-1.5-1l-1-4.5c-.1-.7.3-1.4 1-1.5zm-10.1 2.3l5.3-1.2c.7-.2 1.4.3 1.5 1l1 4.5c.2.7-.3 1.4-1 1.5l-5.3 1.2c-.7.2-1.4-.3-1.5-1l-1-4.5c-.1-.7.3-1.4 1-1.5zm-10.1 2.3l5.3-1.2c.7-.2 1.4.3 1.5 1l1 4.5c.2.7-.3 1.4-1 1.5l-5.3 1.2c-.7.2-1.4-.3-1.5-1l-1-4.5c-.1-.7.3-1.4 1-1.5zm-10.1 2.3l5.3-1.2c.7-.2 1.4.3 1.5 1l1 4.5c.2.7-.3 1.4-1 1.5l-5.3 1.2c-.7.2-1.4-.3-1.5-1l-1-4.5c-.1-.7.4-1.3 1-1.5zm-10 2.3l5.3-1.2c.7-.2 1.4.3 1.5 1l1 4.5c.2.7-.3 1.4-1 1.5l-5.3 1.2c-.7.2-1.4-.3-1.5-1l-1-4.5c-.2-.6.3-1.3 1-1.5zm-10.1 2.3l5.3-1.2c.7-.2 1.4.3 1.5 1l1 4.5c.2.7-.3 1.4-1 1.5l-5.3 1.2c-.7.2-1.4-.3-1.5-1l-1-4.5c-.2-.6.3-1.3 1-1.5zm-10.1 2.3l5.3-1.2c.7-.2 1.4.3 1.5 1l1 4.5c.2.7-.3 1.4-1 1.5l-5.3 1.2c-.7.2-1.4-.3-1.5-1l-1-4.5c-.1-.6.3-1.3 1-1.5zm-10.1 2.3l5.3-1.2c.7-.2 1.4.3 1.5 1l1 4.5c.2.7-.3 1.4-1 1.5l-5.3 1.2c-.7.2-1.4-.3-1.5-1l-1-4.5c-.1-.6.3-1.3 1-1.5zm-10.1 2.3l5.3-1.2c.7-.2 1.4.3 1.5 1l1 4.5c.2.7-.3 1.4-1 1.5l-5.3 1.2c-.7.2-1.4-.3-1.5-1l-1-4.5c-.1-.6.3-1.3 1-1.5zm-11.3 2.6l6.1-1.4c.7-.2 1.4.3 1.5 1l1 4.5c.2.7-.3 1.4-1 1.5l-6.1 1.4c-.7.2-1.4-.3-1.5-1l-1-4.5c-.1-.6.3-1.3 1-1.5zm133.9-21.5l5.4-1.2c.8-.2 1.7.3 1.9 1.2l1.4 6.2c.2.8-.3 1.7-1.2 1.9l-5.4 1.2c-.8.2-1.7-.3-1.9-1.2l-1.4-6.2c-.1-.9.4-1.7 1.2-1.9zm-10.9 2.5l5.4-1.2c.8-.2 1.7.3 1.9 1.2l1.4 6.2c.2.8-.3 1.7-1.2 1.9l-5.4 1.2c-.8.2-1.7-.3-1.9-1.2l-1.4-6.2c-.2-.9.3-1.7 1.2-1.9zm-11 2.5l5.4-1.2c.8-.2 1.7.3 1.9 1.2l1.4 6.2c.2.8-.3 1.7-1.2 1.9l-5.4 1.2c-.8.2-1.7-.3-1.9-1.2l-1.4-6.2c-.1-.9.4-1.7 1.2-1.9zm-10.9 2.5l5.4-1.2c.8-.2 1.7.3 1.9 1.2l1.4 6.2c.2.8-.3 1.7-1.2 1.9l-5.4 1.2c-.8.2-1.7-.3-1.9-1.2l-1.4-6.2c-.2-.9.3-1.7 1.2-1.9zm-11 2.5l5.4-1.2c.8-.2 1.7.3 1.9 1.2l1.4 6.2c.2.8-.3 1.7-1.2 1.9l-5.4 1.2c-.8.2-1.7-.3-1.9-1.2l-1.4-6.2c-.1-.9.4-1.7 1.2-1.9zm-10.9 2.5l5.4-1.2c.8-.2 1.7.3 1.9 1.2l1.4 6.2c.2.8-.3 1.7-1.2 1.9l-5.4 1.2c-.8.2-1.7-.3-1.9-1.2l-1.4-6.2c-.2-.9.4-1.7 1.2-1.9zm-11 2.5l5.4-1.2c.8-.2 1.7.3 1.9 1.2l1.4 6.2c.2.8-.3 1.7-1.2 1.9l-5.4 1.2c-.8.2-1.7-.3-1.9-1.2l-1.4-6.2c-.1-.9.4-1.7 1.2-1.9zm-10.9 2.5l5.4-1.2c.8-.2 1.7.3 1.9 1.2l1.4 6.2c.2.8-.3 1.7-1.2 1.9l-5.4 1.2c-.8.2-1.7-.3-1.9-1.2l-1.4-6.2c-.1-.9.4-1.7 1.2-1.9zm-10.9 2.5l5.4-1.2c.8-.2 1.7.3 1.9 1.2l1.4 6.2c.2.8-.3 1.7-1.2 1.9l-5.4 1.2c-.8.2-1.7-.3-1.8-1.2l-1.4-6.2c-.3-.9.2-1.7 1.1-1.9zm-11 2.5l5.4-1.2c.8-.2 1.7.3 1.9 1.2l1.4 6.2c.2.8-.3 1.7-1.2 1.9l-5.4 1.2c-.8.2-1.7-.3-1.9-1.2l-1.4-6.2c-.1-.9.4-1.7 1.2-1.9zm-10.9 2.5l5.4-1.2c.8-.2 1.7.3 1.9 1.2l1.4 6.2c.2.8-.3 1.7-1.2 1.9l-5.4 1.2c-.8.2-1.7-.3-1.8-1.2l-1.4-6.2c-.3-.9.3-1.7 1.1-1.9zm-11 2.5l5.4-1.2c.8-.2 1.7.3 1.9 1.2l1.4 6.2c.2.8-.3 1.7-1.2 1.9l-5.4 1.2c-.8.2-1.7-.3-1.9-1.2l-1.4-6.2c-.1-.9.4-1.7 1.2-1.9zm-11.3 2.6l5.5-1.3c.8-.2 1.7.3 1.9 1.2l1.4 6.1c.2.8-.3 1.7-1.2 1.9l-5.5 1.3c-.8.2-1.7-.3-1.9-1.2l-1.4-6.1c-.1-.9.4-1.7 1.2-1.9zm2.6 10.7l11.4-2.6c.9-.2 1.8.4 2 1.3l1.3 5.9c.2.9-.4 1.8-1.3 2l-11.4 2.6c-.9.2-1.8-.4-2-1.3l-1.4-5.9c-.1-.9.5-1.8 1.4-2zm2.5 10.8l13.5-3.1c.9-.2 1.8.4 2 1.3l1.3 5.9c.2.9-.4 1.8-1.3 2l-13.5 3.1c-.9.2-1.8-.4-2-1.3l-1.3-5.9c-.2-.9.4-1.8 1.3-2zm2.4 10.8l19.4-4.4c.9-.2 1.8.4 2 1.3l1.3 5.9c.2.9-.4 1.8-1.3 2l-19.4 4.4c-.9.2-1.8-.4-2-1.3l-1.3-5.9c-.1-.9.4-1.8 1.3-2zm2.5 10.8l8-1.8c.9-.2 1.8.4 2 1.3l1.3 5.9c.2.9-.4 1.8-1.3 2l-8 1.8c-.9.2-1.8-.4-2-1.3l-1.3-5.9c-.2-.9.4-1.8 1.3-2zm8.6-36l5.8-1.3c.9-.2 1.8.4 2 1.2l1.4 6c.2.9-.4 1.8-1.2 2l-5.8 1.3c-.9.2-1.8-.4-2-1.2l-1.4-6c-.3-.9.3-1.8 1.2-2zm11.1-2.6l5.8-1.3c.9-.2 1.8.4 2 1.2l1.4 6c.2.9-.4 1.8-1.2 2l-5.8 1.3c-.9.2-1.8-.4-2-1.2l-1.4-6c-.2-.9.4-1.8 1.2-2zm11.2-2.5l5.8-1.3c.9-.2 1.8.4 2 1.2l1.4 6c.2.9-.4 1.8-1.2 2l-5.8 1.3c-.9.2-1.8-.4-2-1.2l-1.4-6c-.3-.9.3-1.8 1.2-2zm11.1-2.6l5.8-1.3c.9-.2 1.8.4 2 1.2l1.4 6c.2.9-.4 1.8-1.2 2l-5.8 1.3c-.9.2-1.8-.4-2-1.2l-1.4-6c-.2-.9.4-1.8 1.2-2zm11.2-2.5l5.8-1.3c.9-.2 1.8.4 2 1.2l1.4 6c.2.9-.4 1.8-1.2 2l-5.8 1.3c-.9.2-1.8-.4-2-1.2l-1.4-6c-.3-.9.3-1.8 1.2-2zm11.1-2.6l5.8-1.3c.9-.2 1.8.4 2 1.2l1.4 6c.2.9-.4 1.8-1.2 2l-5.8 1.3c-.9.2-1.8-.4-2-1.2l-1.4-6c-.2-.9.3-1.8 1.2-2zm11.2-2.5l5.8-1.3c.9-.2 1.8.4 2 1.2l1.4 6c.2.9-.4 1.8-1.2 2l-5.8 1.3c-.9.2-1.8-.4-2-1.2l-1.4-6c-.3-.9.3-1.8 1.2-2zm11.1-2.6l5.8-1.3c.9-.2 1.8.4 2 1.2l1.4 6c.2.9-.4 1.8-1.2 2l-5.8 1.3c-.9.2-1.8-.4-2-1.2l-1.4-6c-.2-.9.3-1.8 1.2-2zm11.2-2.5l5.8-1.3c.9-.2 1.8.4 2 1.2l1.4 6c.2.9-.4 1.8-1.2 2l-5.8 1.3c-.9.2-1.8-.4-2-1.2l-1.4-6c-.3-.9.3-1.8 1.2-2zm11.1-2.6l5.8-1.3c.9-.2 1.8.4 2 1.2l1.4 6c.2.9-.4 1.8-1.2 2l-5.8 1.3c-.9.2-1.8-.4-2-1.2l-1.4-6c-.2-.9.3-1.8 1.2-2zm11.2-2.5l5.8-1.3c.9-.2 1.8.4 2 1.2l1.4 6c.2.9-.4 1.8-1.2 2l-5.8 1.3c-.9.2-1.8-.4-2-1.2l-1.4-6c-.3-.9.3-1.8 1.2-2zm11.1-2.5l5.8-1.3c.9-.2 1.8.4 2 1.2l1.4 6c.2.9-.4 1.8-1.2 2l-5.8 1.3c-.9.2-1.8-.4-2-1.2l-1.4-6c-.2-1 .3-1.8 1.2-2zm-117 38l5.8-1.3c.9-.2 1.8.4 2 1.2l1.4 6c.2.9-.4 1.8-1.2 2l-5.8 1.3c-.9.2-1.8-.4-2-1.2l-1.4-6c-.3-.9.3-1.8 1.2-2zm11.1-2.5l5.8-1.3c.9-.2 1.8.4 2 1.2l1.4 6c.2.9-.4 1.8-1.2 2l-5.8 1.3c-.9.2-1.8-.4-2-1.2l-1.4-6c-.2-.9.3-1.8 1.2-2zm11.2-2.5l5.8-1.3c.9-.2 1.8.4 2 1.2l1.4 6c.2.9-.4 1.8-1.2 2l-5.8 1.3c-.9.2-1.8-.4-2-1.2l-1.4-6c-.3-1 .3-1.8 1.2-2zm11.1-2.6l5.8-1.3c.9-.2 1.8.4 2 1.2l1.4 6c.2.9-.4 1.8-1.2 2l-5.8 1.3c-.9.2-1.8-.4-2-1.2l-1.4-6c-.2-.9.3-1.8 1.2-2zm11.2-2.5l5.8-1.3c.9-.2 1.8.4 2 1.2l1.4 6c.2.9-.4 1.8-1.2 2l-5.8 1.3c-.9.2-1.8-.4-2-1.2l-1.4-6c-.3-1 .3-1.8 1.2-2zm11.1-2.6l5.8-1.3c.9-.2 1.8.4 2 1.2l1.4 6c.2.9-.4 1.8-1.2 2l-5.8 1.3c-.9.2-1.8-.4-2-1.2l-1.4-6c-.2-.9.3-1.8 1.2-2zm11.2-2.5l5.8-1.3c.9-.2 1.8.4 2 1.2l1.4 6c.2.9-.4 1.8-1.2 2l-5.8 1.3c-.9.2-1.8-.4-2-1.2l-1.4-6c-.3-.9.3-1.8 1.2-2zm11.1-2.6l5.8-1.3c.9-.2 1.8.4 2 1.2l1.4 6c.2.9-.4 1.8-1.2 2l-5.8 1.3c-.9.2-1.8-.4-2-1.2l-1.4-6c-.2-.9.3-1.8 1.2-2zm11.1-2.5l5.8-1.3c.9-.2 1.8.4 2 1.2l1.4 6c.2.9-.4 1.8-1.2 2l-5.8 1.3c-.9.2-1.8-.4-2-1.2l-1.4-6c-.2-.9.4-1.8 1.2-2zm11.2-2.6l5.8-1.3c.9-.2 1.8.4 2 1.2l1.4 6c.2.9-.4 1.8-1.2 2l-5.8 1.3c-.9.2-1.8-.4-2-1.2l-1.4-6c-.3-.9.3-1.8 1.2-2zm11.1-2.5l5.8-1.3c.9-.2 1.8.4 2 1.2l1.4 6c.2.9-.4 1.8-1.2 2l-5.8 1.3c-.9.2-1.8-.4-2-1.2l-1.4-6c-.2-.9.4-1.8 1.2-2zm-103.1 34.9l5.8-1.3c.9-.2 1.8.4 2 1.2l1.4 6c.2.9-.4 1.8-1.2 2l-5.8 1.3c-.9.2-1.8-.4-2-1.2l-1.4-6c-.3-.9.3-1.8 1.2-2zm11.1-2.6l5.8-1.3c.9-.2 1.8.4 2 1.2l1.4 6c.2.9-.4 1.8-1.2 2l-5.8 1.3c-.9.2-1.8-.4-2-1.2l-1.4-6c-.2-.9.3-1.8 1.2-2zm11.2-2.5l5.8-1.3c.9-.2 1.8.4 2 1.2l1.4 6c.2.9-.4 1.8-1.2 2l-5.8 1.3c-.9.2-1.8-.4-2-1.2l-1.4-6c-.3-.9.3-1.8 1.2-2zm11.1-2.5l5.8-1.3c.9-.2 1.8.4 2 1.2l1.4 6c.2.9-.4 1.8-1.2 2l-5.8 1.3c-.9.2-1.8-.4-2-1.2l-1.4-6c-.2-1 .3-1.8 1.2-2zm11.2-2.6l5.8-1.3c.9-.2 1.8.4 2 1.2l1.4 6c.2.9-.4 1.8-1.2 2l-5.8 1.3c-.9.2-1.8-.4-2-1.2l-1.4-6c-.3-.9.3-1.8 1.2-2zm11.1-2.5l5.8-1.3c.9-.2 1.8.4 2 1.2l1.4 6c.2.9-.4 1.8-1.2 2l-5.8 1.3c-.9.2-1.8-.4-2-1.2l-1.4-6c-.2-.9.3-1.8 1.2-2zm11.2-2.6l5.8-1.3c.9-.2 1.8.4 2 1.2l1.4 6c.2.9-.4 1.8-1.2 2l-5.8 1.3c-.9.2-1.8-.4-2-1.2l-1.4-6c-.3-.9.3-1.8 1.2-2zm11.1-2.5l5.8-1.3c.9-.2 1.8.4 2 1.2l1.4 6c.2.9-.4 1.8-1.2 2l-5.8 1.3c-.9.2-1.8-.4-2-1.2l-1.4-6c-.3-.9.3-1.8 1.2-2zm11.1-2.6l5.8-1.3c.9-.2 1.8.4 2 1.2l1.4 6c.2.9-.4 1.8-1.2 2l-5.8 1.3c-.9.2-1.8-.4-2-1.2l-1.4-6c-.2-.9.4-1.8 1.2-2zm11.2-2.5l5.8-1.3c.9-.2 1.8.4 2 1.2l1.4 6c.2.9-.4 1.8-1.2 2l-5.8 1.3c-.9.2-1.8-.4-2-1.2l-1.4-6c-.3-.9.3-1.8 1.2-2zm11.2-2.6l10.5-2.4c.9-.2 1.8.4 2 1.3l1.4 5.9c.2.9-.4 1.8-1.3 2l-10.5 2.4c-.9.2-1.8-.4-2-1.3l-1.4-5.9c-.2-.9.4-1.8 1.3-2zm-120.4 38.9l5.8-1.3c.9-.2 1.8.4 2 1.2l1.4 6c.2.9-.4 1.8-1.2 2l-5.8 1.3c-.9.2-1.8-.4-2-1.2l-1.4-6c-.3-.9.3-1.8 1.2-2zm11.1-2.6l5.8-1.3c.9-.2 1.8.4 2 1.2l1.4 6c.2.9-.4 1.8-1.2 2l-5.8 1.3c-.9.2-1.8-.4-2-1.2l-1.4-6c-.2-.9.4-1.8 1.2-2zm11.2-2.5l5.8-1.3c.9-.2 1.8.4 2 1.2l1.4 6c.2.9-.4 1.8-1.2 2l-5.8 1.3c-.9.2-1.8-.4-2-1.2l-1.4-6c-.3-.9.3-1.8 1.2-2zm11.1-2.6l5.8-1.3c.9-.2 1.8.4 2 1.2l1.4 6c.2.9-.4 1.8-1.2 2l-5.8 1.3c-.9.2-1.8-.4-2-1.2l-1.4-6c-.2-.9.4-1.8 1.2-2zm11.2-2.5l5.8-1.3c.9-.2 1.8.4 2 1.2l1.4 6c.2.9-.4 1.8-1.2 2l-5.8 1.3c-.9.2-1.8-.4-2-1.2l-1.4-6c-.3-.9.3-1.8 1.2-2zm11.1-2.6l5.8-1.3c.9-.2 1.8.4 2 1.2l1.4 6c.2.9-.4 1.8-1.2 2l-5.8 1.3c-.9.2-1.8-.4-2-1.2l-1.4-6c-.2-.9.3-1.8 1.2-2zm11.2-2.5l5.8-1.3c.9-.2 1.8.4 2 1.2l1.4 6c.2.9-.4 1.8-1.2 2l-5.8 1.3c-.9.2-1.8-.4-2-1.2l-1.4-6c-.3-.9.3-1.8 1.2-2zm11.1-2.6l5.8-1.3c.9-.2 1.8.4 2 1.2l1.4 6c.2.9-.4 1.8-1.2 2l-5.8 1.3c-.9.2-1.8-.4-2-1.2l-1.4-6c-.2-.9.3-1.8 1.2-2zm11.2-2.5l5.8-1.3c.9-.2 1.8.4 2 1.2l1.4 6c.2.9-.4 1.8-1.2 2l-5.8 1.3c-.9.2-1.8-.4-2-1.2l-1.4-6c-.3-.9.3-1.8 1.2-2zm11.1-2.6l5.8-1.3c.9-.2 1.8.4 2 1.2l1.4 6c.2.9-.4 1.8-1.2 2l-5.8 1.3c-.9.2-1.8-.4-2-1.2l-1.4-6c-.2-.9.3-1.8 1.2-2zm11.2-2.5l10.5-2.4c.9-.2 1.8.4 2 1.3l1.3 5.9c.2.9-.4 1.8-1.3 2l-10.5 2.4c-.9.2-1.8-.4-2-1.3l-1.3-5.9c-.2-.9.4-1.8 1.3-2zm16.4-3.8l5.5-1.3c.8-.2 1.7.3 1.9 1.2l1.4 6.1c.2.8-.3 1.7-1.2 1.9l-5.5 1.3c-.8.2-1.7-.3-1.9-1.2l-1.4-6.1c-.2-.8.4-1.7 1.2-1.9zm-83.2 36.9l57.9-13.2c.9-.2 1.8.4 2 1.2l6.4 27.9c.2.9-.4 1.8-1.2 2l-57.9 13.2c-.9.2-1.8-.4-2-1.2l-6.4-27.9c-.3-.9.3-1.8 1.2-2zm6.3 33.4l28.8-6.6c.2 0 .4.1.4.3l1.3 5.8c0 .2-.1.4-.3.4l-28.8 6.6c-.2 0-.4-.1-.4-.3l-1.3-5.8c0-.2.1-.3.3-.4zm31.6-7.2l28.8-6.6c.2 0 .4.1.4.3l1.3 5.8c0 .2-.1.4-.3.4l-28.8 6.6c-.2 0-.4-.1-.4-.3l-1.3-5.8c0-.2.1-.4.3-.4z" class="st1"/><path d="M-186 2043.4l-206.6 47.2-3.9-6.6 211.2-48.2z" class="st3"/><path d="M-187.3 2059.5l-197.1 45.1-8.2-14 206.6-47.2z" class="st4"/><path d="M-310.4 2099.8l-40.1 9.1-4.8-8.4 41.4-9.5zm47.2-10.8l-40 9.1-3.3-8.8 43.8-10zm47.2-10.8l-40 9.1v-9.5l41.2-9.4z" class="st3"/><ellipse cx="-350.4" cy="2077.2" transform="rotate(-102.868 -350.348 2077.208)" class="st5" rx="2.7" ry="7.1"/><path d="M-240.06 2050.1l16.86-3.86.56 2.44-16.87 3.85zm-20.1 4.67l16.87-3.85.6 2.44-16.8 3.85zm-20.5 4.56l16.88-3.85.55 2.43-16.86 3.9zm-20.2 4.6l16.86-3.84.56 2.4-16.86 3.8z" class="st5"/><path d="M-309.8 2101.5l.6 1.7-39.6 9-1-1.6zm1.5 2.6l.5 1.7-39.6 9.1-1-1.6zm52.5-15v1.9l39.9-9.1.2-1.9zm0 3l.1 1.8 39.6-9 .2-1.9zm-46.9 7.8l.7 1.6 38.8-8.8.2-1.9zm1.1 2.7l.6 1.7 37.6-8.6.3-1.9z" class="st6"/></g><g id="paper_2_"><path d="M284.1 2080.7l64.1-64 90.6 90.7-64.1 64-90.6-90.7z" class="st7"/><path d="M339 2119.5l5.5-5.7 5 5.2-5.5 5.5z" class="st8"/><path d="M356 2112.6l-5.52 5.52-7.2-7.22 5.5-5.5z" class="st9"/><path d="M362.32 2106.18l-5.52 5.52-12.23-12.24 5.52-5.52z" class="st10"/><path d="M368.77 2099.75l-5.52 5.5-10.53-10.54 5.52-5.5z" class="st11"/><path d="M375.2 2093.32l-5.5 5.52-5.3-5.3 5.5-5.52z" class="st12"/><path d="M381.44 2087.17l-5.52 5.5-7.28-7.28 5.52-5.6z" class="st10"/><path d="M387.78 2080.7l-5.52 5.5-10.53-10.53 5.52-5.5z" class="st11"/><path d="M394.18 2074.36l-5.52 5.5-17.53-17.54 5.52-5.5z" class="st12"/><path d="M375.05 2111.7L351 2135.75l-1.63-1.63 24.05-24.02zm2.65 2.88l-24.07 24.03-1.63-1.6 24.06-24zm2.77 2.78l-24.06 24.02-1.6-1.62 24.1-24.03zm2.77 2.77l-24.05 24.03-1.7-1.63 24.03-24.03zm2.84 2.77l-24.06 24.03-1.62-1.63 24.05-24.03zm2.77 2.74l-24.06 24.03-1.7-1.63 24.03-24.02zm2.85 2.74l-24.05 24.03-1.63-1.6 24.06-24zm-9.15 14.82l-12.03 12.03-1.62-1.63 12.02-12zm20.77-59.82l-24.06 24.03-1.62-1.6 24.05-24zm2.78 2.78l-24.07 24.03-1.62-1.7 24.1-24zm2.7 2.94l-24.04 24.02-1.63-1.62 24.06-24.03zm2.78 2.78l-24.06 24.03-1.62-1.6 24.05-24zm2.8 2.77l-24.06 24.02-1.63-1.62 24-24.03zm2.77 2.78l-24.06 24.02-1.7-1.62 24.03-24.03zm2.83 2.77l-24.05 24.02-1.63-1.63 24.06-24.1zm-4.3 9.96l-16.9 16.9-1.65-1.64 16.9-16.9z" class="st13"/><path d="M323.6 2101.5l-3.5-.5 4.8-31.8 20-3.7 6-31.9 3.4.7-6.4 34.2-19.9 3.7z" class="st14"/><path d="M358.9 2038.4l-2 2-4.4-4.5-4.4 4.5-2-2 6.4-6.3z" class="st14"/><circle cx="345.8" cy="2066.8" r="3.9" class="st15"/><circle cx="326.5" cy="2070.7" r="3.9" class="st15"/><path d="M382.4 2038.4l90.6.4-.6 128.2-90.6-.4.6-128.2z" class="st7"/><path d="M463.88 2124.87l-73.4-.3v-2.3l73.4.3zm0 3.9l-73.5-.3v-2.3l73.5.3zm0 4l-73.5-.3v-2.3l73.5.3zm-.1 3.9l-73.5-.3v-2.3l73.5.3zm0 4l-73.5-.3v-2.3l73.5.3zm0 3.9l-73.5-.3v-2.3l73.5.3zm0 4l-73.5-.3v-2.3l73.5.3zm-56.5 3.8l-17-.1v-2.3l17 .1z" class="st13"/><path d="M437.8 2085.5c-.5 1.5-1.3 2.9-2.3 4l7.9 11.1c4-3.4 6.9-8.1 8-13.5l-13.6-1.6z" class="st16"/><path d="M429.8 2071.4c4.6 1 8.1 4.9 8.5 9.7l13.6 1.6v-.5c0-12.7-9.7-23.2-22.1-24.4v13.6z" class="st14"/><path d="M419.5 2074.7c1.5-1.7 3.5-2.9 5.8-3.3l.1-13.6c-7.2.6-13.6 4.4-17.6 10l11.7 6.9z" class="st17"/><path d="M431.9 2092c-1.4.6-2.8.9-4.4.9-6 0-10.9-4.9-10.9-10.9 0-1.2.3-2.4.6-3.5l-11.7-7c-1.5 3.2-2.4 6.7-2.4 10.4-.1 13.5 10.8 24.4 24.3 24.5 4.5 0 8.7-1.2 12.3-3.3l-7.8-11.1z" class="st18"/></g><g id="mouse"><path d="M259.7 2260.4l-12.9-39.3c-2.9-9-12.7-14-21.7-11l-4.4 1.4-4.4 1.4c-9 3-13.9 12.7-11 21.7l12.9 39.3c2.9 9 12.7 14 21.7 11l4.4-1.4 4.4-1.4c9-2.9 14-12.7 11-21.7z" class="st0"/><path d="M233 2230.6l-1.2-3.5c-.9-3-4.2-4.7-7.2-3.7s-4.6 4.2-3.7 7.2l1.2 3.5c.9 3 4.2 4.7 7.2 3.7 3-.9 4.7-4.2 3.7-7.2z" class="st19"/></g><g id="keyboard"><path d="M177.9 2227.5c0-1.8-1.6-3.3-3.5-3.3H-89.1c-1.9 0-3.5 1.5-3.5 3.3v96.8c0 1.8 1.6 3.3 3.5 3.3h263.5c1.9 0 3.5-1.5 3.5-3.3v-96.8z" class="st0"/><path d="M-71.1 2246.6c0 .5-.4.9-.9.9h-13c-.5 0-.9-.4-.9-.9v-13c0-.5.4-.9.9-.9h13c.5 0 .9.4.9.9v13zm26.9 17.9c0 .5-.4.9-.9.9h-13c-.5 0-.8-.4-.8-.9v-13c0-.5.4-.8.8-.8h13c.5 0 .9.4.9.8v13zm4.3 18c0 .5-.4.8-.9.8h-13c-.5 0-.9-.4-.9-.8v-13c0-.5.4-.8.9-.8h13c.5 0 .9.4.9.8v13zm-8.8 17.9c0 .5-.4.9-.8.9h-13c-.5 0-.8-.4-.8-.9v-13c0-.5.4-.9.8-.9h13c.5 0 .8.4.8.9v13zm-22.4 20.2c0 .5-.4.9-.9.8h-13c-.5 0-.9-.4-.9-.9v-15.3c0-.5.4-.8.9-.8h13c.5 0 .9.4.9.8v15.4zm17.8 0c0 .5-.4.9-.9.8h-13c-.5 0-.9-.4-.9-.8v-15.3c0-.5.4-.8.9-.8h13c.5 0 .9.4.9.8v15.3zm17.9 0c0 .5-.4.9-.9.9h-13c-.5 0-.9-.4-.9-.8v-15.3c0-.5.4-.8.8-.8h13c.5 0 .9.4.9.8l.1 15.2zm152.7 0c0 .5-.4.9-.9.9h-13c-.5 0-.8-.4-.8-.9v-15.3c0-.5.4-.8.8-.8h13c.5 0 .9.4.9.8v15.3zm18 0c0 .5-.4.9-.9.9h-13c-.5 0-.9-.4-.9-.8v-6.8c0-.5.4-.8.9-.8h13c.5 0 .9.4.9.9v6.6zm35.8 0c0 .5-.4.9-.9.9h-13c-.5 0-.9-.4-.9-.9v-6.8c0-.5.4-.8.9-.8h13c.5 0 .9.4.9.9v6.7zm-183.9 0c0 .5-.4.8-.8.8h-17.7c-.5 0-.8-.4-.8-.9v-15.3c0-.5.4-.8.8-.8h17.7c.5 0 .8.4.8.8v15.4zm112.2 0c0 .5-.4.8-.9.9H80.8c-.5 0-.9-.4-.9-.9v-15.3c0-.5.4-.8.9-.8h17.8c.5 0 .9.4.9.8l-.1 15.3zm-22.6 0c0 .5-.4.9-.9.9H-8.8c-.5 0-.9-.4-.9-.8v-15.3c0-.5.4-.8.9-.8h84.7c.5 0 .9.4.9.8v15.2zm-107.6-20.2c0 .5-.4.9-.8.9h-13c-.5 0-.8-.4-.8-.9v-13c0-.5.4-.9.8-.9h13c.5 0 .8.4.8.9v13zm18 0c0 .5-.4.9-.8.9h-13c-.5 0-.9-.4-.9-.9v-13c0-.5.4-.9.9-.9h13c.5 0 .8.4.8.9v13zm17.9 0c0 .5-.4.9-.9.9h-13c-.5 0-.9-.4-.9-.9v-13c0-.5.4-.9.9-.9h13c.5 0 .9.4.9.9v13zm17.9 0c0 .5-.4.9-.8.9h-13c-.5 0-.9-.4-.9-.9v-13c0-.5.4-.9.9-.9h13c.5 0 .8.4.8.9v13zm18 0c0 .5-.4.9-.8.9h-13c-.5 0-.8-.4-.8-.9v-13c0-.5.4-.9.8-.9h13c.5 0 .8.4.8.9v13zm17.9 0c0 .5-.4.9-.8.9h-13c-.5 0-.9-.4-.9-.9v-13c0-.5.4-.9.9-.9h13c.5 0 .8.4.8.9v13zm17.9 0c0 .5-.4.9-.9.9h-13c-.5 0-.8-.4-.8-.9v-13c0-.5.4-.9.8-.9h13c.5 0 .9.4.9.9v13zm17.9 0c0 .5-.4.9-.9.9h-13c-.5 0-.9-.4-.9-.9v-13c0-.5.4-.9.9-.9h13c.5 0 .9.4.9.9v13zm18 0c0 .5-.4.9-.8.9h-13c-.5 0-.9-.4-.9-.9v-13c0-.5.4-.9.9-.9h13c.5 0 .8.4.8.9v13zm17.9 0c0 .5-.4.9-.9.9h-13c-.5 0-.9-.4-.9-.9v-13c0-.5.4-.9.9-.9h13c.5 0 .9.4.9.9v13zm40.4 0c0 .5-.4.9-.9.9h-35.5c-.5 0-.9-.4-.9-.9v-13c0-.5.4-.9.9-.9h35.5c.5 0 .9.4.9.9v13zm-193-17.9c0 .5-.4.8-.8.8h-13c-.5 0-.8-.4-.8-.8v-13c0-.5.4-.8.8-.8h13c.5 0 .8.4.8.8v13zm17.9 0c0 .5-.4.8-.9.8h-13c-.5 0-.8-.4-.8-.8v-13c0-.5.4-.8.8-.8h13c.5 0 .9.4.9.8v13zm18 0c0 .5-.4.8-.8.8H.1c-.5 0-.8-.4-.8-.8v-13c0-.5.4-.8.8-.8h13c.5 0 .8.4.8.8v13zm17.9 0c0 .5-.4.8-.8.8H18c-.5 0-.8-.4-.8-.8v-13c0-.5.4-.8.8-.8h13c.5 0 .8.4.8.8v13zm17.9 0c0 .5-.4.8-.8.8h-13c-.5 0-.9-.4-.9-.8v-13c0-.5.4-.8.9-.8h13c.5 0 .8.4.8.8v13zm18 0c0 .5-.4.8-.8.8h-13c-.5 0-.9-.4-.9-.8v-13c0-.5.4-.8.9-.8h13c.5 0 .9.4.9.8l-.1 13zm17.9 0c0 .5-.4.8-.8.8h-13c-.5 0-.8-.4-.8-.8v-13c0-.5.4-.8.8-.8h13c.5 0 .8.4.8.8v13zm17.9 0c0 .5-.4.8-.8.8h-13c-.5 0-.8-.4-.8-.8v-13c0-.5.4-.8.8-.8h13c.5 0 .8.4.8.8v13zm17.9 0c0 .5-.4.8-.8.8h-13c-.5 0-.8-.4-.8-.8v-13c0-.5.4-.8.8-.8h13c.5 0 .8.4.8.8v13zm18 0c0 .5-.4.8-.8.8h-13c-.5 0-.9-.4-.9-.8v-13c0-.5.4-.8.9-.8h13c.5 0 .8.4.8.8v13zm17.9 0c0 .5-.4.8-.8.8h-13c-.5 0-.8-.4-.8-.8v-13c0-.5.4-.8.8-.8h13c.5 0 .8.4.8.8v13zm-183.5-18c0 .5-.4.9-.9.9h-13c-.5 0-.9-.4-.9-.9v-13c0-.5.4-.8.9-.8h13c.5 0 .9.4.9.8v13zm17.9 0c0 .5-.4.9-.9.9h-13c-.5 0-.8-.4-.8-.9v-13c0-.5.4-.8.8-.8h13c.5 0 .9.4.9.8v13zm17.9 0c0 .5-.4.9-.9.9h-13c-.5 0-.8-.4-.8-.9v-13c0-.5.4-.8.8-.8h13c.5 0 .9.4.9.8v13zm18 0c0 .5-.4.9-.8.9h-13c-.5 0-.9-.4-.9-.9v-13c0-.5.4-.8.9-.8h13c.5 0 .8.4.8.8v13zm17.9 0c0 .5-.4.9-.9.9h-13c-.5 0-.8-.4-.8-.9v-13c0-.5.4-.8.8-.8h13c.5 0 .9.4.9.8v13zm17.9 0c0 .5-.4.9-.8.9h-13c-.5 0-.9-.4-.9-.9v-13c0-.5.4-.8.9-.8h13c.5 0 .8.4.8.8v13zm17.9 0c0 .5-.4.9-.8.9h-13c-.5 0-.8-.4-.8-.9v-13c0-.5.4-.8.8-.8h13c.5 0 .8.4.8.8v13zm18 0c0 .5-.4.9-.9.9h-13c-.5 0-.8-.4-.8-.9v-13c0-.5.4-.8.8-.8h13c.5 0 .9.4.9.8v13zm17.9 0c0 .5-.4.9-.8.9h-13c-.5 0-.8-.4-.8-.9v-13c0-.5.4-.8.8-.8h13c.5 0 .8.4.8.8v13zm17.9 0c0 .5-.4.9-.9.9h-13c-.5 0-.8-.4-.8-.9v-13c0-.5.4-.8.8-.8h13c.5 0 .9.4.9.8v13zm17.9 0c0 .5-.4.9-.8.9h-13c-.5 0-.9-.4-.9-.9v-13c0-.5.4-.8.9-.8h13c.5 0 .8.4.8.8v13zm-215.1 0c0 .5-.4.9-.8.9H-85c-.5 0-.9-.4-.9-.9v-13c0-.5.4-.8.9-.8h22.1c.5 0 .9.4.9.8l-.1 13zm233.1-17.9c0 .5-.4.9-.9.9H148c-.5 0-.8-.4-.8-.9v-13c0-.5.4-.9.8-.9h22.1c.5 0 .8.4.9.9v13zm-228.8 35.9c0 .5-.4.8-.9.8H-85c-.5 0-.9-.4-.9-.8v-13c0-.5.4-.8.9-.8h26.3c.5 0 .9.4.9.8v13zm-8.8 17.9c0 .5-.4.9-.9.9H-85c-.5 0-.9-.4-.9-.9v-13c0-.5.4-.9.9-.9h17.5c.5 0 .9.4.9.9v13zm13.4-53.8c0 .5-.4.9-.9.9h-13c-.5 0-.9-.4-.9-.9v-13c0-.5.4-.9.9-.9h13c.5 0 .9.4.9.9v13zm17.9 0c0 .5-.4.9-.9.9h-13c-.5 0-.8-.4-.8-.9v-13c0-.5.4-.9.8-.9h13c.5 0 .8.4.8.9l.1 13zm17.9 0c0 .5-.4.9-.9.9h-13c-.5 0-.8-.4-.8-.9v-13c0-.5.4-.9.8-.9h13c.5 0 .9.4.9.9v13zm18 0c0 .5-.4.9-.9.9h-13c-.5 0-.9-.4-.9-.9v-13c0-.5.4-.9.8-.9h13c.5 0 .9.4.9.9l.1 13zm17.9 0c0 .5-.4.9-.8.9h-13c-.5 0-.8-.4-.8-.9v-13c0-.5.4-.9.8-.9h13c.5 0 .8.4.8.9v13zm17.9 0c0 .5-.4.9-.9.9h-13c-.5 0-.9-.4-.9-.9v-13c0-.5.4-.9.9-.9h13c.5 0 .9.4.9.9v13zm17.9 0c0 .5-.4.9-.8.9h-13c-.5 0-.9-.4-.9-.9v-13c0-.5.4-.9.9-.9h13c.5 0 .8.4.8.9v13zm18 0c0 .5-.4.9-.9.9h-13c-.5 0-.8-.4-.8-.9v-13c0-.5.4-.9.8-.9h13c.5 0 .9.4.9.9v13zm17.9 0c0 .5-.4.9-.8.9h-13c-.5 0-.9-.4-.9-.9v-13c0-.5.4-.9.9-.9h13c.5 0 .8.4.8.9v13zm17.9 0c0 .5-.4.9-.8.9h-13c-.5 0-.8-.4-.8-.9v-13c0-.5.4-.9.8-.9h13c.5 0 .8.4.8.9v13zm18 0c0 .5-.4.9-.9.9h-13c-.5 0-.9-.4-.9-.9v-13c0-.5.4-.9.9-.9h13c.5 0 .9.4.9.9v13zm17.9 0c0 .5-.4.9-.8.9h-13c-.5 0-.8-.4-.8-.9v-13c0-.5.4-.9.8-.9h13c.5 0 .8.4.8.9v13zm-5.5 66.8v7.2c0 .2.1.4.2.6.2.2.4.2.6.3h13c.2 0 .4-.1.6-.3.2-.2.2-.4.2-.6v-7.2h-14.6zm14.7-.9v-7.2c0-.2-.1-.4-.2-.6-.2-.2-.4-.3-.6-.3h-13c-.2 0-.4.1-.6.3-.2.2-.2.4-.2.6v7.2h14.6zm3.9-61.8c-.2 0-.4.1-.6.2-.2.2-.2.4-.2.6v13c0 .2.1.4.2.6.2.2.4.3.6.3h3.4v17.1c0 .2.1.4.2.6.2.2.4.2.6.2h8.8c.2 0 .4-.1.6-.2.2-.2.2-.4.2-.6v-30.9c0-.2-.1-.4-.2-.6-.2-.2-.4-.2-.6-.2l-13-.1z" class="st1"/></g><path d="M426.7 2232.8c17.8 30.1 15.5 55.3 15.4 56.3l-3.7-.4c0-.2 2.2-25.1-14.9-54.1l3.2-1.8z" class="st1"/><path d="M409.2 2229.2c-1.5-2.6-.6-5.9 2-7.4l3.5-2c2.6-1.5 5.9-.6 7.4 2l7.9 13.9c1.5 2.6.6 5.9-2 7.4l-3.5 2c-2.6 1.5-5.9.6-7.4-2l-7.9-13.9z" class="st20"/><path d="M392.6 2232.6c-2.5-4.3-1-9.8 3.3-12.2l5.8-3.3c4.3-2.5 9.8-1 12.2 3.3l13.2 23.1c2.5 4.3 1 9.8-3.3 12.2l-5.8 3.3c-4.3 2.5-9.8 1-12.2-3.3l-13.2-23.1z" class="st21"/><path d="M386.3 2227.4c-1.8-3.1-.7-7 2.4-8.7l1.3-.7c3.1-1.8 7-.7 8.7 2.4l20.7 36.4c1.8 3.1.7 7-2.4 8.7l-1.3.7c-3.1 1.8-7 .7-8.7-2.4l-20.7-36.4z" class="st0"/><path d="M327.3 2252.5l3.7.5c-4.8 33.4 6.8 55.5 6.9 55.7l-3.3 1.8c-.5-1-12.2-23.4-7.3-58z" class="st1"/><path d="M342.1 2242.5c.4-3-1.7-5.7-4.7-6l-4-.5c-3-.4-5.7 1.7-6 4.7l-2 15.9c-.4 3 1.7 5.7 4.7 6l4 .5c3 .4 5.7-1.7 6-4.7l2-15.9z" class="st20"/><path d="M358.7 2239.3c.6-4.9-2.9-9.4-7.8-10l-6.6-.8c-4.9-.6-9.4 2.9-10 7.8l-3.4 26.4c-.6 4.9 2.9 9.4 7.8 10l6.6.8c4.9.6 9.4-2.9 10-7.8l3.4-26.4z" class="st21"/><path d="M362.6 2232.1c.4-3.5-2-6.7-5.5-7.2l-1.5-.2c-3.5-.4-6.7 2-7.2 5.5l-5.3 41.5c-.4 3.5 2 6.7 5.5 7.2l1.5.2c3.5.4 6.7-2 7.2-5.5l5.3-41.5z" class="st0"/><path d="M437.5 2286.8c.8-.1 1.6-.1 2.4 0 3 .7 4.8 3.7 4.1 6.7-4.2 17.9-19.2 39.2-48.6 45-22.9 4.5-45.3-3-61.3-20.6-2.1-2.3-1.9-5.8.4-7.9 2.3-2.1 5.8-1.9 7.9.4 6.3 7 24 22.6 50.9 17.2 24.2-4.8 36.5-22.1 39.9-36.6.5-2.2 2.2-3.8 4.3-4.2z" class="st19"/><path d="M439.9 2286.9c-.8-.2-1.6-.2-2.4 0-2.1.4-3.8 2-4.3 4.2-3.4 14.6-15.7 31.8-39.9 36.6-27 5.4-44.6-10.3-50.9-17.2-2.1-2.3-5.6-2.4-7.9-.4-.5.4-.9 1-1.2 1.5.2.4.5.8.8 1.1 16.1 17.7 38.4 25.2 61.3 20.6 28.5-5.7 43.5-25.9 48.2-43.5-.7-1.4-2-2.5-3.7-2.9z" class="st0"/><path d="M322.7 2231.1c-2.1 0-4.2-.2-6.5-.6-8.9-1.7-15.3-6.9-17.6-14.2-3.1-10 1.9-22.6 13.7-34.5 6.4-6.4 8.4-14.1 5.7-21-2.8-6.9-9.9-12-17.5-12.2-4.9-.2-14 1.6-20.2 14.8-3.9 8.1-15.8 12.8-27.3 10.6-11.2-2.2-18.3-10.2-19-21.5-1.6-26.8 20.3-45 63.3-52.9l.2 1.2c-42.3 7.7-63.8 25.6-62.3 51.6.9 15.4 12.9 19.4 18 20.3 10.9 2.1 22.3-2.2 25.9-9.9 4.8-10.1 12.6-15.8 21.4-15.5 8 .3 15.6 5.6 18.6 13s.8 15.6-5.9 22.4c-11.5 11.6-16.4 23.7-13.4 33.3 2.2 6.9 8.2 11.8 16.6 13.4 7.8 1.5 14.6.3 20.2-3.6 10-7 13.3-20.4 14.3-25.9 2.8-16 13.8-24.5 32.7-25.5 8.1-.4 14.5 1.7 19.2 6.1 7.4 7 8.2 18 8.1 22.4 0 8.5 4.7 16.6 4.8 16.7l-1.1.6c-.2-.3-5-8.5-4.9-17.3 0-4.2-.7-14.8-7.8-21.5-4.4-4.2-10.6-6.1-18.3-5.8-18.3.9-28.9 9.1-31.5 24.4-1 5.6-4.4 19.5-14.8 26.7-4.1 2.9-9 4.4-14.6 4.4z" class="st19"/><path d="M319.1 2094.8c.1.5-.2 1-.7 1.1l-10.3 2.3c-.5.1-1-.2-1.1-.7-.1-.5.2-1 .7-1.1l10.3-2.3c.5-.1 1 .2 1.1.7z" class="st22"/><path d="M309.2 2094.7l-10.7 2.3c-1.3.3-2.1 1.6-1.8 2.9.3 1.3 1.6 2.1 2.9 1.8l10.7-2.3-1.1-4.7z" class="st0"/><path d="M307.53 2095.12l.7-.16 1.02 4.7-.7.14z" class="st23"/><g id="telephone"><path d="M-107.8 2289.5c.5 1.9-.7 3.9-2.7 4.3l-27.9 6.6c-1.9.5-3.9-.7-4.3-2.7l-13.2-56.4c-.5-1.9.7-3.9 2.7-4.3l27.9-6.6c1.9-.5 3.9.7 4.3 2.7l13.2 56.4z" class="st0"/><path d="M-154.07 2244.28l32.8-7.7 12.63 53.73-32.8 7.8z" class="st21"/><circle cx="-138.6" cy="2237" r=".9" class="st24"/></g><g id="pencil_2_"><path d="M488.9 2083l-69.9-69.9c-.5.8-.3 1.9.4 2.9l68.3 68.3 1.2-1.3z" class="st25"/><path d="M484.8 2087.1l2.9-2.9-68.3-68.3c-1-.9-2.4-1-3.1-.3s-.6 2.1.3 3.1l68.2 68.4z" class="st26"/><path d="M416.5 2018.8c-.9-.8-2.1-1-2.9-.5l69.9 69.9 1.2-1.2-68.2-68.2z" class="st25"/><path d="M413.6 2018.4c.8-.5 1.9-.3 2.9.5-.9-1-1-2.4-.3-3.1s2.1-.6 3.1.3c-.8-.9-1-2.1-.4-2.9l-7.1-1.8 1.8 7z" class="st27"/><path d="M415.3 2012.1l-3.5-.9.9 3.5c.6-.3 1.1-.6 1.5-1.1.5-.4.8-.9 1.1-1.5z" class="st28"/><path d="M487.73 2084.24l1.2-1.2 2.13 2.12-1.2 1.2z" class="st29"/><path d="M484.82 2087.08l2.9-2.9 2.12 2.13-2.9 2.9z" class="st30"/><path d="M483.65 2088.35l1.2-1.2 2.12 2.12-1.2 1.2z" class="st29"/></g><g id="screen"><path d="M124.4 2140.4c0 12.8-10.4 23.2-23.2 23.2H-16.2c-12.8 0-23.2-10.4-23.2-23.2v-5.9c0-12.8 10.4-23.2 23.2-23.2h117.4c12.8 0 23.2 10.4 23.2 23.2v5.9z" class="st1"/><path d="M-167.4 2030.4c.3.8.5 1.6.9 2.4l30.3 84.5h355.6l32.8-86.9h-419.6z" class="st31"/><path d="M252 2030.8l.7-1.8c1.1-2.8-.2-5.8-3.5-5.8h-412.9c-3.5 0-5.1 3.4-3.6 7.7l419.3-.1z" class="st0"/><path d="M232.5 2040.5l-24.7 69.6h-332.3l-24.9-69.6z" class="st32"/><path d="M-136.3 2117.3l4.2 11.7c1.7 4.7 7.1 8.5 12 8.5h322.8c4.9 0 10.4-3.8 12.2-8.4l4.5-11.8h-355.7z" class="st0"/></g><path d="M485.6 2082.1l-2.9 2.9-1.2 1.2 2.1 2.1 1.2-1.2 2.9-2.8 1.2-1.3-2.1-2.1z"/></g></g></svg>