<?xml version="1.0" encoding="utf-8"?>
<!-- Generator: Adobe Illustrator 19.0.0, SVG Export Plug-In . SVG Version: 6.00 Build 0)  -->
<svg version="1.1" id="Layer_1" xmlns="http://www.w3.org/2000/svg" xmlns:xlink="http://www.w3.org/1999/xlink" x="0px" y="0px"
	 viewBox="-411 2011.2 903.5 298.8" style="enable-background:new -411 2011.2 903.5 298.8;" xml:space="preserve">
<style type="text/css">
	.st0{fill:#333333;}
	.st1{fill:#444444;}
	.st2{fill:#FFFFFF;}
	.st3{fill:#104D7C;}
	.st4{fill:#A2D7E7;}
	.st5{fill:#E6E7E8;}
	.st6{fill:#A7A9AC;}
	.st7{fill:#F5F5F5;}
	.st8{fill:#4C8EB4;}
	.st9{fill:#609DC1;}
	.st10{fill:#73ACCD;}
	.st11{fill:#87BBDA;}
	.st12{fill:#9ACAE6;}
	.st13{fill:#CCCCCC;}
	.st14{fill:#FEC00F;}
	.st15{fill:#15B0BF;}
	.st16{fill:#00A295;}
	.st17{fill:#FF7C55;}
	.st18{fill:#2C465F;}
	.st19{fill:#666666;}
	.st20{fill:#453F41;}
	.st21{fill:#555555;}
	.st22{fill:#888888;}
	.st23{fill:#312726;}
	.st24{fill:#414042;}
	.st25{fill:#F7B03E;}
	.st26{fill:#FDC915;}
	.st27{fill:#F0B16C;}
	.st28{fill:#103754;}
	.st29{fill:#C62229;}
	.st30{fill:#F85A68;}
	.st31{fill:#000405;}
	.st32{fill:#71B2C8;}
</style>
<g id="Objects">
	<g id="Work_Space">
		<g id="laptop">
			<path class="st0" d="M-373.6,2130.3l188.3-43c2.4-0.6,4.8,1,5.4,3.4l27.9,122.1c0.6,2.4-1,4.8-3.4,5.4l-188.3,43
				c-2.4,0.6-4.8-1-5.4-3.4l-27.9-122.1C-377.6,2133.3-376,2130.9-373.6,2130.3z"/>
			<path class="st1" d="M-365.1,2128.4l10.9-2.5l1.4,6.2c0.1,0.6-0.2,1.1-0.8,1.3l-8.9,2c-0.6,0.1-1.1-0.2-1.3-0.8L-365.1,2128.4z"
				/>
			<path class="st1" d="M-204.8,2091.8l10.9-2.5l1.4,6.2c0.1,0.6-0.2,1.1-0.8,1.3l-8.9,2c-0.6,0.1-1.1-0.2-1.3-0.8L-204.8,2091.8z"
				/>
			<path class="st0" d="M-405.1,2076.6l224.3-51.3c5.4-1.2,7.6,0.9,6.2,4.9l-7.4,54l-196.6,44.9l-27.4-42.9
				C-411,2081.2-411,2077.9-405.1,2076.6z"/>
			<polygon class="st2" points="-185.3,2035.8 -189.2,2081.7 -372.9,2123.6 -396.5,2084 			"/>
			<path class="st1" d="M-406.1,2077.7l227.4-51.9c0.5-0.1,1,0.2,1.1,0.7l0,0c0.1,0.5-0.2,1-0.7,1.1l-227.4,51.9
				c-0.5,0.1-1-0.2-1.1-0.7l0,0C-406.9,2078.3-406.6,2077.8-406.1,2077.7z"/>
			<path class="st0" d="M-364.8,2122.4l7.8-1.8c0.5-0.1,1,0.2,1.1,0.7l2.1,9.2c0.1,0.5-0.2,1-0.7,1.1l-7.8,1.8
				c-0.5,0.1-1-0.2-1.1-0.7l-2.1-9.2C-365.6,2123-365.3,2122.5-364.8,2122.4z"/>
			<path class="st0" d="M-204.5,2085.7l7.8-1.8c0.5-0.1,1,0.2,1.1,0.7l2.1,9.2c0.1,0.5-0.2,1-0.7,1.1l-7.8,1.8
				c-0.5,0.1-1-0.2-1.1-0.7l-2.1-9.2C-205.3,2086.4-205,2085.9-204.5,2085.7z"/>
			<path class="st1" d="M-196.1,2108.1l6.1-1.4c0.7-0.2,1.4,0.3,1.5,1l1,4.5c0.2,0.7-0.3,1.4-1,1.5l-6.1,1.4c-0.7,0.2-1.4-0.3-1.5-1
				l-1-4.5C-197.2,2109-196.8,2108.3-196.1,2108.1z"/>
			<path class="st1" d="M-193.8,2116.7l5.5-1.3c0.8-0.2,1.7,0.3,1.9,1.2l1.4,6.1c0.2,0.8-0.3,1.7-1.2,1.9l-5.5,1.3
				c-0.8,0.2-1.7-0.3-1.9-1.2l-1.4-6.1C-195.2,2117.7-194.7,2116.9-193.8,2116.7z"/>
			<path class="st1" d="M-191.4,2127.5l5.5-1.3c0.8-0.2,1.7,0.3,1.9,1.2l1.4,6.1c0.2,0.8-0.3,1.7-1.2,1.9l-5.5,1.3
				c-0.8,0.2-1.7-0.3-1.9-1.2l-1.4-6.1C-192.8,2128.5-192.2,2127.7-191.4,2127.5z"/>
			<path class="st1" d="M-188.9,2138.3l5.5-1.3c0.8-0.2,1.7,0.3,1.9,1.2l1.4,6.1c0.2,0.8-0.3,1.7-1.2,1.9l-5.5,1.3
				c-0.8,0.2-1.7-0.3-1.9-1.2l-1.4-6.1C-190.3,2139.3-189.8,2138.5-188.9,2138.3z"/>
			<path class="st1" d="M-186.5,2149l5.5-1.3c0.8-0.2,1.7,0.3,1.9,1.2l1.4,6.1c0.2,0.8-0.3,1.7-1.2,1.9l-5.5,1.3
				c-0.8,0.2-1.7-0.3-1.9-1.2l-1.4-6.1C-187.8,2150.1-187.3,2149.2-186.5,2149z"/>
			<path class="st1" d="M-184,2159.8l5.5-1.3c0.8-0.2,1.7,0.3,1.9,1.2l1.4,6.1c0.2,0.8-0.3,1.7-1.2,1.9l-5.5,1.3
				c-0.8,0.2-1.7-0.3-1.9-1.2l-1.4-6.1C-185.4,2160.9-184.8,2160-184,2159.8z"/>
			<path class="st1" d="M-206.8,2110.6l6.1-1.4c0.7-0.2,1.4,0.3,1.5,1l1,4.5c0.2,0.7-0.3,1.4-1,1.5l-6.1,1.4c-0.7,0.2-1.4-0.3-1.5-1
				l-1-4.5C-208,2111.4-207.5,2110.8-206.8,2110.6z"/>
			<path class="st1" d="M-214.4,2121.4l15.2-3.5c0.9-0.2,1.8,0.4,2,1.3l1.4,5.9c0.2,0.9-0.4,1.8-1.3,2l-15.2,3.5
				c-0.9,0.2-1.8-0.4-2-1.3l-1.3-5.9C-215.9,2122.5-215.3,2121.6-214.4,2121.4z"/>
			<path class="st1" d="M-205,2130.6l8.2-1.9c0.9-0.2,1.8,0.4,2,1.3l1.3,5.9c0.2,0.9-0.4,1.8-1.3,2l-8.2,1.9c-0.9,0.2-1.8-0.4-2-1.3
				l-1.4-5.9C-206.4,2131.7-205.9,2130.8-205,2130.6z"/>
			<path class="st1" d="M-210.7,2143.2l16.4-3.8c0.9-0.2,1.8,0.4,2,1.3l1.4,5.9c0.2,0.9-0.4,1.8-1.3,2l-16.4,3.8
				c-0.9,0.2-1.8-0.4-2-1.3l-1.4-5.9C-212.2,2144.4-211.6,2143.4-210.7,2143.2z"/>
			<path class="st1" d="M-197.2,2151.5l5.5-1.3c0.8-0.2,1.7,0.3,1.9,1.2l1.4,6.1c0.2,0.8-0.3,1.7-1.2,1.9l-5.5,1.3
				c-0.8,0.2-1.7-0.3-1.9-1.2l-1.4-6.1C-198.6,2152.5-198,2151.7-197.2,2151.5z"/>
			<path class="st1" d="M-194.7,2162.3l5.5-1.3c0.8-0.2,1.7,0.3,1.9,1.2l1.4,6.1c0.2,0.8-0.3,1.7-1.2,1.9l-5.5,1.3
				c-0.8,0.2-1.7-0.3-1.9-1.2l-1.4-6.1C-196.1,2163.3-195.6,2162.5-194.7,2162.3z"/>
			<path class="st1" d="M-216.8,2112.9l5.3-1.2c0.7-0.2,1.4,0.3,1.5,1l1,4.5c0.2,0.7-0.3,1.4-1,1.5l-5.3,1.2c-0.7,0.2-1.4-0.3-1.5-1
				l-1-4.5C-217.9,2113.7-217.5,2113-216.8,2112.9z"/>
			<path class="st1" d="M-226.9,2115.2l5.3-1.2c0.7-0.2,1.4,0.3,1.5,1l1,4.5c0.2,0.7-0.3,1.4-1,1.5l-5.3,1.2c-0.7,0.2-1.4-0.3-1.5-1
				l-1-4.5C-228,2116-227.5,2115.3-226.9,2115.2z"/>
			<path class="st1" d="M-236.9,2117.5l5.3-1.2c0.7-0.2,1.4,0.3,1.5,1l1,4.5c0.2,0.7-0.3,1.4-1,1.5l-5.3,1.2c-0.7,0.2-1.4-0.3-1.5-1
				l-1-4.5C-238.1,2118.3-237.6,2117.6-236.9,2117.5z"/>
			<path class="st1" d="M-247,2119.8l5.3-1.2c0.7-0.2,1.4,0.3,1.5,1l1,4.5c0.2,0.7-0.3,1.4-1,1.5l-5.3,1.2c-0.7,0.2-1.4-0.3-1.5-1
				l-1-4.5C-248.2,2120.6-247.7,2119.9-247,2119.8z"/>
			<path class="st1" d="M-257.1,2122.1l5.3-1.2c0.7-0.2,1.4,0.3,1.5,1l1,4.5c0.2,0.7-0.3,1.4-1,1.5l-5.3,1.2c-0.7,0.2-1.4-0.3-1.5-1
				l-1-4.5C-258.2,2122.9-257.8,2122.2-257.1,2122.1z"/>
			<path class="st1" d="M-267.2,2124.4l5.3-1.2c0.7-0.2,1.4,0.3,1.5,1l1,4.5c0.2,0.7-0.3,1.4-1,1.5l-5.3,1.2c-0.7,0.2-1.4-0.3-1.5-1
				l-1-4.5C-268.3,2125.2-267.9,2124.5-267.2,2124.4z"/>
			<path class="st1" d="M-277.3,2126.7l5.3-1.2c0.7-0.2,1.4,0.3,1.5,1l1,4.5c0.2,0.7-0.3,1.4-1,1.5l-5.3,1.2c-0.7,0.2-1.4-0.3-1.5-1
				l-1-4.5C-278.4,2127.5-278,2126.8-277.3,2126.7z"/>
			<path class="st1" d="M-287.4,2129l5.3-1.2c0.7-0.2,1.4,0.3,1.5,1l1,4.5c0.2,0.7-0.3,1.4-1,1.5l-5.3,1.2c-0.7,0.2-1.4-0.3-1.5-1
				l-1-4.5C-288.5,2129.8-288.1,2129.1-287.4,2129z"/>
			<path class="st1" d="M-297.5,2131.3l5.3-1.2c0.7-0.2,1.4,0.3,1.5,1l1,4.5c0.2,0.7-0.3,1.4-1,1.5l-5.3,1.2c-0.7,0.2-1.4-0.3-1.5-1
				l-1-4.5C-298.6,2132.1-298.1,2131.5-297.5,2131.3z"/>
			<path class="st1" d="M-307.5,2133.6l5.3-1.2c0.7-0.2,1.4,0.3,1.5,1l1,4.5c0.2,0.7-0.3,1.4-1,1.5l-5.3,1.2c-0.7,0.2-1.4-0.3-1.5-1
				l-1-4.5C-308.7,2134.5-308.2,2133.8-307.5,2133.6z"/>
			<path class="st1" d="M-317.6,2135.9l5.3-1.2c0.7-0.2,1.4,0.3,1.5,1l1,4.5c0.2,0.7-0.3,1.4-1,1.5l-5.3,1.2c-0.7,0.2-1.4-0.3-1.5-1
				l-1-4.5C-318.8,2136.8-318.3,2136.1-317.6,2135.9z"/>
			<path class="st1" d="M-327.7,2138.2l5.3-1.2c0.7-0.2,1.4,0.3,1.5,1l1,4.5c0.2,0.7-0.3,1.4-1,1.5l-5.3,1.2c-0.7,0.2-1.4-0.3-1.5-1
				l-1-4.5C-328.8,2139.1-328.4,2138.4-327.7,2138.2z"/>
			<path class="st1" d="M-337.8,2140.5l5.3-1.2c0.7-0.2,1.4,0.3,1.5,1l1,4.5c0.2,0.7-0.3,1.4-1,1.5l-5.3,1.2c-0.7,0.2-1.4-0.3-1.5-1
				l-1-4.5C-338.9,2141.4-338.5,2140.7-337.8,2140.5z"/>
			<path class="st1" d="M-347.9,2142.8l5.3-1.2c0.7-0.2,1.4,0.3,1.5,1l1,4.5c0.2,0.7-0.3,1.4-1,1.5l-5.3,1.2c-0.7,0.2-1.4-0.3-1.5-1
				l-1-4.5C-349,2143.7-348.6,2143-347.9,2142.8z"/>
			<path class="st1" d="M-359.2,2145.4l6.1-1.4c0.7-0.2,1.4,0.3,1.5,1l1,4.5c0.2,0.7-0.3,1.4-1,1.5l-6.1,1.4c-0.7,0.2-1.4-0.3-1.5-1
				l-1-4.5C-360.3,2146.3-359.9,2145.6-359.2,2145.4z"/>
			<path class="st1" d="M-225.3,2123.9l5.4-1.2c0.8-0.2,1.7,0.3,1.9,1.2l1.4,6.2c0.2,0.8-0.3,1.7-1.2,1.9l-5.4,1.2
				c-0.8,0.2-1.7-0.3-1.9-1.2l-1.4-6.2C-226.6,2124.9-226.1,2124.1-225.3,2123.9z"/>
			<path class="st1" d="M-236.2,2126.4l5.4-1.2c0.8-0.2,1.7,0.3,1.9,1.2l1.4,6.2c0.2,0.8-0.3,1.7-1.2,1.9l-5.4,1.2
				c-0.8,0.2-1.7-0.3-1.9-1.2l-1.4-6.2C-237.6,2127.4-237.1,2126.6-236.2,2126.4z"/>
			<path class="st1" d="M-247.2,2128.9l5.4-1.2c0.8-0.2,1.7,0.3,1.9,1.2l1.4,6.2c0.2,0.8-0.3,1.7-1.2,1.9l-5.4,1.2
				c-0.8,0.2-1.7-0.3-1.9-1.2l-1.4-6.2C-248.5,2129.9-248,2129.1-247.2,2128.9z"/>
			<path class="st1" d="M-258.1,2131.4l5.4-1.2c0.8-0.2,1.7,0.3,1.9,1.2l1.4,6.2c0.2,0.8-0.3,1.7-1.2,1.9l-5.4,1.2
				c-0.8,0.2-1.7-0.3-1.9-1.2l-1.4-6.2C-259.5,2132.4-259,2131.6-258.1,2131.4z"/>
			<path class="st1" d="M-269.1,2133.9l5.4-1.2c0.8-0.2,1.7,0.3,1.9,1.2l1.4,6.2c0.2,0.8-0.3,1.7-1.2,1.9l-5.4,1.2
				c-0.8,0.2-1.7-0.3-1.9-1.2l-1.4-6.2C-270.4,2134.9-269.9,2134.1-269.1,2133.9z"/>
			<path class="st1" d="M-280,2136.4l5.4-1.2c0.8-0.2,1.7,0.3,1.9,1.2l1.4,6.2c0.2,0.8-0.3,1.7-1.2,1.9l-5.4,1.2
				c-0.8,0.2-1.7-0.3-1.9-1.2l-1.4-6.2C-281.4,2137.4-280.8,2136.6-280,2136.4z"/>
			<path class="st1" d="M-291,2138.9l5.4-1.2c0.8-0.2,1.7,0.3,1.9,1.2l1.4,6.2c0.2,0.8-0.3,1.7-1.2,1.9l-5.4,1.2
				c-0.8,0.2-1.7-0.3-1.9-1.2l-1.4-6.2C-292.3,2139.9-291.8,2139.1-291,2138.9z"/>
			<path class="st1" d="M-301.9,2141.4l5.4-1.2c0.8-0.2,1.7,0.3,1.9,1.2l1.4,6.2c0.2,0.8-0.3,1.7-1.2,1.9l-5.4,1.2
				c-0.8,0.2-1.7-0.3-1.9-1.2l-1.4-6.2C-303.2,2142.4-302.7,2141.6-301.9,2141.4z"/>
			<path class="st1" d="M-312.8,2143.9l5.4-1.2c0.8-0.2,1.7,0.3,1.9,1.2l1.4,6.2c0.2,0.8-0.3,1.7-1.2,1.9l-5.4,1.2
				c-0.8,0.2-1.7-0.3-1.8-1.2l-1.4-6.2C-314.2,2144.9-313.7,2144.1-312.8,2143.9z"/>
			<path class="st1" d="M-323.8,2146.4l5.4-1.2c0.8-0.2,1.7,0.3,1.9,1.2l1.4,6.2c0.2,0.8-0.3,1.7-1.2,1.9l-5.4,1.2
				c-0.8,0.2-1.7-0.3-1.9-1.2l-1.4-6.2C-325.1,2147.4-324.6,2146.6-323.8,2146.4z"/>
			<path class="st1" d="M-334.7,2148.9l5.4-1.2c0.8-0.2,1.7,0.3,1.9,1.2l1.4,6.2c0.2,0.8-0.3,1.7-1.2,1.9l-5.4,1.2
				c-0.8,0.2-1.7-0.3-1.8-1.2l-1.4-6.2C-336.1,2149.9-335.5,2149.1-334.7,2148.9z"/>
			<path class="st1" d="M-345.7,2151.4l5.4-1.2c0.8-0.2,1.7,0.3,1.9,1.2l1.4,6.2c0.2,0.8-0.3,1.7-1.2,1.9l-5.4,1.2
				c-0.8,0.2-1.7-0.3-1.9-1.2l-1.4-6.2C-347,2152.4-346.5,2151.6-345.7,2151.4z"/>
			<path class="st1" d="M-357,2154l5.5-1.3c0.8-0.2,1.7,0.3,1.9,1.2l1.4,6.1c0.2,0.8-0.3,1.7-1.2,1.9l-5.5,1.3
				c-0.8,0.2-1.7-0.3-1.9-1.2l-1.4-6.1C-358.3,2155-357.8,2154.2-357,2154z"/>
			<path class="st1" d="M-354.4,2164.7l11.4-2.6c0.9-0.2,1.8,0.4,2,1.3l1.3,5.9c0.2,0.9-0.4,1.8-1.3,2l-11.4,2.6
				c-0.9,0.2-1.8-0.4-2-1.3l-1.4-5.9C-355.9,2165.8-355.3,2164.9-354.4,2164.7z"/>
			<path class="st1" d="M-351.9,2175.5l13.5-3.1c0.9-0.2,1.8,0.4,2,1.3l1.3,5.9c0.2,0.9-0.4,1.8-1.3,2l-13.5,3.1
				c-0.9,0.2-1.8-0.4-2-1.3l-1.3-5.9C-353.4,2176.6-352.8,2175.7-351.9,2175.5z"/>
			<path class="st1" d="M-349.5,2186.3l19.4-4.4c0.9-0.2,1.8,0.4,2,1.3l1.3,5.9c0.2,0.9-0.4,1.8-1.3,2l-19.4,4.4
				c-0.9,0.2-1.8-0.4-2-1.3l-1.3-5.9C-350.9,2187.4-350.4,2186.5-349.5,2186.3z"/>
			<path class="st1" d="M-347,2197.1l8-1.8c0.9-0.2,1.8,0.4,2,1.3l1.3,5.9c0.2,0.9-0.4,1.8-1.3,2l-8,1.8c-0.9,0.2-1.8-0.4-2-1.3
				l-1.3-5.9C-348.5,2198.2-347.9,2197.3-347,2197.1z"/>
			<path class="st1" d="M-338.4,2161.1l5.8-1.3c0.9-0.2,1.8,0.4,2,1.2l1.4,6c0.2,0.9-0.4,1.8-1.2,2l-5.8,1.3c-0.9,0.2-1.8-0.4-2-1.2
				l-1.4-6C-339.9,2162.2-339.3,2161.3-338.4,2161.1z"/>
			<path class="st1" d="M-327.3,2158.5l5.8-1.3c0.9-0.2,1.8,0.4,2,1.2l1.4,6c0.2,0.9-0.4,1.8-1.2,2l-5.8,1.3c-0.9,0.2-1.8-0.4-2-1.2
				l-1.4-6C-328.7,2159.6-328.1,2158.7-327.3,2158.5z"/>
			<path class="st1" d="M-316.1,2156l5.8-1.3c0.9-0.2,1.8,0.4,2,1.2l1.4,6c0.2,0.9-0.4,1.8-1.2,2l-5.8,1.3c-0.9,0.2-1.8-0.4-2-1.2
				l-1.4-6C-317.6,2157.1-317,2156.2-316.1,2156z"/>
			<path class="st1" d="M-305,2153.4l5.8-1.3c0.9-0.2,1.8,0.4,2,1.2l1.4,6c0.2,0.9-0.4,1.8-1.2,2l-5.8,1.3c-0.9,0.2-1.8-0.4-2-1.2
				l-1.4-6C-306.4,2154.5-305.8,2153.6-305,2153.4z"/>
			<path class="st1" d="M-293.8,2150.9l5.8-1.3c0.9-0.2,1.8,0.4,2,1.2l1.4,6c0.2,0.9-0.4,1.8-1.2,2l-5.8,1.3c-0.9,0.2-1.8-0.4-2-1.2
				l-1.4-6C-295.3,2152-294.7,2151.1-293.8,2150.9z"/>
			<path class="st1" d="M-282.7,2148.3l5.8-1.3c0.9-0.2,1.8,0.4,2,1.2l1.4,6c0.2,0.9-0.4,1.8-1.2,2l-5.8,1.3c-0.9,0.2-1.8-0.4-2-1.2
				l-1.4-6C-284.1,2149.4-283.6,2148.5-282.7,2148.3z"/>
			<path class="st1" d="M-271.5,2145.8l5.8-1.3c0.9-0.2,1.8,0.4,2,1.2l1.4,6c0.2,0.9-0.4,1.8-1.2,2l-5.8,1.3c-0.9,0.2-1.8-0.4-2-1.2
				l-1.4-6C-273,2146.9-272.4,2146-271.5,2145.8z"/>
			<path class="st1" d="M-260.4,2143.2l5.8-1.3c0.9-0.2,1.8,0.4,2,1.2l1.4,6c0.2,0.9-0.4,1.8-1.2,2l-5.8,1.3c-0.9,0.2-1.8-0.4-2-1.2
				l-1.4-6C-261.8,2144.3-261.3,2143.4-260.4,2143.2z"/>
			<path class="st1" d="M-249.2,2140.7l5.8-1.3c0.9-0.2,1.8,0.4,2,1.2l1.4,6c0.2,0.9-0.4,1.8-1.2,2l-5.8,1.3c-0.9,0.2-1.8-0.4-2-1.2
				l-1.4-6C-250.7,2141.8-250.1,2140.9-249.2,2140.7z"/>
			<path class="st1" d="M-238.1,2138.1l5.8-1.3c0.9-0.2,1.8,0.4,2,1.2l1.4,6c0.2,0.9-0.4,1.8-1.2,2l-5.8,1.3c-0.9,0.2-1.8-0.4-2-1.2
				l-1.4-6C-239.5,2139.2-239,2138.3-238.1,2138.1z"/>
			<path class="st1" d="M-226.9,2135.6l5.8-1.3c0.9-0.2,1.8,0.4,2,1.2l1.4,6c0.2,0.9-0.4,1.8-1.2,2l-5.8,1.3c-0.9,0.2-1.8-0.4-2-1.2
				l-1.4-6C-228.4,2136.7-227.8,2135.8-226.9,2135.6z"/>
			<path class="st1" d="M-215.8,2133.1l5.8-1.3c0.9-0.2,1.8,0.4,2,1.2l1.4,6c0.2,0.9-0.4,1.8-1.2,2l-5.8,1.3c-0.9,0.2-1.8-0.4-2-1.2
				l-1.4-6C-217.2,2134.1-216.7,2133.3-215.8,2133.1z"/>
			<path class="st1" d="M-332.8,2171.1l5.8-1.3c0.9-0.2,1.8,0.4,2,1.2l1.4,6c0.2,0.9-0.4,1.8-1.2,2l-5.8,1.3c-0.9,0.2-1.8-0.4-2-1.2
				l-1.4-6C-334.3,2172.2-333.7,2171.3-332.8,2171.1z"/>
			<path class="st1" d="M-321.7,2168.6l5.8-1.3c0.9-0.2,1.8,0.4,2,1.2l1.4,6c0.2,0.9-0.4,1.8-1.2,2l-5.8,1.3c-0.9,0.2-1.8-0.4-2-1.2
				l-1.4-6C-323.1,2169.7-322.6,2168.8-321.7,2168.6z"/>
			<path class="st1" d="M-310.5,2166.1l5.8-1.3c0.9-0.2,1.8,0.4,2,1.2l1.4,6c0.2,0.9-0.4,1.8-1.2,2l-5.8,1.3c-0.9,0.2-1.8-0.4-2-1.2
				l-1.4-6C-312,2167.1-311.4,2166.3-310.5,2166.1z"/>
			<path class="st1" d="M-299.4,2163.5l5.8-1.3c0.9-0.2,1.8,0.4,2,1.2l1.4,6c0.2,0.9-0.4,1.8-1.2,2l-5.8,1.3c-0.9,0.2-1.8-0.4-2-1.2
				l-1.4-6C-300.8,2164.6-300.3,2163.7-299.4,2163.5z"/>
			<path class="st1" d="M-288.2,2161l5.8-1.3c0.9-0.2,1.8,0.4,2,1.2l1.4,6c0.2,0.9-0.4,1.8-1.2,2l-5.8,1.3c-0.9,0.2-1.8-0.4-2-1.2
				l-1.4-6C-289.7,2162-289.1,2161.2-288.2,2161z"/>
			<path class="st1" d="M-277.1,2158.4l5.8-1.3c0.9-0.2,1.8,0.4,2,1.2l1.4,6c0.2,0.9-0.4,1.8-1.2,2l-5.8,1.3c-0.9,0.2-1.8-0.4-2-1.2
				l-1.4-6C-278.5,2159.5-278,2158.6-277.1,2158.4z"/>
			<path class="st1" d="M-265.9,2155.9l5.8-1.3c0.9-0.2,1.8,0.4,2,1.2l1.4,6c0.2,0.9-0.4,1.8-1.2,2l-5.8,1.3c-0.9,0.2-1.8-0.4-2-1.2
				l-1.4-6C-267.4,2157-266.8,2156.1-265.9,2155.9z"/>
			<path class="st1" d="M-254.8,2153.3l5.8-1.3c0.9-0.2,1.8,0.4,2,1.2l1.4,6c0.2,0.9-0.4,1.8-1.2,2l-5.8,1.3c-0.9,0.2-1.8-0.4-2-1.2
				l-1.4-6C-256.2,2154.4-255.7,2153.5-254.8,2153.3z"/>
			<path class="st1" d="M-243.7,2150.8l5.8-1.3c0.9-0.2,1.8,0.4,2,1.2l1.4,6c0.2,0.9-0.4,1.8-1.2,2l-5.8,1.3c-0.9,0.2-1.8-0.4-2-1.2
				l-1.4-6C-245.1,2151.9-244.5,2151-243.7,2150.8z"/>
			<path class="st1" d="M-232.5,2148.2l5.8-1.3c0.9-0.2,1.8,0.4,2,1.2l1.4,6c0.2,0.9-0.4,1.8-1.2,2l-5.8,1.3c-0.9,0.2-1.8-0.4-2-1.2
				l-1.4-6C-234,2149.3-233.4,2148.4-232.5,2148.2z"/>
			<path class="st1" d="M-221.4,2145.7l5.8-1.3c0.9-0.2,1.8,0.4,2,1.2l1.4,6c0.2,0.9-0.4,1.8-1.2,2l-5.8,1.3c-0.9,0.2-1.8-0.4-2-1.2
				l-1.4-6C-222.8,2146.8-222.2,2145.9-221.4,2145.7z"/>
			<path class="st1" d="M-324.5,2180.6l5.8-1.3c0.9-0.2,1.8,0.4,2,1.2l1.4,6c0.2,0.9-0.4,1.8-1.2,2l-5.8,1.3c-0.9,0.2-1.8-0.4-2-1.2
				l-1.4-6C-326,2181.7-325.4,2180.8-324.5,2180.6z"/>
			<path class="st1" d="M-313.4,2178l5.8-1.3c0.9-0.2,1.8,0.4,2,1.2l1.4,6c0.2,0.9-0.4,1.8-1.2,2l-5.8,1.3c-0.9,0.2-1.8-0.4-2-1.2
				l-1.4-6C-314.8,2179.1-314.3,2178.2-313.4,2178z"/>
			<path class="st1" d="M-302.2,2175.5l5.8-1.3c0.9-0.2,1.8,0.4,2,1.2l1.4,6c0.2,0.9-0.4,1.8-1.2,2l-5.8,1.3c-0.9,0.2-1.8-0.4-2-1.2
				l-1.4-6C-303.7,2176.6-303.1,2175.7-302.2,2175.5z"/>
			<path class="st1" d="M-291.1,2173l5.8-1.3c0.9-0.2,1.8,0.4,2,1.2l1.4,6c0.2,0.9-0.4,1.8-1.2,2l-5.8,1.3c-0.9,0.2-1.8-0.4-2-1.2
				l-1.4-6C-292.5,2174-292,2173.2-291.1,2173z"/>
			<path class="st1" d="M-279.9,2170.4l5.8-1.3c0.9-0.2,1.8,0.4,2,1.2l1.4,6c0.2,0.9-0.4,1.8-1.2,2l-5.8,1.3c-0.9,0.2-1.8-0.4-2-1.2
				l-1.4-6C-281.4,2171.5-280.8,2170.6-279.9,2170.4z"/>
			<path class="st1" d="M-268.8,2167.9l5.8-1.3c0.9-0.2,1.8,0.4,2,1.2l1.4,6c0.2,0.9-0.4,1.8-1.2,2l-5.8,1.3c-0.9,0.2-1.8-0.4-2-1.2
				l-1.4-6C-270.2,2169-269.7,2168.1-268.8,2167.9z"/>
			<path class="st1" d="M-257.6,2165.3l5.8-1.3c0.9-0.2,1.8,0.4,2,1.2l1.4,6c0.2,0.9-0.4,1.8-1.2,2l-5.8,1.3c-0.9,0.2-1.8-0.4-2-1.2
				l-1.4-6C-259.1,2166.4-258.5,2165.5-257.6,2165.3z"/>
			<path class="st1" d="M-246.5,2162.8l5.8-1.3c0.9-0.2,1.8,0.4,2,1.2l1.4,6c0.2,0.9-0.4,1.8-1.2,2l-5.8,1.3c-0.9,0.2-1.8-0.4-2-1.2
				l-1.4-6C-248,2163.9-247.4,2163-246.5,2162.8z"/>
			<path class="st1" d="M-235.4,2160.2l5.8-1.3c0.9-0.2,1.8,0.4,2,1.2l1.4,6c0.2,0.9-0.4,1.8-1.2,2l-5.8,1.3c-0.9,0.2-1.8-0.4-2-1.2
				l-1.4-6C-236.8,2161.3-236.2,2160.4-235.4,2160.2z"/>
			<path class="st1" d="M-224.2,2157.7l5.8-1.3c0.9-0.2,1.8,0.4,2,1.2l1.4,6c0.2,0.9-0.4,1.8-1.2,2l-5.8,1.3c-0.9,0.2-1.8-0.4-2-1.2
				l-1.4-6C-225.7,2158.8-225.1,2157.9-224.2,2157.7z"/>
			<path class="st1" d="M-213,2155.1l10.5-2.4c0.9-0.2,1.8,0.4,2,1.3l1.4,5.9c0.2,0.9-0.4,1.8-1.3,2l-10.5,2.4
				c-0.9,0.2-1.8-0.4-2-1.3l-1.4-5.9C-214.5,2156.2-213.9,2155.3-213,2155.1z"/>
			<path class="st1" d="M-333.4,2194l5.8-1.3c0.9-0.2,1.8,0.4,2,1.2l1.4,6c0.2,0.9-0.4,1.8-1.2,2l-5.8,1.3c-0.9,0.2-1.8-0.4-2-1.2
				l-1.4-6C-334.9,2195.1-334.3,2194.2-333.4,2194z"/>
			<path class="st1" d="M-322.3,2191.4l5.8-1.3c0.9-0.2,1.8,0.4,2,1.2l1.4,6c0.2,0.9-0.4,1.8-1.2,2l-5.8,1.3c-0.9,0.2-1.8-0.4-2-1.2
				l-1.4-6C-323.7,2192.5-323.1,2191.6-322.3,2191.4z"/>
			<path class="st1" d="M-311.1,2188.9l5.8-1.3c0.9-0.2,1.8,0.4,2,1.2l1.4,6c0.2,0.9-0.4,1.8-1.2,2l-5.8,1.3c-0.9,0.2-1.8-0.4-2-1.2
				l-1.4-6C-312.6,2190-312,2189.1-311.1,2188.9z"/>
			<path class="st1" d="M-300,2186.3l5.8-1.3c0.9-0.2,1.8,0.4,2,1.2l1.4,6c0.2,0.9-0.4,1.8-1.2,2l-5.8,1.3c-0.9,0.2-1.8-0.4-2-1.2
				l-1.4-6C-301.4,2187.4-300.8,2186.5-300,2186.3z"/>
			<path class="st1" d="M-288.8,2183.8l5.8-1.3c0.9-0.2,1.8,0.4,2,1.2l1.4,6c0.2,0.9-0.4,1.8-1.2,2l-5.8,1.3c-0.9,0.2-1.8-0.4-2-1.2
				l-1.4-6C-290.3,2184.9-289.7,2184-288.8,2183.8z"/>
			<path class="st1" d="M-277.7,2181.2l5.8-1.3c0.9-0.2,1.8,0.4,2,1.2l1.4,6c0.2,0.9-0.4,1.8-1.2,2l-5.8,1.3c-0.9,0.2-1.8-0.4-2-1.2
				l-1.4-6C-279.1,2182.3-278.6,2181.4-277.7,2181.2z"/>
			<path class="st1" d="M-266.5,2178.7l5.8-1.3c0.9-0.2,1.8,0.4,2,1.2l1.4,6c0.2,0.9-0.4,1.8-1.2,2l-5.8,1.3c-0.9,0.2-1.8-0.4-2-1.2
				l-1.4-6C-268,2179.8-267.4,2178.9-266.5,2178.7z"/>
			<path class="st1" d="M-255.4,2176.1l5.8-1.3c0.9-0.2,1.8,0.4,2,1.2l1.4,6c0.2,0.9-0.4,1.8-1.2,2l-5.8,1.3c-0.9,0.2-1.8-0.4-2-1.2
				l-1.4-6C-256.8,2177.2-256.3,2176.3-255.4,2176.1z"/>
			<path class="st1" d="M-244.2,2173.6l5.8-1.3c0.9-0.2,1.8,0.4,2,1.2l1.4,6c0.2,0.9-0.4,1.8-1.2,2l-5.8,1.3c-0.9,0.2-1.8-0.4-2-1.2
				l-1.4-6C-245.7,2174.7-245.1,2173.8-244.2,2173.6z"/>
			<path class="st1" d="M-233.1,2171l5.8-1.3c0.9-0.2,1.8,0.4,2,1.2l1.4,6c0.2,0.9-0.4,1.8-1.2,2l-5.8,1.3c-0.9,0.2-1.8-0.4-2-1.2
				l-1.4-6C-234.5,2172.1-234,2171.2-233.1,2171z"/>
			<path class="st1" d="M-221.9,2168.5l10.5-2.4c0.9-0.2,1.8,0.4,2,1.3l1.3,5.9c0.2,0.9-0.4,1.8-1.3,2l-10.5,2.4
				c-0.9,0.2-1.8-0.4-2-1.3l-1.3-5.9C-223.4,2169.6-222.8,2168.7-221.9,2168.5z"/>
			<path class="st1" d="M-205.5,2164.7l5.5-1.3c0.8-0.2,1.7,0.3,1.9,1.2l1.4,6.1c0.2,0.8-0.3,1.7-1.2,1.9l-5.5,1.3
				c-0.8,0.2-1.7-0.3-1.9-1.2l-1.4-6.1C-206.9,2165.8-206.3,2164.9-205.5,2164.7z"/>
			<path class="st1" d="M-288.7,2201.6l57.9-13.2c0.9-0.2,1.8,0.4,2,1.2l6.4,27.9c0.2,0.9-0.4,1.8-1.2,2l-57.9,13.2
				c-0.9,0.2-1.8-0.4-2-1.2l-6.4-27.9C-290.2,2202.7-289.6,2201.8-288.7,2201.6z"/>
			<path class="st1" d="M-282.4,2235l28.8-6.6c0.2,0,0.4,0.1,0.4,0.3l1.3,5.8c0,0.2-0.1,0.4-0.3,0.4l-28.8,6.6
				c-0.2,0-0.4-0.1-0.4-0.3l-1.3-5.8C-282.7,2235.2-282.6,2235.1-282.4,2235z"/>
			<path class="st1" d="M-250.8,2227.8l28.8-6.6c0.2,0,0.4,0.1,0.4,0.3l1.3,5.8c0,0.2-0.1,0.4-0.3,0.4l-28.8,6.6
				c-0.2,0-0.4-0.1-0.4-0.3l-1.3-5.8C-251.1,2228-251,2227.8-250.8,2227.8z"/>
			<g>
				<polygon class="st3" points="-186,2043.4 -392.6,2090.6 -396.5,2084 -185.3,2035.8 				"/>
				<polygon class="st4" points="-187.3,2059.5 -384.4,2104.6 -392.6,2090.6 -186,2043.4 				"/>
				<g>
					<g>
						<g>
							<polygon class="st3" points="-310.4,2099.8 -350.5,2108.9 -355.3,2100.5 -313.9,2091 							"/>
						</g>
						<g>
							<polygon class="st3" points="-263.2,2089 -303.2,2098.1 -306.5,2089.3 -262.7,2079.3 							"/>
						</g>
						<g>
							<polygon class="st3" points="-216,2078.2 -256,2087.3 -256,2077.8 -214.8,2068.4 							"/>
						</g>
					</g>
				</g>
				
					<ellipse transform="matrix(-0.2227 -0.9749 0.9749 -0.2227 -2453.4407 2198.2483)" class="st5" cx="-350.4" cy="2077.2" rx="2.7" ry="7.1"/>
				<g>
					
						<rect x="-240" y="2048.1" transform="matrix(0.9749 -0.2227 0.2227 0.9749 -462.1987 -4.924869e-02)" class="st5" width="17.3" height="2.5"/>
					
						<rect x="-260.1" y="2052.8" transform="matrix(0.9749 -0.2227 0.2227 0.9749 -463.7381 -4.4263)" class="st5" width="17.3" height="2.5"/>
					
						<rect x="-280.6" y="2057.3" transform="matrix(0.9749 -0.2228 0.2228 0.9749 -465.4593 -8.8485)" class="st5" width="17.3" height="2.5"/>
					
						<rect x="-300.8" y="2061.9" transform="matrix(0.9749 -0.2228 0.2228 0.9749 -467.0031 -13.2231)" class="st5" width="17.3" height="2.5"/>
				</g>
				<polygon class="st6" points="-309.8,2101.5 -309.2,2103.2 -348.8,2112.2 -349.8,2110.6 				"/>
				<polygon class="st6" points="-308.3,2104.1 -307.8,2105.8 -347.4,2114.9 -348.4,2113.3 				"/>
				<polygon class="st6" points="-255.8,2089.1 -255.8,2091 -215.9,2081.9 -215.7,2080 				"/>
				<polygon class="st6" points="-255.8,2092.1 -255.7,2093.9 -216.1,2084.9 -215.9,2083 				"/>
				<polygon class="st6" points="-302.7,2099.9 -302,2101.5 -263.2,2092.7 -263,2090.8 				"/>
				<polygon class="st6" points="-301.6,2102.6 -301,2104.3 -263.4,2095.7 -263.1,2093.8 				"/>
			</g>
		</g>
		<g id="paper_2_">
			<g>
				<path class="st7" d="M284.1,2080.7l64.1-64l90.6,90.7l-64.1,64L284.1,2080.7z"/>
				<g>
					<polygon class="st8" points="339,2119.5 344.5,2113.8 349.5,2119 344,2124.5 					"/>
					
						<rect x="345.8" y="2106.6" transform="matrix(-0.7075 0.7067 -0.7067 -0.7075 2089.387 3358.6487)" class="st9" width="7.8" height="10.2"/>
					
						<rect x="349.6" y="2094.1" transform="matrix(-0.7074 0.7068 -0.7068 -0.7074 2089.7346 3340.4514)" class="st10" width="7.8" height="17.3"/>
					
						<rect x="356.8" y="2089.8" transform="matrix(-0.7076 0.7066 -0.7066 -0.7076 2097.8896 3326.3735)" class="st11" width="7.8" height="14.9"/>
					
						<rect x="365.8" y="2089.7" transform="matrix(-0.7074 0.7068 -0.7068 -0.7074 2110.9714 3313.0283)" class="st12" width="7.8" height="7.5"/>
					
						<rect x="371.2" y="2081.1" transform="matrix(-0.7073 0.7069 -0.7069 -0.7073 2115.1201 3296.7258)" class="st10" width="7.8" height="10.3"/>
					
						<rect x="375.8" y="2070.7" transform="matrix(-0.7076 0.7066 -0.7066 -0.7076 2116.8484 3280.3882)" class="st11" width="7.8" height="14.9"/>
					
						<rect x="378.8" y="2055.9" transform="matrix(-0.7075 0.7067 -0.7067 -0.7075 2115.084 3261.2083)" class="st12" width="7.8" height="24.8"/>
				</g>
				
					<rect x="345.1" y="2121.7" transform="matrix(-0.7075 0.7067 -0.7067 -0.7075 2118.6128 3368.9292)" class="st13" width="34" height="2.3"/>
				
					<rect x="347.9" y="2124.6" transform="matrix(-0.7075 0.7067 -0.7067 -0.7075 2125.2837 3371.873)" class="st13" width="34" height="2.3"/>
				
					<rect x="350.7" y="2127.4" transform="matrix(-0.7075 0.7067 -0.7067 -0.7075 2132.0234 3374.6509)" class="st13" width="34" height="2.3"/>
				
					<rect x="353.5" y="2130.2" transform="matrix(-0.7075 0.7067 -0.7067 -0.7075 2138.7581 3377.426)" class="st13" width="34" height="2.3"/>
				
					<rect x="356.3" y="2132.9" transform="matrix(-0.7075 0.7067 -0.7067 -0.7075 2145.481 3380.1296)" class="st13" width="34" height="2.3"/>
				
					<rect x="359.2" y="2135.8" transform="matrix(-0.7076 0.7067 -0.7067 -0.7076 2152.386 3383.0891)" class="st13" width="34" height="2.3"/>
				
					<rect x="361.8" y="2138.5" transform="matrix(-0.7075 0.7067 -0.7067 -0.7075 2158.9519 3385.6875)" class="st13" width="34" height="2.3"/>
				
					<rect x="367.1" y="2147.2" transform="matrix(-0.7075 0.7067 -0.7067 -0.7075 2159.698 3402.9282)" class="st13" width="17" height="2.3"/>
				
					<rect x="373.4" y="2093.5" transform="matrix(-0.7075 0.7067 -0.7067 -0.7075 2146.9746 3300.6497)" class="st13" width="34" height="2.3"/>
				
					<rect x="376.2" y="2096.3" transform="matrix(-0.7075 0.7067 -0.7067 -0.7075 2153.7029 3303.4343)" class="st13" width="34" height="2.3"/>
				
					<rect x="379" y="2099.1" transform="matrix(-0.7075 0.7067 -0.7067 -0.7075 2160.3879 3306.3711)" class="st13" width="34" height="2.3"/>
				
					<rect x="381.8" y="2101.9" transform="matrix(-0.7075 0.7067 -0.7067 -0.7075 2167.1152 3309.1572)" class="st13" width="34" height="2.3"/>
				
					<rect x="384.6" y="2104.7" transform="matrix(-0.7075 0.7067 -0.7067 -0.7075 2173.8711 3311.9236)" class="st13" width="34" height="2.3"/>
				
					<rect x="387.4" y="2107.5" transform="matrix(-0.7075 0.7067 -0.7067 -0.7075 2180.6038 3314.707)" class="st13" width="34" height="2.3"/>
				
					<rect x="390.2" y="2110.2" transform="matrix(-0.7075 0.7067 -0.7067 -0.7075 2187.3276 3317.4021)" class="st13" width="34" height="2.3"/>
				
					<rect x="394.5" y="2116.6" transform="matrix(-0.7075 0.7067 -0.7067 -0.7075 2190.575 3328.8604)" class="st13" width="23.9" height="2.3"/>
				<g>
					<g>
						<polygon class="st14" points="323.6,2101.5 320.1,2101 324.9,2069.2 344.9,2065.5 350.9,2033.6 354.3,2034.3 347.9,2068.5 
							328,2072.2 						"/>
					</g>
					<g>
						<polygon class="st14" points="358.9,2038.4 356.9,2040.4 352.5,2035.9 348.1,2040.4 346.1,2038.4 352.5,2032.1 						"/>
					</g>
				</g>
				<circle class="st15" cx="345.8" cy="2066.8" r="3.9"/>
				<circle class="st15" cx="326.5" cy="2070.7" r="3.9"/>
			</g>
			<g>
				<path class="st7" d="M382.4,2038.4l90.6,0.4l-0.6,128.2l-90.6-0.4L382.4,2038.4z"/>
				
					<rect x="390.4" y="2122.4" transform="matrix(-1 -4.182372e-03 4.182372e-03 -1 845.4034 4248.9043)" class="st13" width="73.4" height="2.3"/>
				
					<rect x="390.3" y="2126.3" transform="matrix(-1 -4.180813e-03 4.180813e-03 -1 845.2904 4256.7036)" class="st13" width="73.5" height="2.3"/>
				
					<rect x="390.3" y="2130.3" transform="matrix(-1 -4.194517e-03 4.194517e-03 -1 845.2445 4264.71)" class="st13" width="73.5" height="2.3"/>
				
					<rect x="390.2" y="2134.2" transform="matrix(-1 -4.201375e-03 4.201375e-03 -1 845.0134 4272.5122)" class="st13" width="73.5" height="2.3"/>
				
					<rect x="390.2" y="2138.2" transform="matrix(-1 -4.187675e-03 4.187675e-03 -1 845.026 4280.5068)" class="st13" width="73.5" height="2.3"/>
				
					<rect x="390.2" y="2142.1" transform="matrix(-1 -4.213657e-03 4.213657e-03 -1 844.9539 4288.3184)" class="st13" width="73.5" height="2.3"/>
				
					<rect x="390.2" y="2146.1" transform="matrix(-1 -4.194511e-03 4.194511e-03 -1 844.9781 4296.3091)" class="st13" width="73.5" height="2.3"/>
				
					<rect x="390.2" y="2150" transform="matrix(-1 -4.459472e-03 4.459472e-03 -1 787.8913 4304.0986)" class="st13" width="17" height="2.3"/>
				<g>
					<path class="st16" d="M437.8,2085.5c-0.5,1.5-1.3,2.9-2.3,4l7.9,11.1c4-3.4,6.9-8.1,8-13.5L437.8,2085.5z"/>
					<path class="st14" d="M429.8,2071.4c4.6,1,8.1,4.9,8.5,9.7l13.6,1.6c0-0.2,0-0.3,0-0.5c0-12.7-9.7-23.2-22.1-24.4V2071.4z"/>
					<path class="st17" d="M419.5,2074.7c1.5-1.7,3.5-2.9,5.8-3.3l0.1-13.6c-7.2,0.6-13.6,4.4-17.6,10L419.5,2074.7z"/>
					<path class="st18" d="M431.9,2092c-1.4,0.6-2.8,0.9-4.4,0.9c-6,0-10.9-4.9-10.9-10.9c0-1.2,0.3-2.4,0.6-3.5l-11.7-7
						c-1.5,3.2-2.4,6.7-2.4,10.4c-0.1,13.5,10.8,24.4,24.3,24.5c4.5,0,8.7-1.2,12.3-3.3L431.9,2092z"/>
				</g>
			</g>
		</g>
		<g id="mouse">
			<path class="st0" d="M259.7,2260.4l-12.9-39.3c-2.9-9-12.7-14-21.7-11l-4.4,1.4l-4.4,1.4c-9,3-13.9,12.7-11,21.7l12.9,39.3
				c2.9,9,12.7,14,21.7,11l4.4-1.4l4.4-1.4C257.7,2279.2,262.7,2269.4,259.7,2260.4z"/>
			<path class="st19" d="M233,2230.6l-1.2-3.5c-0.9-3-4.2-4.7-7.2-3.7s-4.6,4.2-3.7,7.2l1.2,3.5c0.9,3,4.2,4.7,7.2,3.7l0,0
				C232.3,2236.9,234,2233.6,233,2230.6z"/>
		</g>
		<g id="keyboard">
			<path class="st0" d="M177.9,2227.5c0-1.8-1.6-3.3-3.5-3.3H-89.1c-1.9,0-3.5,1.5-3.5,3.3v96.8c0,1.8,1.6,3.3,3.5,3.3h263.5
				c1.9,0,3.5-1.5,3.5-3.3V2227.5z"/>
			<g>
				<path class="st1" d="M-71.1,2246.6c0,0.5-0.4,0.9-0.9,0.9h-13c-0.5,0-0.9-0.4-0.9-0.9v-13c0-0.5,0.4-0.9,0.9-0.9h13
					c0.5,0,0.9,0.4,0.9,0.9V2246.6z"/>
				<path class="st1" d="M-44.2,2264.5c0,0.5-0.4,0.9-0.9,0.9h-13c-0.5,0-0.8-0.4-0.8-0.9v-13c0-0.5,0.4-0.8,0.8-0.8h13
					c0.5,0,0.9,0.4,0.9,0.8V2264.5z"/>
				<path class="st1" d="M-39.9,2282.5c0,0.5-0.4,0.8-0.9,0.8h-13c-0.5,0-0.9-0.4-0.9-0.8v-13c0-0.5,0.4-0.8,0.9-0.8h13
					c0.5,0,0.9,0.4,0.9,0.8V2282.5z"/>
				<path class="st1" d="M-48.7,2300.4c0,0.5-0.4,0.9-0.8,0.9h-13c-0.5,0-0.8-0.4-0.8-0.9v-13c0-0.5,0.4-0.9,0.8-0.9h13
					c0.5,0,0.8,0.4,0.8,0.9V2300.4z"/>
				<path class="st1" d="M-71.1,2320.6c0,0.5-0.4,0.9-0.9,0.8h-13c-0.5,0-0.9-0.4-0.9-0.9v-15.3c0-0.5,0.4-0.8,0.9-0.8h13
					c0.5,0,0.9,0.4,0.9,0.8V2320.6z"/>
				<path class="st1" d="M-53.3,2320.6c0,0.5-0.4,0.9-0.9,0.8h-13c-0.5,0-0.9-0.4-0.9-0.8v-15.3c0-0.5,0.4-0.8,0.9-0.8h13
					c0.5,0,0.9,0.4,0.9,0.8V2320.6z"/>
				<path class="st1" d="M-35.4,2320.6c0,0.5-0.4,0.9-0.9,0.9h-13c-0.5,0-0.9-0.4-0.9-0.8v-15.3c0-0.5,0.4-0.8,0.8-0.8h13
					c0.5,0,0.9,0.4,0.9,0.8L-35.4,2320.6z"/>
				<path class="st1" d="M117.3,2320.6c0,0.5-0.4,0.9-0.9,0.9h-13c-0.5,0-0.8-0.4-0.8-0.9v-15.3c0-0.5,0.4-0.8,0.8-0.8h13
					c0.5,0,0.9,0.4,0.9,0.8V2320.6z"/>
				<path class="st1" d="M135.3,2320.6c0,0.5-0.4,0.9-0.9,0.9h-13c-0.5,0-0.9-0.4-0.9-0.8v-6.8c0-0.5,0.4-0.8,0.9-0.8h13
					c0.5,0,0.9,0.4,0.9,0.9V2320.6z"/>
				<path class="st1" d="M171.1,2320.6c0,0.5-0.4,0.9-0.9,0.9h-13c-0.5,0-0.9-0.4-0.9-0.9v-6.8c0-0.5,0.4-0.8,0.9-0.8h13
					c0.5,0,0.9,0.4,0.9,0.9V2320.6z"/>
				<path class="st1" d="M-12.8,2320.6c0,0.5-0.4,0.8-0.8,0.8h-17.7c-0.5,0-0.8-0.4-0.8-0.9v-15.3c0-0.5,0.4-0.8,0.8-0.8h17.7
					c0.5,0,0.8,0.4,0.8,0.8V2320.6z"/>
				<path class="st1" d="M99.4,2320.6c0,0.5-0.4,0.8-0.9,0.9H80.8c-0.5,0-0.9-0.4-0.9-0.9v-15.3c0-0.5,0.4-0.8,0.9-0.8h17.8
					c0.5,0,0.9,0.4,0.9,0.8L99.4,2320.6L99.4,2320.6z"/>
				<path class="st1" d="M76.8,2320.6c0,0.5-0.4,0.9-0.9,0.9H-8.8c-0.5,0-0.9-0.4-0.9-0.8v-15.3c0-0.5,0.4-0.8,0.9-0.8h84.7
					c0.5,0,0.9,0.4,0.9,0.8V2320.6z"/>
				<path class="st1" d="M-30.8,2300.4c0,0.5-0.4,0.9-0.8,0.9h-13c-0.5,0-0.8-0.4-0.8-0.9v-13c0-0.5,0.4-0.9,0.8-0.9h13
					c0.5,0,0.8,0.4,0.8,0.9V2300.4z"/>
				<path class="st1" d="M-12.8,2300.4c0,0.5-0.4,0.9-0.8,0.9h-13c-0.5,0-0.9-0.4-0.9-0.9v-13c0-0.5,0.4-0.9,0.9-0.9h13
					c0.5,0,0.8,0.4,0.8,0.9V2300.4z"/>
				<path class="st1" d="M5.1,2300.4c0,0.5-0.4,0.9-0.9,0.9h-13c-0.5,0-0.9-0.4-0.9-0.9v-13c0-0.5,0.4-0.9,0.9-0.9h13
					c0.5,0,0.9,0.4,0.9,0.9V2300.4z"/>
				<path class="st1" d="M23,2300.4c0,0.5-0.4,0.9-0.8,0.9h-13c-0.5,0-0.9-0.4-0.9-0.9v-13c0-0.5,0.4-0.9,0.9-0.9h13
					c0.5,0,0.8,0.4,0.8,0.9V2300.4z"/>
				<path class="st1" d="M41,2300.4c0,0.5-0.4,0.9-0.8,0.9h-13c-0.5,0-0.8-0.4-0.8-0.9v-13c0-0.5,0.4-0.9,0.8-0.9h13
					c0.5,0,0.8,0.4,0.8,0.9C41,2287.4,41,2300.4,41,2300.4z"/>
				<path class="st1" d="M58.9,2300.4c0,0.5-0.4,0.9-0.8,0.9h-13c-0.5,0-0.9-0.4-0.9-0.9v-13c0-0.5,0.4-0.9,0.9-0.9h13
					c0.5,0,0.8,0.4,0.8,0.9V2300.4z"/>
				<path class="st1" d="M76.8,2300.4c0,0.5-0.4,0.9-0.9,0.9h-13c-0.5,0-0.8-0.4-0.8-0.9v-13c0-0.5,0.4-0.9,0.8-0.9h13
					c0.5,0,0.9,0.4,0.9,0.9V2300.4z"/>
				<path class="st1" d="M94.7,2300.4c0,0.5-0.4,0.9-0.9,0.9h-13c-0.5,0-0.9-0.4-0.9-0.9v-13c0-0.5,0.4-0.9,0.9-0.9h13
					c0.5,0,0.9,0.4,0.9,0.9C94.7,2287.4,94.7,2300.4,94.7,2300.4z"/>
				<path class="st1" d="M112.7,2300.4c0,0.5-0.4,0.9-0.8,0.9h-13c-0.5,0-0.9-0.4-0.9-0.9v-13c0-0.5,0.4-0.9,0.9-0.9h13
					c0.5,0,0.8,0.4,0.8,0.9V2300.4z"/>
				<path class="st1" d="M130.6,2300.4c0,0.5-0.4,0.9-0.9,0.9h-13c-0.5,0-0.9-0.4-0.9-0.9v-13c0-0.5,0.4-0.9,0.9-0.9h13
					c0.5,0,0.9,0.4,0.9,0.9C130.6,2287.4,130.6,2300.4,130.6,2300.4z"/>
				<path class="st1" d="M171,2300.4c0,0.5-0.4,0.9-0.9,0.9h-35.5c-0.5,0-0.9-0.4-0.9-0.9v-13c0-0.5,0.4-0.9,0.9-0.9h35.5
					c0.5,0,0.9,0.4,0.9,0.9V2300.4z"/>
				<path class="st1" d="M-22,2282.5c0,0.5-0.4,0.8-0.8,0.8h-13c-0.5,0-0.8-0.4-0.8-0.8v-13c0-0.5,0.4-0.8,0.8-0.8h13
					c0.5,0,0.8,0.4,0.8,0.8V2282.5z"/>
				<path class="st1" d="M-4.1,2282.5c0,0.5-0.4,0.8-0.9,0.8h-13c-0.5,0-0.8-0.4-0.8-0.8v-13c0-0.5,0.4-0.8,0.8-0.8h13
					c0.5,0,0.9,0.4,0.9,0.8V2282.5z"/>
				<path class="st1" d="M13.9,2282.5c0,0.5-0.4,0.8-0.8,0.8h-13c-0.5,0-0.8-0.4-0.8-0.8v-13c0-0.5,0.4-0.8,0.8-0.8h13
					c0.5,0,0.8,0.4,0.8,0.8V2282.5z"/>
				<path class="st1" d="M31.8,2282.5c0,0.5-0.4,0.8-0.8,0.8H18c-0.5,0-0.8-0.4-0.8-0.8v-13c0-0.5,0.4-0.8,0.8-0.8h13
					c0.5,0,0.8,0.4,0.8,0.8C31.8,2269.5,31.8,2282.5,31.8,2282.5z"/>
				<path class="st1" d="M49.7,2282.5c0,0.5-0.4,0.8-0.8,0.8h-13c-0.5,0-0.9-0.4-0.9-0.8v-13c0-0.5,0.4-0.8,0.9-0.8h13
					c0.5,0,0.8,0.4,0.8,0.8V2282.5z"/>
				<path class="st1" d="M67.7,2282.5c0,0.5-0.4,0.8-0.8,0.8h-13c-0.5,0-0.9-0.4-0.9-0.8v-13c0-0.5,0.4-0.8,0.9-0.8h13
					c0.5,0,0.9,0.4,0.9,0.8L67.7,2282.5z"/>
				<path class="st1" d="M85.6,2282.5c0,0.5-0.4,0.8-0.8,0.8h-13c-0.5,0-0.8-0.4-0.8-0.8v-13c0-0.5,0.4-0.8,0.8-0.8h13
					c0.5,0,0.8,0.4,0.8,0.8V2282.5z"/>
				<path class="st1" d="M103.5,2282.5c0,0.5-0.4,0.8-0.8,0.8h-13c-0.5,0-0.8-0.4-0.8-0.8v-13c0-0.5,0.4-0.8,0.8-0.8h13
					c0.5,0,0.8,0.4,0.8,0.8C103.5,2269.5,103.5,2282.5,103.5,2282.5z"/>
				<path class="st1" d="M121.4,2282.5c0,0.5-0.4,0.8-0.8,0.8h-13c-0.5,0-0.8-0.4-0.8-0.8v-13c0-0.5,0.4-0.8,0.8-0.8h13
					c0.5,0,0.8,0.4,0.8,0.8V2282.5z"/>
				<path class="st1" d="M139.4,2282.5c0,0.5-0.4,0.8-0.8,0.8h-13c-0.5,0-0.9-0.4-0.9-0.8v-13c0-0.5,0.4-0.8,0.9-0.8h13
					c0.5,0,0.8,0.4,0.8,0.8C139.4,2269.5,139.4,2282.5,139.4,2282.5z"/>
				<path class="st1" d="M157.3,2282.5c0,0.5-0.4,0.8-0.8,0.8h-13c-0.5,0-0.8-0.4-0.8-0.8v-13c0-0.5,0.4-0.8,0.8-0.8h13
					c0.5,0,0.8,0.4,0.8,0.8C157.3,2269.5,157.3,2282.5,157.3,2282.5z"/>
				<path class="st1" d="M-26.2,2264.5c0,0.5-0.4,0.9-0.9,0.9h-13c-0.5,0-0.9-0.4-0.9-0.9v-13c0-0.5,0.4-0.8,0.9-0.8h13
					c0.5,0,0.9,0.4,0.9,0.8V2264.5z"/>
				<path class="st1" d="M-8.3,2264.5c0,0.5-0.4,0.9-0.9,0.9h-13c-0.5,0-0.8-0.4-0.8-0.9v-13c0-0.5,0.4-0.8,0.8-0.8h13
					c0.5,0,0.9,0.4,0.9,0.8V2264.5z"/>
				<path class="st1" d="M9.6,2264.5c0,0.5-0.4,0.9-0.9,0.9h-13c-0.5,0-0.8-0.4-0.8-0.9v-13c0-0.5,0.4-0.8,0.8-0.8h13
					c0.5,0,0.9,0.4,0.9,0.8V2264.5z"/>
				<path class="st1" d="M27.6,2264.5c0,0.5-0.4,0.9-0.8,0.9h-13c-0.5,0-0.9-0.4-0.9-0.9v-13c0-0.5,0.4-0.8,0.9-0.8h13
					c0.5,0,0.8,0.4,0.8,0.8V2264.5z"/>
				<path class="st1" d="M45.5,2264.5c0,0.5-0.4,0.9-0.9,0.9h-13c-0.5,0-0.8-0.4-0.8-0.9v-13c0-0.5,0.4-0.8,0.8-0.8h13
					c0.5,0,0.9,0.4,0.9,0.8V2264.5z"/>
				<path class="st1" d="M63.4,2264.5c0,0.5-0.4,0.9-0.8,0.9h-13c-0.5,0-0.9-0.4-0.9-0.9v-13c0-0.5,0.4-0.8,0.9-0.8h13
					c0.5,0,0.8,0.4,0.8,0.8V2264.5z"/>
				<path class="st1" d="M81.3,2264.5c0,0.5-0.4,0.9-0.8,0.9h-13c-0.5,0-0.8-0.4-0.8-0.9v-13c0-0.5,0.4-0.8,0.8-0.8h13
					c0.5,0,0.8,0.4,0.8,0.8V2264.5z"/>
				<path class="st1" d="M99.3,2264.5c0,0.5-0.4,0.9-0.9,0.9h-13c-0.5,0-0.8-0.4-0.8-0.9v-13c0-0.5,0.4-0.8,0.8-0.8h13
					c0.5,0,0.9,0.4,0.9,0.8V2264.5z"/>
				<path class="st1" d="M117.2,2264.5c0,0.5-0.4,0.9-0.8,0.9h-13c-0.5,0-0.8-0.4-0.8-0.9v-13c0-0.5,0.4-0.8,0.8-0.8h13
					c0.5,0,0.8,0.4,0.8,0.8V2264.5z"/>
				<path class="st1" d="M135.1,2264.5c0,0.5-0.4,0.9-0.9,0.9h-13c-0.5,0-0.8-0.4-0.8-0.9v-13c0-0.5,0.4-0.8,0.8-0.8h13
					c0.5,0,0.9,0.4,0.9,0.8C135.1,2251.5,135.1,2264.5,135.1,2264.5z"/>
				<path class="st1" d="M153,2264.5c0,0.5-0.4,0.9-0.8,0.9h-13c-0.5,0-0.9-0.4-0.9-0.9v-13c0-0.5,0.4-0.8,0.9-0.8h13
					c0.5,0,0.8,0.4,0.8,0.8C153,2251.5,153,2264.5,153,2264.5z"/>
				<path class="st1" d="M-62.1,2264.5c0,0.5-0.4,0.9-0.8,0.9H-85c-0.5,0-0.9-0.4-0.9-0.9v-13c0-0.5,0.4-0.8,0.9-0.8h22.1
					c0.5,0,0.9,0.4,0.9,0.8L-62.1,2264.5z"/>
				<path class="st1" d="M171,2246.6c0,0.5-0.4,0.9-0.9,0.9H148c-0.5,0-0.8-0.4-0.8-0.9v-13c0-0.5,0.4-0.9,0.8-0.9h22.1
					c0.5,0,0.8,0.4,0.9,0.9V2246.6z"/>
				<path class="st1" d="M-57.8,2282.5c0,0.5-0.4,0.8-0.9,0.8H-85c-0.5,0-0.9-0.4-0.9-0.8v-13c0-0.5,0.4-0.8,0.9-0.8h26.3
					c0.5,0,0.9,0.4,0.9,0.8V2282.5z"/>
				<path class="st1" d="M-66.6,2300.4c0,0.5-0.4,0.9-0.9,0.9H-85c-0.5,0-0.9-0.4-0.9-0.9v-13c0-0.5,0.4-0.9,0.9-0.9h17.5
					c0.5,0,0.9,0.4,0.9,0.9V2300.4z"/>
				<path class="st1" d="M-53.2,2246.6c0,0.5-0.4,0.9-0.9,0.9h-13c-0.5,0-0.9-0.4-0.9-0.9v-13c0-0.5,0.4-0.9,0.9-0.9h13
					c0.5,0,0.9,0.4,0.9,0.9V2246.6z"/>
				<path class="st1" d="M-35.3,2246.6c0,0.5-0.4,0.9-0.9,0.9h-13c-0.5,0-0.8-0.4-0.8-0.9v-13c0-0.5,0.4-0.9,0.8-0.9h13
					c0.5,0,0.8,0.4,0.8,0.9L-35.3,2246.6L-35.3,2246.6z"/>
				<path class="st1" d="M-17.4,2246.6c0,0.5-0.4,0.9-0.9,0.9h-13c-0.5,0-0.8-0.4-0.8-0.9v-13c0-0.5,0.4-0.9,0.8-0.9h13
					c0.5,0,0.9,0.4,0.9,0.9V2246.6z"/>
				<path class="st1" d="M0.6,2246.6c0,0.5-0.4,0.9-0.9,0.9h-13c-0.5,0-0.9-0.4-0.9-0.9v-13c0-0.5,0.4-0.9,0.8-0.9h13
					c0.5,0,0.9,0.4,0.9,0.9L0.6,2246.6z"/>
				<path class="st1" d="M18.5,2246.6c0,0.5-0.4,0.9-0.8,0.9h-13c-0.5,0-0.8-0.4-0.8-0.9v-13c0-0.5,0.4-0.9,0.8-0.9h13
					c0.5,0,0.8,0.4,0.8,0.9V2246.6z"/>
				<path class="st1" d="M36.4,2246.6c0,0.5-0.4,0.9-0.9,0.9h-13c-0.5,0-0.9-0.4-0.9-0.9v-13c0-0.5,0.4-0.9,0.9-0.9h13
					c0.5,0,0.9,0.4,0.9,0.9C36.4,2233.6,36.4,2246.6,36.4,2246.6z"/>
				<path class="st1" d="M54.3,2246.6c0,0.5-0.4,0.9-0.8,0.9h-13c-0.5,0-0.9-0.4-0.9-0.9v-13c0-0.5,0.4-0.9,0.9-0.9h13
					c0.5,0,0.8,0.4,0.8,0.9V2246.6z"/>
				<path class="st1" d="M72.3,2246.6c0,0.5-0.4,0.9-0.9,0.9h-13c-0.5,0-0.8-0.4-0.8-0.9v-13c0-0.5,0.4-0.9,0.8-0.9h13
					c0.5,0,0.9,0.4,0.9,0.9V2246.6z"/>
				<path class="st1" d="M90.2,2246.6c0,0.5-0.4,0.9-0.8,0.9h-13c-0.5,0-0.9-0.4-0.9-0.9v-13c0-0.5,0.4-0.9,0.9-0.9h13
					c0.5,0,0.8,0.4,0.8,0.9V2246.6z"/>
				<path class="st1" d="M108.1,2246.6c0,0.5-0.4,0.9-0.8,0.9h-13c-0.5,0-0.8-0.4-0.8-0.9v-13c0-0.5,0.4-0.9,0.8-0.9h13
					c0.5,0,0.8,0.4,0.8,0.9V2246.6z"/>
				<path class="st1" d="M126.1,2246.6c0,0.5-0.4,0.9-0.9,0.9h-13c-0.5,0-0.9-0.4-0.9-0.9v-13c0-0.5,0.4-0.9,0.9-0.9h13
					c0.5,0,0.9,0.4,0.9,0.9C126.1,2233.6,126.1,2246.6,126.1,2246.6z"/>
				<path class="st1" d="M144,2246.6c0,0.5-0.4,0.9-0.8,0.9h-13c-0.5,0-0.8-0.4-0.8-0.9v-13c0-0.5,0.4-0.9,0.8-0.9h13
					c0.5,0,0.8,0.4,0.8,0.9C144,2233.6,144,2246.6,144,2246.6z"/>
				<g>
					<path class="st1" d="M138.5,2313.4v7.2c0,0.2,0.1,0.4,0.2,0.6c0.2,0.2,0.4,0.2,0.6,0.3h13c0.2,0,0.4-0.1,0.6-0.3
						c0.2-0.2,0.2-0.4,0.2-0.6v-7.2H138.5z"/>
					<path class="st1" d="M153.2,2312.5v-7.2c0-0.2-0.1-0.4-0.2-0.6c-0.2-0.2-0.4-0.3-0.6-0.3h-13c-0.2,0-0.4,0.1-0.6,0.3
						c-0.2,0.2-0.2,0.4-0.2,0.6v7.2H153.2z"/>
				</g>
				<path class="st1" d="M157.1,2250.7c-0.2,0-0.4,0.1-0.6,0.2c-0.2,0.2-0.2,0.4-0.2,0.6v13c0,0.2,0.1,0.4,0.2,0.6
					c0.2,0.2,0.4,0.3,0.6,0.3h3.4v17.1c0,0.2,0.1,0.4,0.2,0.6c0.2,0.2,0.4,0.2,0.6,0.2h8.8c0.2,0,0.4-0.1,0.6-0.2
					c0.2-0.2,0.2-0.4,0.2-0.6v-30.9c0-0.2-0.1-0.4-0.2-0.6c-0.2-0.2-0.4-0.2-0.6-0.2L157.1,2250.7L157.1,2250.7z"/>
			</g>
		</g>
		<g>
			<g>
				<g>
					<path class="st1" d="M426.7,2232.8c17.8,30.1,15.5,55.3,15.4,56.3l-3.7-0.4c0-0.2,2.2-25.1-14.9-54.1L426.7,2232.8z"/>
				</g>
				<g>
					<path class="st20" d="M409.2,2229.2c-1.5-2.6-0.6-5.9,2-7.4l3.5-2c2.6-1.5,5.9-0.6,7.4,2l7.9,13.9c1.5,2.6,0.6,5.9-2,7.4
						l-3.5,2c-2.6,1.5-5.9,0.6-7.4-2L409.2,2229.2z"/>
					<path class="st21" d="M392.6,2232.6c-2.5-4.3-1-9.8,3.3-12.2l5.8-3.3c4.3-2.5,9.8-1,12.2,3.3l13.2,23.1c2.5,4.3,1,9.8-3.3,12.2
						l-5.8,3.3c-4.3,2.5-9.8,1-12.2-3.3L392.6,2232.6z"/>
					<path class="st0" d="M386.3,2227.4c-1.8-3.1-0.7-7,2.4-8.7l1.3-0.7c3.1-1.8,7-0.7,8.7,2.4l20.7,36.4c1.8,3.1,0.7,7-2.4,8.7
						l-1.3,0.7c-3.1,1.8-7,0.7-8.7-2.4L386.3,2227.4z"/>
				</g>
				<g>
					<path class="st1" d="M327.3,2252.5l3.7,0.5c-4.8,33.4,6.8,55.5,6.9,55.7l-3.3,1.8C334.1,2309.5,322.4,2287.1,327.3,2252.5z"/>
				</g>
				<g>
					<path class="st20" d="M342.1,2242.5c0.4-3-1.7-5.7-4.7-6l-4-0.5c-3-0.4-5.7,1.7-6,4.7l-2,15.9c-0.4,3,1.7,5.7,4.7,6l4,0.5
						c3,0.4,5.7-1.7,6-4.7L342.1,2242.5z"/>
					<path class="st21" d="M358.7,2239.3c0.6-4.9-2.9-9.4-7.8-10l-6.6-0.8c-4.9-0.6-9.4,2.9-10,7.8l-3.4,26.4
						c-0.6,4.9,2.9,9.4,7.8,10l6.6,0.8c4.9,0.6,9.4-2.9,10-7.8L358.7,2239.3z"/>
					<path class="st0" d="M362.6,2232.1c0.4-3.5-2-6.7-5.5-7.2l-1.5-0.2c-3.5-0.4-6.7,2-7.2,5.5l-5.3,41.5c-0.4,3.5,2,6.7,5.5,7.2
						l1.5,0.2c3.5,0.4,6.7-2,7.2-5.5L362.6,2232.1z"/>
				</g>
				<g>
					<g>
						<path class="st19" d="M437.5,2286.8c0.8-0.1,1.6-0.1,2.4,0c3,0.7,4.8,3.7,4.1,6.7c-4.2,17.9-19.2,39.2-48.6,45
							c-22.9,4.5-45.3-3-61.3-20.6c-2.1-2.3-1.9-5.8,0.4-7.9c2.3-2.1,5.8-1.9,7.9,0.4c6.3,7,24,22.6,50.9,17.2
							c24.2-4.8,36.5-22.1,39.9-36.6C433.7,2288.8,435.4,2287.2,437.5,2286.8z"/>
					</g>
				</g>
				<path class="st0" d="M439.9,2286.9c-0.8-0.2-1.6-0.2-2.4,0c-2.1,0.4-3.8,2-4.3,4.2c-3.4,14.6-15.7,31.8-39.9,36.6
					c-27,5.4-44.6-10.3-50.9-17.2c-2.1-2.3-5.6-2.4-7.9-0.4c-0.5,0.4-0.9,1-1.2,1.5c0.2,0.4,0.5,0.8,0.8,1.1
					c16.1,17.7,38.4,25.2,61.3,20.6c28.5-5.7,43.5-25.9,48.2-43.5C442.9,2288.4,441.6,2287.3,439.9,2286.9z"/>
				<g>
					<path class="st19" d="M322.7,2231.1c-2.1,0-4.2-0.2-6.5-0.6c-8.9-1.7-15.3-6.9-17.6-14.2c-3.1-10,1.9-22.6,13.7-34.5
						c6.4-6.4,8.4-14.1,5.7-21c-2.8-6.9-9.9-12-17.5-12.2c-4.9-0.2-14,1.6-20.2,14.8c-3.9,8.1-15.8,12.8-27.3,10.6
						c-11.2-2.2-18.3-10.2-19-21.5c-1.6-26.8,20.3-45,63.3-52.9l0.2,1.2c-42.3,7.7-63.8,25.6-62.3,51.6c0.9,15.4,12.9,19.4,18,20.3
						c10.9,2.1,22.3-2.2,25.9-9.9c4.8-10.1,12.6-15.8,21.4-15.5c8,0.3,15.6,5.6,18.6,13s0.8,15.6-5.9,22.4
						c-11.5,11.6-16.4,23.7-13.4,33.3c2.2,6.9,8.2,11.8,16.6,13.4c7.8,1.5,14.6,0.3,20.2-3.6c10-7,13.3-20.4,14.3-25.9
						c2.8-16,13.8-24.5,32.7-25.5c8.1-0.4,14.5,1.7,19.2,6.1c7.4,7,8.2,18,8.1,22.4c0,8.5,4.7,16.6,4.8,16.7l-1.1,0.6
						c-0.2-0.3-5-8.5-4.9-17.3c0-4.2-0.7-14.8-7.8-21.5c-4.4-4.2-10.6-6.1-18.3-5.8c-18.3,0.9-28.9,9.1-31.5,24.4
						c-1,5.6-4.4,19.5-14.8,26.7C333.2,2229.6,328.3,2231.1,322.7,2231.1z"/>
				</g>
			</g>
			<g>
				<path class="st22" d="M319.1,2094.8c0.1,0.5-0.2,1-0.7,1.1l-10.3,2.3c-0.5,0.1-1-0.2-1.1-0.7l0,0c-0.1-0.5,0.2-1,0.7-1.1
					l10.3-2.3C318.5,2094,319,2094.3,319.1,2094.8L319.1,2094.8z"/>
				<path class="st0" d="M309.2,2094.7l-10.7,2.3c-1.3,0.3-2.1,1.6-1.8,2.9c0.3,1.3,1.6,2.1,2.9,1.8l10.7-2.3L309.2,2094.7z"/>
				
					<rect x="308" y="2094.9" transform="matrix(0.9767 -0.2148 0.2148 0.9767 -443.2754 115.1849)" class="st23" width="0.7" height="4.8"/>
			</g>
		</g>
		<g id="telephone">
			<path class="st0" d="M-107.8,2289.5c0.5,1.9-0.7,3.9-2.7,4.3l-27.9,6.6c-1.9,0.5-3.9-0.7-4.3-2.7l-13.2-56.4
				c-0.5-1.9,0.7-3.9,2.7-4.3l27.9-6.6c1.9-0.5,3.9,0.7,4.3,2.7L-107.8,2289.5z"/>
			
				<rect x="-148.2" y="2239.7" transform="matrix(0.9735 -0.2287 0.2287 0.9735 -522.0129 30.039)" class="st21" width="33.7" height="55.2"/>
			<circle class="st24" cx="-138.6" cy="2237" r="0.9"/>
		</g>
		<g id="pencil_2_">
			<path class="st25" d="M488.9,2083l-69.9-69.9c-0.5,0.8-0.3,1.9,0.4,2.9l68.3,68.3L488.9,2083z"/>
			<path class="st26" d="M484.8,2087.1l2.9-2.9l-68.3-68.3l0,0l0,0l0,0c-1-0.9-2.4-1-3.1-0.3s-0.6,2.1,0.3,3.1l0,0l0,0l0,0
				L484.8,2087.1z"/>
			<path class="st25" d="M416.5,2018.8c-0.9-0.8-2.1-1-2.9-0.5l69.9,69.9l1.2-1.2L416.5,2018.8z"/>
			<path class="st27" d="M413.6,2018.4c0.8-0.5,1.9-0.3,2.9,0.5l0,0l0,0l0,0c-0.9-1-1-2.4-0.3-3.1s2.1-0.6,3.1,0.3l0,0l0,0l0,0
				c-0.8-0.9-1-2.1-0.4-2.9l-7.1-1.8L413.6,2018.4z"/>
			<path class="st28" d="M415.3,2012.1l-3.5-0.9l0.9,3.5c0.6-0.3,1.1-0.6,1.5-1.1C414.7,2013.2,415,2012.7,415.3,2012.1z"/>
			<g>
				
					<rect x="488.6" y="2083.2" transform="matrix(0.707 -0.7072 0.7072 0.707 -1330.9443 956.9526)" class="st29" width="1.7" height="3"/>
				
					<rect x="485.3" y="2085.2" transform="matrix(0.707 -0.7072 0.7072 0.707 -1332.9423 956.0524)" class="st30" width="4.1" height="3"/>
				
					<rect x="484.5" y="2087.3" transform="matrix(0.7074 -0.7068 0.7068 0.7074 -1334.3894 954.2415)" class="st29" width="1.7" height="3"/>
			</g>
		</g>
		<g id="screen">
			<path class="st1" d="M124.4,2140.4c0,12.8-10.4,23.2-23.2,23.2H-16.2c-12.8,0-23.2-10.4-23.2-23.2v-5.9
				c0-12.8,10.4-23.2,23.2-23.2h117.4c12.8,0,23.2,10.4,23.2,23.2C124.4,2134.5,124.4,2140.4,124.4,2140.4z"/>
			<path class="st31" d="M-167.4,2030.4c0.3,0.8,0.5,1.6,0.9,2.4l30.3,84.5h355.6l32.8-86.9L-167.4,2030.4L-167.4,2030.4z"/>
			<path class="st0" d="M252,2030.8l0.7-1.8c1.1-2.8-0.2-5.8-3.5-5.8h-412.9c-3.5,0-5.1,3.4-3.6,7.7L252,2030.8L252,2030.8z"/>
			<polygon class="st32" points="232.5,2040.5 207.8,2110.1 -124.5,2110.1 -149.4,2040.5 			"/>
			<path class="st0" d="M-136.3,2117.3l4.2,11.7c1.7,4.7,7.1,8.5,12,8.5h322.8c4.9,0,10.4-3.8,12.2-8.4l4.5-11.8H-136.3z"/>
		</g>
		<polygon points="485.6,2082.1 482.7,2085 481.5,2086.2 483.6,2088.3 484.8,2087.1 487.7,2084.3 488.9,2083 486.8,2080.9 		"/>
	</g>
</g>
</svg>
