<?xml version="1.0" encoding="UTF-8" ?>
<!DOCTYPE svg PUBLIC "-//W3C//DTD SVG 1.1//EN" "http://www.w3.org/Graphics/SVG/1.1/DTD/svg11.dtd">
<svg width="1000pt" height="1000pt" viewBox="0 0 1000 1000" version="1.1" xmlns="http://www.w3.org/2000/svg">
<g id="#000000ff">
<path fill="#000000" opacity="1.00" d=" M 484.55 44.83 C 518.11 41.35 553.72 46.19 582.78 64.23 C 669.98 114.63 757.16 165.05 844.36 215.45 C 861.18 225.06 875.13 239.07 886.55 254.59 C 905.89 281.34 919.18 313.60 919.00 346.98 C 919.00 441.33 919.00 535.67 919.00 630.02 C 918.96 640.66 919.20 651.33 918.48 661.96 C 916.36 685.07 907.93 707.26 896.27 727.20 C 884.58 746.73 869.50 764.64 850.45 777.34 C 843.66 781.67 836.56 785.48 829.63 789.57 C 751.67 834.66 673.69 879.73 595.72 924.81 C 584.03 931.36 572.80 938.95 560.06 943.40 C 533.24 953.02 503.93 954.93 475.87 950.48 C 460.14 947.92 444.64 943.15 430.76 935.23 C 343.93 885.08 257.12 834.91 170.29 784.77 C 165.27 781.82 160.12 779.06 155.36 775.69 C 139.19 764.35 125.99 749.23 115.28 732.73 C 101.72 711.40 91.87 687.24 89.52 661.92 C 88.77 651.63 89.05 641.30 89.00 630.99 C 89.02 536.00 88.96 441.00 89.03 346.01 C 88.95 318.30 98.58 291.34 112.77 267.83 C 125.92 246.34 143.33 226.77 165.58 214.46 C 254.06 163.35 342.52 112.21 431.00 61.10 C 447.36 51.79 465.93 46.94 484.55 44.83 Z" />
</g>
</svg>
