<?xml version="1.0" encoding="utf-8"?>
<!-- Generator: Adobe Illustrator 18.0.0, SVG Export Plug-In . SVG Version: 6.00 Build 0)  -->
<!DOCTYPE svg PUBLIC "-//W3C//DTD SVG 1.1//EN" "http://www.w3.org/Graphics/SVG/1.1/DTD/svg11.dtd">
<svg version="1.1" id="Layer_1" xmlns="http://www.w3.org/2000/svg" xmlns:xlink="http://www.w3.org/1999/xlink" x="0px" y="0px"
	 width="552px" height="465px" viewBox="0 0 552 465" enable-background="new 0 0 552 465" xml:space="preserve">
<path fill="#E61D3B" d="M0,0h170.8c0,30.3,0,60.7,0,91c-8.6,0-17.2,0-25.8,0c0,22.1,0,44.1,0,66.2c31.4,0,62.8,0,94.2,0
	c0-22.1,0-44.1,0-66.2c-8.6,0-17.1,0-25.7,0c0-30.3,0-60.7,0-91h170.9c0.2,30.3,0,60.7,0.1,91c-9.2,0-18.5,0-27.7,0
	c0,22.1,0,44.1,0,66.2c44.2,0,88.5,0,132.7,0c0.1,30.3,0,60.7,0,91c-9.2,0-18.5,0-27.7,0c-0.1,41.3,0,82.5-0.1,123.8
	c0.1,0.6,0.4,1.8,0.5,2.3c9.1,0.3,18.2,0,27.2,0.1c0,30.2,0,60.3,0,90.5H318.6c-0.2-30.2,0-60.3-0.1-90.5c8.6-0.1,17.2,0.1,25.8-0.1
	c-0.1-5.5,0-11,0-16.4c-30.7,0-61.5,0-92.2,0c0,5.5-0.1,11,0.1,16.5c8.6,0,17.2-0.2,25.8,0.1c-0.3,30.1,0,60.2-0.1,90.4h-171
	c-0.1-30.1,0.1-60.2-0.1-90.4c9.2-0.4,18.4,0,27.6-0.2c0-24.1,0.1-48.2-0.1-72.3c-17,0.1-34.1,0-51.1,0.1c-1.5,0.1-3-0.2-4.1-1.3
	c-16.5-14.2-32.9-28.4-49.4-42.5c-1-0.9-2.3-1.8-2-3.4c0-54.7-0.1-109.3,0-164C18.4,90.9,9.2,91,0,91V0z"/>
<path fill="#FFFCFC" d="M12.8,12.8c48.4,0,96.8,0,145.2,0c0,21.7,0,43.5,0,65.2c-8.6,0-17.2-0.1-25.8,0c0,30.7,0.1,61.4,0,92.1
	c40,0.3,80.1,0.1,120.1,0.1c0-30.8,0-61.5,0-92.2c-8.6,0-17.2,0-25.7,0c0-21.7,0-43.5,0-65.2c48.3,0,96.6,0,145,0
	c0,21.7,0,43.5,0,65.2c-9.2,0-18.3,0-27.5,0c0,30.8,0,61.5,0,92.2c44.1,0,88.3,0,132.4,0c0.1,21.8,0,43.5,0,65.3
	c-9.1,0-18.2,0.1-27.4-0.1c-0.3,50.7,0,101.4-0.1,152.1c9.2,0,18.3,0,27.5,0c0,21.6,0,43.3,0,64.9c-48.3,0-96.6,0-145,0
	c0-21.6,0-43.3,0-64.9c8.6-0.1,17.2,0,25.8-0.1c0-14.2,0-28.3,0-42.5c-39.4,0-78.8,0-118.2,0c0.1,14.2-0.1,28.4,0.1,42.6
	c8.6-0.1,17.1-0.2,25.7,0c-0.1,21.6-0.1,43.2,0,64.8c-48.4,0.2-96.9,0-145.3,0.1c-0.1-21.6,0-43.3,0-64.9c9.3-0.1,18.5,0,27.8-0.1
	c0-32.6-0.1-65.3,0-97.9c-20.1-0.2-40.2,0-60.3-0.1c-1.5,0.3-2.6-1-3.7-1.8c-14.2-12.3-28.4-24.6-42.7-36.8
	c-0.2-57.6-0.1-115.2,0-172.8c-9.3-0.2-18.5,0-27.8-0.1C12.8,56.3,12.8,34.5,12.8,12.8z"/>
<path fill="#E61D3B" d="M25,25c40.3,0,80.5,0,120.8,0c-0.1,13.6,0,27.2,0,40.7c-8.6,0-17.2,0-25.8,0c0,56.5,0,113,0,169.5
	c9.1,0,18.3,0.1,27.4-0.1c0.2,14,0.1,28.1,0.1,42.1c-19.2,0-38.3,0-57.5,0c-12.4-10.7-24.9-21.4-37.3-32.1
	c0.1-59.8-0.1-119.5,0.1-179.2c-9.2-0.2-18.5-0.1-27.8-0.1C25,52.2,25,38.6,25,25z"/>
<path fill="#E61D3B" d="M238.8,25c40.2,0,80.3,0,120.5,0c0,13.6,0,27.2,0,40.8c-9.1,0-18.3,0-27.5,0c0,59.7-0.1,119.3,0,179
	c-11.2,10.4-22.9,20.4-34.3,30.7c-1,0.8-2,2-3.5,1.8c-18.4,0-36.8,0-55.2,0c0-14,0-28,0-42c8.5,0.1,17.1-0.1,25.6,0.1
	c0.3-48.1,0-96.2,0.1-144.3c-0.1-8.4,0.2-16.9-0.2-25.3c-8.5,0.2-17,0-25.5,0.1C238.6,52.2,238.8,38.6,238.8,25z"/>
<path fill="#E61D3B" d="M343.7,182.6c35.4-0.3,70.8,0,106.2-0.1c4.8,0.1,9.6-0.2,14.4,0.1c-0.1,13.5,0,27.1-0.1,40.6
	c-9.1,0-18.2,0.1-27.3-0.1c-0.3,58.9-0.2,117.7-0.1,176.6c9.1-0.1,18.3,0,27.4,0c0,13.5,0,27,0,40.5c-40.2,0-80.3,0-120.5,0
	c0-13.5,0-27,0-40.5c8.6-0.1,17.2,0.2,25.8-0.2c-0.2-22.3,0-44.6-0.1-66.8c-47.6,0-95.1,0-142.7,0c0,22.3,0,44.7,0,67
	c8.5-0.1,17,0.1,25.6-0.1c0.3,13.5,0.2,27.1,0,40.6c-40.1-0.1-80.2,0-120.4-0.1c0-13.5,0-27,0-40.5c9.2-0.1,18.4,0.2,27.6-0.2
	c-0.4-58.8,0.2-117.6-0.3-176.4c-9.1,0.2-18.2,0-27.3,0.1c0-13.6,0-27.2,0-40.7c40.2,0,80.3,0,120.5,0c0,13.6,0,27.1,0,40.7
	c-8.5,0-17.1,0.1-25.6-0.1c-0.3,22-0.1,44-0.1,66c47.6,0,95.2,0,142.7,0c0.1-21.9-0.2-43.9,0.1-65.8c-8.6-0.5-17.2-0.1-25.9-0.2
	C343.7,209.7,343.8,196.1,343.7,182.6z"/>
<path fill="#E61D3B" d="M316.7,276c13.1-11.7,26.2-23.5,39.5-35c0,11.7,0,23.3,0,35C343.1,276,329.9,276,316.7,276z"/>
<path fill="#E61D3B" d="M506,445c5.7,0,11.3,0,17,0c0,1.6,0,3.2,0,4.8c-1.9,0-3.8,0-5.8,0c0,5.1,0,10.1,0,15.2h-5.5
	c0-5.1,0-10.1,0-15.2c-1.9,0-3.8,0-5.8,0C506,448.2,506,446.6,506,445z"/>
<path fill="#E61D3B" d="M526,445c3,0,6,0,8.9,0c1.3,3.1,2.6,6.2,3.8,9.3c1.9-2.9,3-6.2,4.4-9.3c2.9,0,5.8,0,8.7,0c0,6.7,0,13.3,0,20
	h-5.5c0-5.1,0.1-10.1-0.1-15.2c-2.1,3.5-3.5,7.4-5.3,11.1c-1.4-0.1-2.8-0.2-4.2-0.3c-1.6-3.9-3.2-7.8-5.3-11.5
	c-0.2,5.3,0,10.6-0.1,15.9H526C526,458.3,526,451.7,526,445z"/>
</svg>
